<svg width="20" height="20" viewBox="0 0 20 20" fill="none" xmlns="http://www.w3.org/2000/svg">
<g clip-path="url(#clip0_44_28)">
<path d="M3.49705 15.601C3.59199 15.596 3.68697 15.6103 3.77619 15.6431C3.86542 15.6759 3.94702 15.7266 4.01602 15.792C4.08502 15.8574 4.13998 15.9362 4.17753 16.0235C4.21509 16.1109 4.23445 16.205 4.23445 16.3C4.23445 16.3951 4.21509 16.4892 4.17753 16.5765C4.13998 16.6639 4.08502 16.7427 4.01602 16.8081C3.94702 16.8735 3.86542 16.9241 3.77619 16.957C3.68697 16.9898 3.59199 17.0041 3.49705 16.999H0.70005C0.60511 17.0041 0.510131 16.9898 0.420906 16.957C0.33168 16.9241 0.250078 16.8735 0.181077 16.8081C0.112076 16.7427 0.0571228 16.6639 0.0195686 16.5765C-0.0179857 16.4892 -0.0373535 16.3951 -0.0373535 16.3C-0.0373535 16.205 -0.0179857 16.1109 0.0195686 16.0235C0.0571228 15.9362 0.112076 15.8574 0.181077 15.792C0.250078 15.7266 0.33168 15.6759 0.420906 15.6431C0.510131 15.6103 0.60511 15.596 0.70005 15.601H3.49705ZM19.3 15.601C19.395 15.596 19.49 15.6103 19.5792 15.6431C19.6684 15.6759 19.75 15.7266 19.819 15.792C19.888 15.8574 19.943 15.9362 19.9805 16.0235C20.0181 16.1109 20.0375 16.205 20.0375 16.3C20.0375 16.3951 20.0181 16.4892 19.9805 16.5765C19.943 16.6639 19.888 16.7427 19.819 16.8081C19.75 16.8735 19.6684 16.9241 19.5792 16.957C19.49 16.9898 19.395 17.0041 19.3 16.999H5.52905C5.43411 17.0041 5.33913 16.9898 5.24991 16.957C5.16068 16.9241 5.07908 16.8735 5.01008 16.8081C4.94108 16.7427 4.88612 16.6639 4.84857 16.5765C4.81101 16.4892 4.79165 16.3951 4.79165 16.3C4.79165 16.205 4.81101 16.1109 4.84857 16.0235C4.88612 15.9362 4.94108 15.8574 5.01008 15.792C5.07908 15.7266 5.16068 15.6759 5.24991 15.6431C5.33913 15.6103 5.43411 15.596 5.52905 15.601H19.3ZM3.49705 9.33305C3.59113 9.32949 3.68497 9.34495 3.77294 9.3785C3.86091 9.41205 3.94121 9.463 4.00903 9.52831C4.07686 9.59361 4.13081 9.67193 4.16766 9.75857C4.20451 9.84521 4.2235 9.93839 4.2235 10.0325C4.2235 10.1267 4.20451 10.2199 4.16766 10.3065C4.13081 10.3932 4.07686 10.4715 4.00903 10.5368C3.94121 10.6021 3.86091 10.653 3.77294 10.6866C3.68497 10.7201 3.59113 10.7356 3.49705 10.732H0.70005C0.605965 10.7356 0.512129 10.7201 0.424157 10.6866C0.336186 10.653 0.255887 10.6021 0.188065 10.5368C0.120243 10.4715 0.0662923 10.3932 0.0294414 10.3065C-0.0074094 10.2199 -0.0264031 10.1267 -0.0264031 10.0325C-0.0264031 9.93839 -0.0074094 9.84521 0.0294414 9.75857C0.0662923 9.67193 0.120243 9.59361 0.188065 9.52831C0.255887 9.463 0.336186 9.41205 0.424157 9.3785C0.512129 9.34495 0.605965 9.32949 0.70005 9.33305H3.49705ZM19.3 9.33305C19.3941 9.32949 19.488 9.34495 19.5759 9.3785C19.6639 9.41205 19.7442 9.463 19.812 9.52831C19.8799 9.59361 19.9338 9.67193 19.9707 9.75857C20.0075 9.84521 20.0265 9.93839 20.0265 10.0325C20.0265 10.1267 20.0075 10.2199 19.9707 10.3065C19.9338 10.3932 19.8799 10.4715 19.812 10.5368C19.7442 10.6021 19.6639 10.653 19.5759 10.6866C19.488 10.7201 19.3941 10.7356 19.3 10.732H5.52805C5.43396 10.7356 5.34013 10.7201 5.25216 10.6866C5.16419 10.653 5.08389 10.6021 5.01606 10.5368C4.94824 10.4715 4.89429 10.3932 4.85744 10.3065C4.82059 10.2199 4.8016 10.1267 4.8016 10.0325C4.8016 9.93839 4.82059 9.84521 4.85744 9.75857C4.89429 9.67193 4.94824 9.59361 5.01606 9.52831C5.08389 9.463 5.16419 9.41205 5.25216 9.3785C5.34013 9.34495 5.43396 9.32949 5.52805 9.33305H19.3ZM3.49705 2.99905C3.59199 2.99397 3.68697 3.00828 3.77619 3.04111C3.86542 3.07395 3.94702 3.12461 4.01602 3.19002C4.08502 3.25543 4.13998 3.33421 4.17753 3.42155C4.21509 3.50889 4.23445 3.60297 4.23445 3.69805C4.23445 3.79312 4.21509 3.8872 4.17753 3.97454C4.13998 4.06189 4.08502 4.14067 4.01602 4.20607C3.94702 4.27148 3.86542 4.32215 3.77619 4.35498C3.68697 4.38781 3.59199 4.40213 3.49705 4.39705H0.70005C0.60511 4.40213 0.510131 4.38781 0.420906 4.35498C0.33168 4.32215 0.250078 4.27148 0.181077 4.20607C0.112076 4.14067 0.0571228 4.06189 0.0195686 3.97454C-0.0179857 3.8872 -0.0373535 3.79312 -0.0373535 3.69805C-0.0373535 3.60297 -0.0179857 3.50889 0.0195686 3.42155C0.0571228 3.33421 0.112076 3.25543 0.181077 3.19002C0.250078 3.12461 0.33168 3.07395 0.420906 3.04111C0.510131 3.00828 0.60511 2.99397 0.70005 2.99905H3.49705ZM19.3 2.99905C19.395 2.99397 19.49 3.00828 19.5792 3.04111C19.6684 3.07395 19.75 3.12461 19.819 3.19002C19.888 3.25543 19.943 3.33421 19.9805 3.42155C20.0181 3.50889 20.0375 3.60297 20.0375 3.69805C20.0375 3.79312 20.0181 3.8872 19.9805 3.97454C19.943 4.06189 19.888 4.14067 19.819 4.20607C19.75 4.27148 19.6684 4.32215 19.5792 4.35498C19.49 4.38781 19.395 4.40213 19.3 4.39705H5.52805C5.43311 4.40213 5.33813 4.38781 5.24891 4.35498C5.15968 4.32215 5.07808 4.27148 5.00908 4.20607C4.94008 4.14067 4.88512 4.06189 4.84757 3.97454C4.81001 3.8872 4.79065 3.79312 4.79065 3.69805C4.79065 3.60297 4.81001 3.50889 4.84757 3.42155C4.88512 3.33421 4.94008 3.25543 5.00908 3.19002C5.07808 3.12461 5.15968 3.07395 5.24891 3.04111C5.33813 3.00828 5.43311 2.99397 5.52805 2.99905H19.3Z" fill="white"/>
</g>
<defs>
<clipPath id="clip0_44_28">
<rect width="20" height="20" fill="white"/>
</clipPath>
</defs>
</svg>
