<svg width="117" height="117" viewBox="0 0 117 117" fill="none" xmlns="http://www.w3.org/2000/svg">
<path d="M31.6875 78C35.5063 78 39.2243 78.4274 42.8415 79.2821C46.4588 80.1369 50.0532 81.4158 53.625 83.1188V35.1C50.2937 33.15 46.7594 31.6875 43.0219 30.7125C39.2844 29.7375 35.5063 29.25 31.6875 29.25C28.7625 29.25 25.857 29.5344 22.971 30.1031C20.085 30.6719 17.303 31.525 14.625 32.6625V80.925C17.4687 79.95 20.293 79.2188 23.0977 78.7313C25.9025 78.2438 28.7657 78 31.6875 78ZM63.375 83.1188C66.95 81.4125 70.5461 80.1336 74.1634 79.2821C77.7806 78.4306 81.497 78.0033 85.3125 78C88.2375 78 91.1024 78.2438 93.9071 78.7313C96.7119 79.2188 99.5345 79.95 102.375 80.925V32.6625C99.6937 31.525 96.9101 30.6719 94.0241 30.1031C91.1381 29.5344 88.2343 29.25 85.3125 29.25C81.4937 29.25 77.7156 29.7375 73.9781 30.7125C70.2406 31.6875 66.7063 33.15 63.375 35.1V83.1188ZM58.5 94.9406C57.3625 94.9406 56.2851 94.7993 55.2679 94.5165C54.2506 94.2338 53.2967 93.847 52.4062 93.3563C49.2375 91.4875 45.9062 90.0868 42.4125 89.154C38.9187 88.2213 35.3438 87.7533 31.6875 87.75C28.275 87.75 24.9243 88.1969 21.6353 89.0906C18.3463 89.9844 15.197 91.2438 12.1875 92.8688C10.4813 93.7625 8.83675 93.7219 7.254 92.7469C5.67125 91.7719 4.87825 90.35 4.875 88.4813V29.7375C4.875 28.8438 5.09925 27.9906 5.54775 27.1781C5.99625 26.3656 6.66575 25.7562 7.55625 25.35C11.2937 23.4 15.1938 21.9375 19.2563 20.9625C23.3188 19.9875 27.4625 19.5 31.6875 19.5C36.4 19.5 41.0118 20.1094 45.5228 21.3281C50.0338 22.5469 54.3595 24.375 58.5 26.8125C62.6438 24.375 66.9711 22.5469 71.4821 21.3281C75.9931 20.1094 80.6032 19.5 85.3125 19.5C89.5375 19.5 93.6812 19.9875 97.7437 20.9625C101.806 21.9375 105.706 23.4 109.444 25.35C110.338 25.7562 111.009 26.3656 111.457 27.1781C111.906 27.9906 112.128 28.8438 112.125 29.7375V88.4813C112.125 90.35 111.334 91.7719 109.751 92.7469C108.168 93.7219 106.522 93.7625 104.812 92.8688C101.806 91.2438 98.6586 89.9844 95.3696 89.0906C92.0806 88.1969 88.7282 87.75 85.3125 87.75C81.6562 87.75 78.0813 88.218 74.5875 89.154C71.0938 90.09 67.7625 91.4908 64.5938 93.3563C63.7 93.8438 62.7461 94.2305 61.7321 94.5165C60.7181 94.8025 59.6407 94.9439 58.5 94.9406ZM68.25 42.7781C68.25 42.0469 68.5149 41.2961 69.0446 40.5259C69.5744 39.7556 70.1626 39.247 70.8094 39C73.1656 38.1875 75.5219 37.5781 77.8781 37.1719C80.2344 36.7656 82.7125 36.5625 85.3125 36.5625C86.9375 36.5625 88.543 36.6649 90.129 36.8696C91.715 37.0744 93.2783 37.3376 94.8188 37.6594C95.55 37.8219 96.1805 38.2281 96.7102 38.8781C97.24 39.5281 97.5032 40.2594 97.5 41.0719C97.5 42.4531 97.0531 43.4688 96.1594 44.1188C95.2656 44.7688 94.1281 44.9313 92.7469 44.6063C91.6094 44.3625 90.4118 44.1805 89.154 44.0603C87.8963 43.94 86.6157 43.8783 85.3125 43.875C83.2 43.875 81.1281 44.0781 79.0969 44.4844C77.0656 44.8906 75.1156 45.4188 73.2469 46.0688C71.7844 46.6375 70.5868 46.5969 69.654 45.9469C68.7213 45.2969 68.2532 44.2406 68.25 42.7781ZM68.25 69.5906C68.25 68.8594 68.5149 68.1086 69.0446 67.3384C69.5744 66.5681 70.1626 66.0595 70.8094 65.8125C73.1656 65 75.5219 64.3906 77.8781 63.9844C80.2344 63.5781 82.7125 63.375 85.3125 63.375C86.9375 63.375 88.543 63.4774 90.129 63.6821C91.715 63.8869 93.2783 64.1501 94.8188 64.4719C95.55 64.6344 96.1805 65.0406 96.7102 65.6906C97.24 66.3406 97.5032 67.0719 97.5 67.8844C97.5 69.2656 97.0531 70.2813 96.1594 70.9313C95.2656 71.5813 94.1281 71.7438 92.7469 71.4188C91.6094 71.175 90.4118 70.993 89.154 70.8728C87.8963 70.7525 86.6157 70.6908 85.3125 70.6875C83.2 70.6875 81.1281 70.8711 79.0969 71.2384C77.0656 71.6056 75.1156 72.1126 73.2469 72.7594C71.7844 73.3281 70.5868 73.3086 69.654 72.7009C68.7213 72.0931 68.2532 71.0564 68.25 69.5906ZM68.25 56.1844C68.25 55.4531 68.5149 54.7024 69.0446 53.9321C69.5744 53.1619 70.1626 52.6533 70.8094 52.4063C73.1656 51.5938 75.5219 50.9844 77.8781 50.5781C80.2344 50.1719 82.7125 49.9688 85.3125 49.9688C86.9375 49.9688 88.543 50.0711 90.129 50.2759C91.715 50.4806 93.2783 50.7439 94.8188 51.0656C95.55 51.2281 96.1805 51.6344 96.7102 52.2844C97.24 52.9344 97.5032 53.6656 97.5 54.4781C97.5 55.8594 97.0531 56.875 96.1594 57.525C95.2656 58.175 94.1281 58.3375 92.7469 58.0125C91.6094 57.7688 90.4118 57.5868 89.154 57.4665C87.8963 57.3463 86.6157 57.2845 85.3125 57.2813C83.2 57.2813 81.1281 57.4844 79.0969 57.8906C77.0656 58.2969 75.1156 58.825 73.2469 59.475C71.7844 60.0438 70.5868 60.0031 69.654 59.3531C68.7213 58.7031 68.2532 57.6469 68.25 56.1844Z" fill="white"/>
</svg>
