<svg width="106" height="106" viewBox="0 0 106 106" fill="none" xmlns="http://www.w3.org/2000/svg">
<path d="M96.0625 21.5312H66.25C63.5113 21.5325 60.8259 22.2883 58.4886 23.7155C56.1512 25.1428 54.2522 27.1864 53 29.622C51.7478 27.1864 49.8488 25.1428 47.5115 23.7155C45.1741 22.2883 42.4887 21.5325 39.75 21.5312H9.9375C9.49824 21.5312 9.07696 21.7057 8.76635 22.0164C8.45575 22.327 8.28125 22.7482 8.28125 23.1875V82.8125C8.28125 83.2518 8.45575 83.673 8.76635 83.9836C9.07696 84.2943 9.49824 84.4688 9.9375 84.4688H39.75C42.8249 84.4688 45.7738 85.6902 47.948 87.8645C50.1223 90.0387 51.3438 92.9876 51.3438 96.0625C51.3438 96.5018 51.5182 96.923 51.8289 97.2337C52.1395 97.5443 52.5607 97.7188 53 97.7188C53.4393 97.7188 53.8605 97.5443 54.1711 97.2337C54.4818 96.923 54.6562 96.5018 54.6562 96.0625C54.6562 92.9876 55.8777 90.0387 58.052 87.8645C60.2262 85.6902 63.1751 84.4688 66.25 84.4688H96.0625C96.5018 84.4688 96.923 84.2943 97.2337 83.9836C97.5443 83.673 97.7188 83.2518 97.7188 82.8125V23.1875C97.7188 22.7482 97.5443 22.327 97.2337 22.0164C96.923 21.7057 96.5018 21.5312 96.0625 21.5312ZM39.75 81.1562H11.5938V24.8438H39.75C42.8249 24.8438 45.7738 26.0652 47.948 28.2395C50.1223 30.4137 51.3438 33.3626 51.3438 36.4375V86.7047C49.9488 84.9722 48.1832 83.5744 46.1768 82.6143C44.1704 81.6541 41.9743 81.1558 39.75 81.1562ZM94.4062 81.1562H66.25C64.0254 81.1563 61.8291 81.6552 59.8227 82.6161C57.8163 83.577 56.0508 84.9756 54.6562 86.7088V36.4375C54.6562 33.3626 55.8777 30.4137 58.052 28.2395C60.2262 26.0652 63.1751 24.8438 66.25 24.8438H94.4062V81.1562ZM66.25 38.0938H82.8125C83.2518 38.0938 83.673 38.2682 83.9837 38.5789C84.2943 38.8895 84.4688 39.3107 84.4688 39.75C84.4688 40.1893 84.2943 40.6105 83.9837 40.9211C83.673 41.2318 83.2518 41.4062 82.8125 41.4062H66.25C65.8107 41.4062 65.3895 41.2318 65.0789 40.9211C64.7682 40.6105 64.5938 40.1893 64.5938 39.75C64.5938 39.3107 64.7682 38.8895 65.0789 38.5789C65.3895 38.2682 65.8107 38.0938 66.25 38.0938ZM84.4688 53C84.4688 53.4393 84.2943 53.8605 83.9837 54.1711C83.673 54.4818 83.2518 54.6562 82.8125 54.6562H66.25C65.8107 54.6562 65.3895 54.4818 65.0789 54.1711C64.7682 53.8605 64.5938 53.4393 64.5938 53C64.5938 52.5607 64.7682 52.1395 65.0789 51.8289C65.3895 51.5182 65.8107 51.3438 66.25 51.3438H82.8125C83.2518 51.3438 83.673 51.5182 83.9837 51.8289C84.2943 52.1395 84.4688 52.5607 84.4688 53ZM84.4688 66.25C84.4688 66.6893 84.2943 67.1105 83.9837 67.4211C83.673 67.7318 83.2518 67.9062 82.8125 67.9062H66.25C65.8107 67.9062 65.3895 67.7318 65.0789 67.4211C64.7682 67.1105 64.5938 66.6893 64.5938 66.25C64.5938 65.8107 64.7682 65.3895 65.0789 65.0789C65.3895 64.7682 65.8107 64.5938 66.25 64.5938H82.8125C83.2518 64.5938 83.673 64.7682 83.9837 65.0789C84.2943 65.3895 84.4688 65.8107 84.4688 66.25Z" fill="white"/>
</svg>
