<svg width="20" height="20" viewBox="0 0 20 20" fill="none" xmlns="http://www.w3.org/2000/svg">
<g clip-path="url(#clip0_77_2)">
<path d="M17.7778 3.33398H2.2222C1.92751 3.33398 1.64489 3.45105 1.43652 3.65942C1.22815 3.86779 1.11108 4.15041 1.11108 4.4451V15.5562C1.11108 15.8509 1.22815 16.1335 1.43652 16.3419C1.64489 16.5503 1.92751 16.6673 2.2222 16.6673H10.5555L10.8722 16.2784L11.3889 15.6451L11.3389 15.5562H2.2222V4.4451H17.7778V9.20065C18.1999 9.47379 18.5751 9.81335 18.8889 10.2062V4.4451C18.8889 4.15041 18.7718 3.86779 18.5634 3.65942C18.3551 3.45105 18.0724 3.33398 17.7778 3.33398Z" fill="white"/>
<path d="M3.88892 6.66602H13.3334V7.5549H3.88892V6.66602Z" fill="white"/>
<path d="M3.88892 8.88867H10V9.77756H3.88892V8.88867Z" fill="white"/>
<path d="M3.88892 12.7773H9.44447V13.6662H3.88892V12.7773Z" fill="white"/>
<path d="M15.2556 9.57238C14.5447 9.56673 13.8486 9.77568 13.2583 10.1719C12.668 10.5682 12.211 11.1333 11.9469 11.7934C11.6829 12.4535 11.6241 13.1779 11.7783 13.8719C11.9325 14.5659 12.2925 15.1973 12.8112 15.6835L11.7334 17.0002L12.2334 19.0057L14.2667 16.5279C14.9104 16.7182 15.5953 16.7182 16.2389 16.5279L18.2723 19.0057L18.7723 17.0002L17.6945 15.6835C18.2132 15.1973 18.5732 14.5659 18.7273 13.8719C18.8815 13.1779 18.8228 12.4535 18.5587 11.7934C18.2947 11.1333 17.8377 10.5682 17.2474 10.1719C16.6571 9.77568 15.961 9.56673 15.25 9.57238H15.2556ZM15.2556 15.5057C14.7835 15.4991 14.3239 15.3531 13.9345 15.0861C13.5452 14.819 13.2435 14.4428 13.0673 14.0047C12.8912 13.5667 12.8485 13.0863 12.9446 12.624C13.0408 12.1618 13.2714 11.7382 13.6076 11.4067C13.9437 11.0752 14.3704 10.8504 14.8339 10.7607C15.2975 10.671 15.7772 10.7203 16.2128 10.9025C16.6484 11.0846 17.0204 11.3915 17.282 11.7845C17.5437 12.1775 17.6833 12.6391 17.6834 13.1113C17.6775 13.7503 17.4188 14.3609 16.9638 14.8097C16.5088 15.2584 15.8946 15.5087 15.2556 15.5057Z" fill="white"/>
</g>
<defs>
<clipPath id="clip0_77_2">
<rect width="20" height="20" fill="white"/>
</clipPath>
</defs>
</svg>
