<svg width="78" height="78" viewBox="0 0 78 78" fill="none" xmlns="http://www.w3.org/2000/svg">
<path fill-rule="evenodd" clip-rule="evenodd" d="M0 9.75064C0 6.72164 0 5.20064 0.494 3.99814C1.15375 2.40564 2.418 1.14139 4.004 0.488141C5.2 -0.00585933 6.71125 -0.00585938 9.7565 -0.00585938C12.8018 -0.00585938 14.3065 -0.00585933 15.509 0.488141C17.1015 1.14789 18.3658 2.41214 19.019 3.99814C19.513 5.19414 19.513 6.70539 19.513 9.75064C19.513 12.7959 19.513 14.3006 19.019 15.5031C18.3593 17.0956 17.095 18.3599 15.509 19.0131C14.313 19.5071 12.8018 19.5071 9.7565 19.5071C6.71125 19.5071 5.2065 19.5071 4.004 19.0131C2.41573 18.3536 1.15359 17.0914 0.494 15.5031C0 14.3071 0 12.7959 0 9.75064ZM9.75 16.2506C8.19 16.2506 7.18575 16.2506 6.4025 16.1954C5.6615 16.1466 5.37875 16.0589 5.2455 16.0004C4.45014 15.6713 3.81781 15.0401 3.48725 14.2454C3.432 14.1089 3.34425 13.8294 3.29225 13.0884C3.2435 12.3181 3.2435 11.3106 3.2435 9.74089C3.2435 8.17114 3.2435 7.17339 3.29875 6.39339C3.3475 5.65239 3.43525 5.36964 3.4905 5.23639C3.82035 4.44041 4.45277 3.80799 5.24875 3.47814C5.38525 3.42289 5.66475 3.33514 6.40575 3.28314C7.17275 3.23114 8.18025 3.23114 9.75 3.23114C11.3197 3.23114 12.3143 3.23114 13.0975 3.28314C13.8385 3.33514 14.1213 3.42289 14.2545 3.47814C15.0508 3.80314 15.6845 4.44014 16.0128 5.23314C16.068 5.36964 16.1558 5.65239 16.2078 6.39339C16.2598 7.16364 16.2597 8.17114 16.2597 9.74089C16.2597 11.3106 16.2598 12.3051 16.2045 13.0884C16.1558 13.8294 16.068 14.1121 16.0128 14.2454C15.6822 15.0401 15.0499 15.6713 14.2545 16.0004C14.118 16.0589 13.8385 16.1466 13.0975 16.1954C12.3273 16.2506 11.3197 16.2506 9.75 16.2506Z" fill="white"/>
<path d="M30.875 9.75C30.444 9.75 30.0307 9.92121 29.726 10.226C29.4212 10.5307 29.25 10.944 29.25 11.375C29.25 11.806 29.4212 12.2193 29.726 12.524C30.0307 12.8288 30.444 13 30.875 13H76.375C76.806 13 77.2193 12.8288 77.524 12.524C77.8288 12.2193 78 11.806 78 11.375C78 10.944 77.8288 10.5307 77.524 10.226C77.2193 9.92121 76.806 9.75 76.375 9.75H30.875Z" fill="white"/>
<path fill-rule="evenodd" clip-rule="evenodd" d="M0.494 33.1505C0 34.3465 0 35.861 0 38.903C0 41.945 0 43.453 0.494 44.6555C1.15375 46.248 2.418 47.5122 4.004 48.1655C5.2 48.6595 6.71125 48.6595 9.7565 48.6595C12.8018 48.6595 14.3065 48.6595 15.509 48.1655C17.1015 47.5057 18.3658 46.2415 19.019 44.6555C19.513 43.4595 19.513 41.945 19.513 38.903C19.513 35.861 19.513 34.353 19.019 33.1505C18.3594 31.5622 17.0973 30.3001 15.509 29.6405C14.313 29.1465 12.8018 29.1465 9.7565 29.1465C6.71125 29.1465 5.2065 29.1465 4.004 29.6405C2.4115 30.3002 1.14725 31.5645 0.494 33.1505ZM6.409 45.338C7.17925 45.39 8.18675 45.3932 9.7565 45.3932C11.3263 45.3932 12.3208 45.3932 13.104 45.338C13.845 45.286 14.1278 45.2015 14.261 45.143C15.0564 44.8139 15.6887 44.1827 16.0192 43.388C16.0745 43.2515 16.1622 42.972 16.2142 42.231C16.2662 41.4607 16.2663 40.4532 16.2663 38.8835C16.2663 37.3137 16.2663 36.316 16.211 35.536C16.1623 34.795 16.0745 34.5122 16.0192 34.379C15.6894 33.583 15.057 32.9506 14.261 32.6207C14.1245 32.5622 13.845 32.4777 13.104 32.4257C12.3337 32.3737 11.3263 32.3705 9.7565 32.3705C8.18675 32.3705 7.19225 32.3737 6.409 32.4257C5.668 32.4777 5.38525 32.5622 5.252 32.6207C4.45664 32.9498 3.82431 33.581 3.49375 34.3757C3.4385 34.5122 3.35075 34.795 3.29875 35.536C3.25 36.303 3.25 37.3105 3.25 38.8835C3.25 40.4565 3.25 41.4477 3.30525 42.231C3.354 42.972 3.44175 43.2547 3.497 43.388C3.82525 44.1842 4.459 44.818 5.25525 45.143C5.39175 45.2015 5.67125 45.286 6.41225 45.338" fill="white"/>
<path d="M30.875 39C30.444 39 30.0307 39.1712 29.726 39.476C29.4212 39.7807 29.25 40.194 29.25 40.625C29.25 41.056 29.4212 41.4693 29.726 41.774C30.0307 42.0788 30.444 42.25 30.875 42.25H76.375C76.806 42.25 77.2193 42.0788 77.524 41.774C77.8288 41.4693 78 41.056 78 40.625C78 40.194 77.8288 39.7807 77.524 39.476C77.2193 39.1712 76.806 39 76.375 39H30.875Z" fill="white"/>
<path fill-rule="evenodd" clip-rule="evenodd" d="M0.494 62.4005C0 63.5965 0 65.111 0 68.153C0 71.195 0 72.703 0.494 73.9055C1.15375 75.498 2.418 76.7622 4.004 77.4155C5.2 77.9095 6.71125 77.9095 9.7565 77.9095C12.8018 77.9095 14.3065 77.9095 15.509 77.4155C17.1015 76.7557 18.3658 75.4915 19.019 73.9055C19.513 72.7095 19.513 71.195 19.513 68.153C19.513 65.111 19.513 63.603 19.019 62.4005C18.3594 60.8122 17.0973 59.5501 15.509 58.8905C14.313 58.3965 12.8018 58.3965 9.7565 58.3965C6.71125 58.3965 5.2065 58.3965 4.004 58.8905C2.4115 59.5502 1.14725 60.8145 0.494 62.4005ZM6.409 74.588C7.17925 74.64 8.18675 74.6432 9.7565 74.6432C11.3263 74.6432 12.3208 74.6432 13.104 74.588C13.845 74.536 14.1278 74.4515 14.261 74.393C15.0564 74.0639 15.6887 73.4327 16.0192 72.638C16.0745 72.5015 16.1622 72.222 16.2142 71.481C16.2662 70.7107 16.2663 69.7032 16.2663 68.1335C16.2663 66.5637 16.2663 65.566 16.211 64.786C16.1623 64.045 16.0745 63.7622 16.0192 63.629C15.6894 62.833 15.057 62.2006 14.261 61.8707C14.1245 61.8122 13.845 61.7277 13.104 61.6757C12.3337 61.6237 11.3263 61.6205 9.7565 61.6205C8.18675 61.6205 7.19225 61.6237 6.409 61.6757C5.668 61.7277 5.38525 61.8122 5.252 61.8707C4.45664 62.1998 3.82431 62.831 3.49375 63.6257C3.4385 63.7622 3.35075 64.045 3.29875 64.786C3.25 65.553 3.25 66.5605 3.25 68.1335C3.25 69.7065 3.25 70.6977 3.30525 71.481C3.354 72.222 3.44175 72.5047 3.497 72.638C3.82525 73.4342 4.459 74.068 5.25525 74.393C5.39175 74.4515 5.67125 74.536 6.41225 74.588" fill="white"/>
<path d="M30.875 68.25C30.444 68.25 30.0307 68.4212 29.726 68.726C29.4212 69.0307 29.25 69.444 29.25 69.875C29.25 70.306 29.4212 70.7193 29.726 71.024C30.0307 71.3288 30.444 71.5 30.875 71.5H76.375C76.806 71.5 77.2193 71.3288 77.524 71.024C77.8288 70.7193 78 70.306 78 69.875C78 69.444 77.8288 69.0307 77.524 68.726C77.2193 68.4212 76.806 68.25 76.375 68.25H30.875Z" fill="white"/>
</svg>
