<svg width="56" height="56" viewBox="0 0 56 56" fill="none" xmlns="http://www.w3.org/2000/svg">
<path d="M25.2 33.6H2.8V50.4C2.8 51.8852 3.39 53.3096 4.4402 54.3598C5.49041 55.41 6.91479 56 8.4 56H47.6C49.0852 56 50.5096 55.41 51.5598 54.3598C52.61 53.3096 53.2 51.8852 53.2 50.4V33.6H30.8V39.2H25.2V33.6ZM25.2 30.8H0V14C0 10.92 2.52 8.4 5.6 8.4H16.8V5.6C16.8 4.11479 17.39 2.69041 18.4402 1.6402C19.4904 0.589998 20.9148 0 22.4 0L33.6 0C35.0852 0 36.5096 0.589998 37.5598 1.6402C38.61 2.69041 39.2 4.11479 39.2 5.6V8.4H50.4C51.8852 8.4 53.3096 8.99 54.3598 10.0402C55.41 11.0904 56 12.5148 56 14V30.8H30.8V25.2H25.2V30.8ZM33.6 8.4V5.6H22.4V8.4H33.6Z" fill="white"/>
</svg>
