<svg width="20" height="20" viewBox="0 0 20 20" fill="none" xmlns="http://www.w3.org/2000/svg">
<g clip-path="url(#clip0_79_104)">
<path d="M10 0C7.34844 0 4.80312 1.05422 2.92969 2.92891C1.05433 4.80435 0.000536638 7.34779 0 10C0 12.6511 1.05469 15.1964 2.92969 17.0711C4.80312 18.9458 7.34844 20 10 20C12.6516 20 15.1969 18.9458 17.0703 17.0711C18.9453 15.1964 20 12.6511 20 10C20 7.34891 18.9453 4.80359 17.0703 2.92891C15.1969 1.05422 12.6516 0 10 0Z" fill="url(#paint0_linear_79_104)"/>
<path d="M4.52658 9.89404C7.4422 8.62404 9.38595 7.78675 10.3578 7.38217C13.136 6.22701 13.7125 6.02639 14.0891 6.01959C14.1719 6.01826 14.3563 6.03873 14.4766 6.136C14.5766 6.21803 14.6047 6.32897 14.6188 6.40686C14.6313 6.48467 14.6485 6.66201 14.6344 6.80045C14.4844 8.3817 13.8328 12.2189 13.5016 13.99C13.3625 14.7394 13.086 14.9906 12.8188 15.0151C12.2375 15.0686 11.7969 14.6314 11.2344 14.2628C10.3547 13.6858 9.85783 13.3267 9.00314 12.7637C8.01564 12.1131 8.65626 11.7554 9.21876 11.1711C9.36564 11.0181 11.925 8.69076 11.9735 8.47967C11.9797 8.45326 11.986 8.35482 11.9266 8.30295C11.8688 8.25092 11.7828 8.26873 11.7203 8.28279C11.6313 8.30279 10.2266 9.23217 7.50158 11.0708C7.10314 11.3448 6.7422 11.4784 6.4172 11.4714C6.06095 11.4637 5.37345 11.2695 4.86251 11.1036C4.23751 10.9 3.73908 10.7923 3.78283 10.4465C3.8047 10.2665 4.05314 10.0823 4.52658 9.89404Z" fill="white"/>
</g>
<defs>
<linearGradient id="paint0_linear_79_104" x1="1000" y1="0" x2="1000" y2="2000" gradientUnits="userSpaceOnUse">
<stop stop-color="#2AABEE"/>
<stop offset="1" stop-color="#229ED9"/>
</linearGradient>
<clipPath id="clip0_79_104">
<rect width="20" height="20" fill="white"/>
</clipPath>
</defs>
</svg>
