<svg width="12" height="10" viewBox="0 0 12 10" fill="none" xmlns="http://www.w3.org/2000/svg">
<g clip-path="url(#clip0_148_816)">
<path d="M10.875 9.28627H1.125C0.5025 9.28627 0 8.8077 0 8.21484V1.78627C0 1.19342 0.5025 0.714844 1.125 0.714844H10.875C11.4975 0.714844 12 1.19342 12 1.78627V8.21484C12 8.8077 11.4975 9.28627 10.875 9.28627ZM1.125 1.42913C0.915 1.42913 0.75 1.58627 0.75 1.78627V8.21484C0.75 8.41484 0.915 8.57199 1.125 8.57199H10.875C11.085 8.57199 11.25 8.41484 11.25 8.21484V1.78627C11.25 1.58627 11.085 1.42913 10.875 1.42913H1.125Z" fill="black"/>
<path d="M5.99994 6.40071C5.47494 6.40071 4.99494 6.20071 4.63494 5.83643L0.697442 1.85071C0.554942 1.70786 0.562442 1.47928 0.712442 1.34357C0.862442 1.20786 1.10244 1.215 1.24494 1.35786L5.18244 5.34357C5.60994 5.77928 6.38994 5.77928 6.81744 5.34357L10.7549 1.365C10.8974 1.22214 11.1374 1.215 11.2874 1.35071C11.4374 1.48643 11.4449 1.715 11.3024 1.85786L7.36494 5.84357C7.00494 6.20786 6.52494 6.40786 5.99994 6.40786V6.40071Z" fill="black"/>
</g>
<defs>
<clipPath id="clip0_148_816">
<rect width="12" height="10" fill="white"/>
</clipPath>
</defs>
</svg>
