<svg width="16" height="16" viewBox="0 0 16 16" fill="none" xmlns="http://www.w3.org/2000/svg">
<path fill-rule="evenodd" clip-rule="evenodd" d="M4.83337 6.66667C4.83337 5.82681 5.167 5.02136 5.76087 4.4275C6.35473 3.83363 7.16019 3.5 8.00004 3.5C8.83989 3.5 9.64535 3.83363 10.2392 4.4275C10.8331 5.02136 11.1667 5.82681 11.1667 6.66667C11.1667 7.50652 10.8331 8.31197 10.2392 8.90584C9.64535 9.4997 8.83989 9.83333 8.00004 9.83333C7.16019 9.83333 6.35473 9.4997 5.76087 8.90584C5.167 8.31197 4.83337 7.50652 4.83337 6.66667ZM8.00004 4.5C7.4254 4.5 6.87431 4.72827 6.46798 5.1346C6.06165 5.54093 5.83337 6.09203 5.83337 6.66667C5.83337 7.2413 6.06165 7.7924 6.46798 8.19873C6.87431 8.60506 7.4254 8.83333 8.00004 8.83333C8.57468 8.83333 9.12578 8.60506 9.5321 8.19873C9.93843 7.7924 10.1667 7.2413 10.1667 6.66667C10.1667 6.09203 9.93843 5.54093 9.5321 5.1346C9.12578 4.72827 8.57468 4.5 8.00004 4.5Z" fill="black"/>
<path fill-rule="evenodd" clip-rule="evenodd" d="M2.34932 5.90532C2.46357 4.5233 3.09319 3.23474 4.11325 2.29532C5.13331 1.3559 6.46925 0.834288 7.85599 0.833984H8.14399C9.53072 0.834288 10.8667 1.3559 11.8867 2.29532C12.9068 3.23474 13.5364 4.5233 13.6507 5.90532C13.7777 7.44487 13.3021 8.97363 12.324 10.1693L9.12865 14.0767C8.99191 14.2439 8.81971 14.3786 8.62451 14.4712C8.42932 14.5637 8.216 14.6117 7.99999 14.6117C7.78397 14.6117 7.57065 14.5637 7.37546 14.4712C7.18026 14.3786 7.00807 14.2439 6.87132 14.0767L3.67599 10.1693C2.69787 8.97363 2.22223 7.44487 2.34932 5.90532ZM7.85599 1.83398C6.7204 1.83446 5.62647 2.26175 4.79119 3.03108C3.95591 3.80042 3.44031 4.8556 3.34665 5.98732C3.24084 7.26858 3.63665 8.54088 4.45065 9.53598L7.64599 13.444C7.68894 13.4966 7.74304 13.5389 7.80438 13.568C7.86572 13.5971 7.93276 13.6122 8.00065 13.6122C8.06854 13.6122 8.13558 13.5971 8.19692 13.568C8.25826 13.5389 8.31236 13.4966 8.35532 13.444L11.5507 9.53598C12.3642 8.54068 12.7595 7.2684 12.6533 5.98732C12.5597 4.85548 12.044 3.80021 11.2085 3.03086C10.3731 2.26151 9.27902 1.8343 8.14332 1.83398H7.85599Z" fill="black"/>
</svg>
