<svg width="188" height="132" viewBox="0 0 188 132" fill="none" xmlns="http://www.w3.org/2000/svg">
<path d="M92.6265 0.637578C92.6265 2.35115 84.5658 5.1357 75.0785 6.70647C59.3851 9.41962 56.8884 10.2764 51.8951 14.7745C48.4711 17.9161 46.4024 21.7002 45.8317 25.9841L45.4037 29.1257L38.7697 29.4113C33.1344 29.6254 31.5651 29.9824 27.5704 31.9816C21.1504 35.1231 14.5877 42.263 7.09768 54.1152C3.81634 59.3273 0.820335 63.754 0.535001 63.9682C-0.820335 64.7536 0.107 66.7528 6.74101 76.8914C14.873 89.3148 18.7964 94.2413 20.651 94.2413C22.7197 94.2413 22.363 93.2417 18.511 88.458C14.5164 83.5315 13.0897 79.2475 13.6604 74.6066C14.1597 71.1081 13.6604 70.6083 11.663 72.8217C10.9497 73.607 10.0224 74.2496 9.52302 74.2496C9.09502 74.2496 7.38301 72.3933 5.81368 70.0371L2.81767 65.896L5.81368 61.4693C7.45435 59.1131 9.16635 57.1139 9.52302 57.1139C9.95102 57.1139 10.6644 57.7565 11.1637 58.5419C11.663 59.3273 12.519 59.9699 13.0184 59.9699C13.8744 59.9699 13.9457 59.1845 13.6604 56.043C13.3037 52.7586 13.589 51.5448 15.1584 48.2605C17.5124 43.4768 23.7897 37.4793 29.4964 34.6948C33.2057 32.8384 34.6324 32.5528 39.8397 32.5528L45.9031 32.4814L46.5451 36.7653C48.1858 47.6179 42.9784 59.5415 34.9177 63.1828C29.9244 65.3962 24.2177 63.04 23.005 58.1849C22.363 55.5432 25.359 52.4016 27.9271 53.1156C30.2811 53.6868 30.8517 55.4718 29.4251 57.6851C28.4977 59.1131 28.4264 59.5415 29.2111 60.0413C31.7077 61.6121 35.7737 59.8271 36.9864 56.7569C37.7711 54.615 36.7724 50.7595 34.7037 48.1177C33.4911 46.6897 33.3484 46.0471 34.0617 45.8329C36.9864 44.8334 43.6204 36.4083 42.4077 35.1945C42.1937 34.9804 40.9811 35.2659 39.6971 35.9085C38.4131 36.4797 34.7037 37.9791 31.4937 39.2643C24.5744 41.906 21.293 44.9762 21.293 48.9031C21.293 51.8304 20.1517 52.1874 19.0817 49.4743C18.1544 46.9753 16.9417 48.1891 16.5137 52.2588C16.2997 54.258 16.585 56.4 17.2984 58.1135C18.8677 61.8263 18.7964 62.1118 16.0857 62.1118C13.161 62.1118 7.38301 64.0396 6.31301 65.3248C5.10034 66.7528 9.09502 68.6091 14.3024 69.0375C16.585 69.2517 18.4397 69.6801 18.4397 69.9657C18.4397 70.2513 17.9404 71.6793 17.3697 73.0359C16.0857 76.1774 16.0144 79.5331 17.2984 82.4605L18.1544 84.6024L19.0104 82.2463C19.9377 79.5331 21.293 79.8187 21.293 82.6747C21.293 85.3164 23.5044 88.458 26.7857 90.4571C30.9231 92.9561 31.7077 92.4563 28.8544 89.1006C27.4277 87.4584 26.2864 85.6734 26.2864 85.1736C26.2864 83.7457 27.9984 84.0312 28.9971 85.6734C30.1384 87.5298 31.4224 86.8158 30.8517 84.6024C30.3524 82.4605 31.1371 79.8187 32.2071 80.1757C32.7064 80.3185 33.2057 81.3895 33.4911 82.5319L33.8477 84.6024L35.4171 82.1035C39.1264 76.2488 35.5597 69.2517 29.7817 71.0367C28.4264 71.4651 27.8557 73.5356 29.0684 73.5356C30.1384 73.5356 30.5664 75.6776 29.8531 77.177C28.0697 80.4613 22.149 77.3912 23.005 73.6784C23.7897 70.5369 27.285 67.8237 30.6377 67.8237C36.2731 67.8237 40.6244 71.2509 44.2624 78.4622C45.1897 80.2471 46.1884 81.9607 46.5451 82.1749C47.5438 82.9603 46.6878 97.5256 45.4751 98.9536C44.6904 99.9532 43.6917 100.025 39.6257 99.6676C36.9864 99.4534 33.7051 98.7394 32.3497 98.2396C29.9957 97.24 29.9244 97.24 30.0671 99.0964C30.2097 100.739 30.7091 101.167 33.4197 101.881C35.2031 102.309 38.6271 102.738 40.9811 102.738L45.4037 102.809L45.9031 106.165C46.5451 110.806 50.2544 116.303 54.5344 119.017C58.8144 121.801 63.2371 123.015 75.1498 124.943C83.7098 126.371 89.2025 128.156 92.7692 130.797C93.7678 131.511 94.2672 131.44 95.6225 130.155C98.0478 127.87 100.331 127.156 114.169 124.586C121.731 123.158 128.151 121.516 130.077 120.587C136.14 117.589 140.42 112.02 141.419 105.951L141.918 103.023L147.839 102.595C151.049 102.381 155.4 101.524 157.469 100.739C162.319 98.8822 168.24 94.2413 172.163 89.3148C175.231 85.3164 187.5 66.6814 187.5 65.896C187.5 65.3962 182.364 57.2567 176.372 48.1177C171.521 40.7636 164.531 34.0522 159.181 31.6246C155.899 30.1252 153.688 29.6254 148.552 29.4113L141.989 29.1257L141.205 24.9845C139.778 17.8447 134.071 11.8472 126.581 9.63381C124.584 8.99122 119.091 7.92024 114.383 7.13486C103.398 5.27849 98.0478 3.70772 95.7652 1.63716C93.9105 -0.0764088 92.6265 -0.504801 92.6265 0.637578ZM96.4072 5.1357C97.7625 6.06388 99.4745 7.13486 100.188 7.56325C101.472 8.34864 101.472 8.42004 100.331 9.77661C99.1892 10.9904 98.6185 12.8468 99.2605 12.8468C99.4032 12.8468 100.616 12.2756 101.971 11.633C103.398 10.919 106.751 10.2764 110.317 10.1336C125.725 9.27682 136.996 15.7027 138.708 26.1983C139.136 29.0543 139.065 29.1971 137.139 29.6254C125.297 32.2672 116.167 37.7649 106.394 48.1177C103.184 51.4734 100.259 54.258 99.9025 54.258C98.9752 54.258 96.9065 48.9745 96.9065 46.5469C96.9065 43.5482 98.2618 39.3357 100.259 36.1941L102.043 33.3382L100.473 30.1252C98.2618 25.6985 99.0465 22.3428 102.756 20.3436C105.181 19.0584 105.609 18.987 108.463 19.9866C111.245 20.9862 111.53 21.2718 111.53 23.4852C111.53 26.4125 109.747 27.9119 107.821 26.6981C106.965 26.1269 106.608 25.1273 106.751 23.628C106.822 22.4142 106.537 21.4146 106.18 21.4146C104.753 21.4146 101.9 24.9131 101.9 26.6267C101.9 28.4117 104.825 32.1244 106.18 32.1244C107.464 32.1244 106.965 34.195 105.467 34.9803C103.113 36.2655 100.331 41.7632 100.331 45.3332C100.259 47.1181 100.402 48.6889 100.616 48.9031C100.973 49.3315 112.101 38.4075 114.597 35.1231C116.095 33.1954 116.452 31.8388 116.452 28.8401C116.452 26.6981 116.595 24.9845 116.666 24.9845C116.809 24.9845 118.093 25.6271 119.519 26.4125C122.872 28.1975 124.156 28.1975 125.797 26.4125C126.938 25.1273 127.295 25.0559 128.579 25.9841C130.647 27.2693 134.143 27.9833 135.284 27.1979C135.997 26.7695 135.284 25.7699 132.573 23.3424C127.865 19.1298 121.231 15.8455 116.167 15.2743C111.316 14.7031 104.183 16.4167 100.331 18.9156C98.8325 19.9152 97.3345 20.7006 96.9778 20.7006C96.6212 20.7006 96.4785 19.0584 96.6212 16.9165C96.9778 13.2037 95.4798 8.63423 93.6252 8.06304C92.1272 7.56325 90.2725 13.2751 90.7005 17.1307C91.1998 21.129 90.7005 21.486 87.7758 19.344C83.9952 16.7737 78.9305 15.3457 73.2951 15.3457C68.6585 15.3457 67.2318 15.7027 63.1658 17.7019C57.1024 20.7006 51.2531 25.9127 52.4658 27.1979C53.2504 27.9833 54.0351 27.8405 56.8884 26.6267C60.3838 25.1987 60.4551 25.1987 61.6678 26.4839C63.2371 28.1975 64.5211 28.1975 67.8738 26.4125C69.3005 25.6271 70.6558 24.9845 70.7985 24.9845C70.9411 24.9845 71.0125 26.4839 71.0125 28.3403C70.9411 32.767 72.2251 35.1231 77.5751 40.3353C81.0705 43.7624 82.3545 44.6192 84.4231 44.6906C86.4918 44.762 86.9198 44.4764 86.9198 43.1912C86.9198 41.3348 83.0678 35.1231 81.5698 34.552C80.4285 34.0522 80.0718 32.1244 81.2131 32.1244C82.4971 32.1244 85.4931 28.1975 85.4931 26.5553C85.4931 24.9131 82.6398 21.4146 81.2131 21.4146C80.8565 21.4146 80.5711 22.4142 80.6425 23.628C80.9991 27.7691 76.2198 28.4117 75.6491 24.3419C74.7931 18.9156 84.6372 17.7019 87.2765 22.914C88.7032 25.5557 88.6318 26.4839 86.8485 30.1966L85.2792 33.3382L87.9185 37.4079C89.3452 39.6213 90.9858 42.4772 91.5565 43.7624L92.6265 46.0471L92.3412 42.9056C92.1272 41.192 91.1285 38.3361 89.9158 36.4083L87.7758 32.9812L89.1312 30.982C89.9158 29.8396 91.1285 27.5549 91.9132 25.8413C92.6265 24.1991 93.4112 22.8426 93.6252 22.8426C93.8392 22.8426 94.6238 24.1991 95.4085 25.8413C96.1932 27.5549 97.3345 29.7682 98.0478 30.7678C99.1892 32.5528 99.1892 32.767 96.9065 37.3365C94.7665 41.6918 94.6238 42.5486 94.9092 46.9039C95.1945 50.1169 95.8365 52.6872 96.8352 54.4008L98.4758 57.0425L96.1932 60.3269C94.9805 62.1119 93.8392 63.5398 93.6965 63.5398C93.5538 63.5398 92.4125 62.0405 91.1285 60.2555L88.9172 56.9711L90.4865 54.1152C91.7705 51.759 91.9132 51.1165 91.1285 50.6167C90.4152 50.1883 89.8445 50.5453 89.2025 51.8304C87.5618 55.0434 83.9238 57.7565 80.7138 58.2563C78.3598 58.6133 77.6465 59.0417 77.6465 60.0413C77.6465 61.7549 80.2145 61.8263 83.8525 60.3269C85.2078 59.7557 86.6345 59.2559 86.9912 59.2559C87.2765 59.2559 88.5605 60.6839 89.7732 62.4688C91.9845 65.6818 91.9845 65.8246 90.7718 67.6809C90.1298 68.7519 88.9172 70.3227 88.1325 71.1795C86.7772 72.6789 86.6345 72.7503 84.4945 71.6079C80.9991 69.7515 74.9358 70.0371 71.0125 72.3219C67.3031 74.4638 64.8778 77.177 59.5278 84.8166C57.3878 87.8868 54.9624 90.9569 54.1778 91.6709C53.3218 92.4563 52.6798 93.3131 52.6798 93.7415C52.6798 94.8125 57.4591 93.7415 60.2411 92.0279C63.1658 90.2429 66.9465 85.3878 66.9465 83.3887C66.9465 82.0321 68.7298 81.6037 69.4431 82.8175C70.2278 84.1026 74.7218 83.6029 76.2198 82.1035C77.8605 80.4613 77.9318 79.7473 76.9331 77.7482C76.0771 76.1774 74.0798 75.8918 74.0798 77.3912C74.0798 77.891 73.5805 78.7477 73.0098 79.2475C72.1538 79.9615 71.7258 79.9615 70.8698 79.2475C69.3005 77.9624 69.5858 75.8918 71.4405 74.8922C75.2211 72.7503 84.7798 72.893 84.7798 75.035C84.7798 76.3202 78.8591 82.8889 73.7945 87.1728C66.9464 92.9561 57.0311 97.8826 50.5398 98.668C48.9704 98.8822 48.7564 98.668 48.9704 96.883C49.8264 89.0292 60.2411 75.1778 69.0865 70.3941C73.2238 68.1093 79.7865 67.1812 83.2105 68.3949C85.0652 69.0375 85.5645 68.8947 86.8485 67.5382C88.3465 65.896 88.3465 65.896 86.9912 64.111C85.5645 62.326 85.5645 62.326 81.9978 63.4684C80.0005 64.111 78.3598 65.0392 78.3598 65.4676C78.3598 65.9674 77.8605 66.3958 77.2898 66.3958C76.7191 66.3958 76.2198 65.896 76.2198 65.3248C76.2198 64.3252 71.3691 61.7549 70.7271 62.3974C70.5131 62.5402 70.9411 63.5398 71.5831 64.5394C72.3678 65.7532 72.5105 66.3958 72.0111 66.3958C71.5118 66.3958 70.2278 67.1098 69.0865 67.8951C67.8025 68.8947 66.3758 69.3231 65.2345 69.1089C63.6651 68.8233 63.3798 68.9661 63.3798 70.3941C63.3798 72.1077 62.5238 73.1786 59.8131 74.9636C57.7444 76.3202 56.6031 77.3912 52.8938 81.6751L49.8978 85.1022L48.8278 82.5319C48.2571 81.1039 46.9017 78.8905 45.9031 77.534C44.9044 76.2488 44.2624 74.678 44.4764 74.1068C45.1184 72.5361 41.8371 69.0375 38.4844 67.4668C35.1317 65.9674 34.8464 65.3248 37.3431 64.6822C41.6231 63.6112 47.2584 56.043 48.6851 49.4743C49.4698 46.1185 50.1118 46.0471 52.1804 49.1173C53.2504 50.5453 55.9611 53.6868 58.3864 56.043C61.5964 59.2559 62.8804 60.0413 63.4511 59.4701C64.0931 58.8275 63.3084 57.4709 59.9558 53.9724C57.6018 51.402 54.4631 47.2609 53.0364 44.762C50.3258 39.8355 47.9718 33.6952 48.6138 33.124C49.4698 32.2672 57.1024 34.4806 62.4524 37.0509C65.5198 38.5503 70.2991 41.549 73.0098 43.7624C77.7891 47.6179 79.7865 48.6175 79.7865 47.1895C79.7865 46.0471 71.2265 38.6931 66.8038 36.1227C62.8804 33.7666 54.8911 30.625 50.3971 29.6254C47.7578 29.1257 47.7578 26.5553 50.2544 21.486C52.4658 17.0593 56.8884 13.5607 62.6664 11.633C68.1591 9.84801 81.9265 9.77661 85.4218 11.5616C86.7772 12.2756 87.9898 12.8468 88.1325 12.8468C88.7745 12.8468 88.2038 10.9904 87.1338 9.77661C85.9211 8.42004 85.9212 8.34864 87.2052 7.56325C87.9185 7.13486 89.4878 6.06388 90.7718 5.20709C93.6252 3.27933 93.5538 3.27933 96.4072 5.1357ZM157.754 34.7662C168.811 40.0497 176.657 52.116 173.233 58.6133C172.591 59.7557 172.734 59.9699 173.947 59.9699C174.731 59.9699 175.73 59.3273 176.229 58.5419C176.729 57.7565 177.442 57.1139 177.87 57.1853C178.227 57.1853 179.939 59.1131 181.651 61.4693L184.718 65.7532L181.651 69.9657C179.939 72.3219 178.227 74.2496 177.799 74.2496C177.371 74.2496 176.443 73.607 175.73 72.8217C173.661 70.5369 173.162 71.1081 173.661 75.2492C174.018 78.4622 173.804 79.7473 172.306 83.0317C170.095 87.8154 164.602 93.3131 158.967 96.3118C154.544 98.668 146.127 100.453 143.131 99.739C141.419 99.3106 141.205 98.8822 140.705 94.4555C139.778 85.6734 142.917 75.8918 148.124 71.3223C151.12 68.6805 153.26 67.8237 156.969 67.8237C159.252 67.8237 160.322 68.3235 162.248 70.2513C163.603 71.6079 164.673 73.3214 164.673 74.1782C164.673 77.7482 159.109 80.0329 157.54 77.177C156.827 75.6776 157.255 73.5356 158.325 73.5356C159.751 73.5356 158.824 71.5365 157.255 71.1081C154.972 70.5369 152.119 71.6793 151.191 73.4642C149.765 76.106 150.264 80.3899 152.261 82.7461C154.045 84.888 154.045 86.3874 152.261 86.3874C150.121 86.3874 143.63 95.5978 144.914 96.8116C145.128 97.0258 146.055 96.7402 146.983 96.0976C147.91 95.455 150.478 94.3841 152.618 93.5987C161.749 90.4571 166.1 86.8872 166.1 82.3891C166.1 79.9615 167.313 79.0333 167.883 81.0325C169.025 84.6024 169.096 84.6738 170.095 82.4605C171.379 79.6045 171.307 76.1774 170.023 73.0359C169.453 71.6793 168.953 70.2513 168.953 69.9657C168.953 69.6801 170.879 69.2517 173.233 69.0375C178.227 68.6091 182.435 66.3958 180.866 65.1106C179.297 63.754 173.947 62.1118 171.379 62.1118C168.597 62.1118 168.525 61.8977 170.095 58.1135C170.808 56.4 171.093 54.258 170.879 52.2588C170.451 48.1891 169.239 46.9753 168.311 49.4743C167.384 51.9018 166.1 51.9732 166.1 49.6171C166.1 44.8334 162.676 41.6918 153.831 38.4789C150.692 37.3365 147.411 35.9799 146.697 35.6229C144.629 34.4806 144.415 35.2659 146.055 38.3361C147.411 41.0492 151.405 45.1904 153.26 45.8329C153.831 45.9757 153.545 46.9753 152.261 48.8317C149.693 52.6872 149.693 57.1853 152.261 59.1845C154.259 60.7553 156.541 61.1123 158.182 60.0413C158.967 59.5415 158.895 59.1131 157.968 57.6851C156.541 55.4718 157.112 53.6868 159.466 53.1156C161.392 52.6158 164.673 55.1148 164.673 57.0425C164.673 59.3273 161.963 62.683 159.323 63.5398C155.186 64.8964 152.19 63.8968 147.91 59.7557C142.774 54.615 140.848 49.6885 140.777 41.0492C140.777 31.8388 140.705 31.9102 147.411 32.2672C151.762 32.4814 153.902 32.9812 157.754 34.7662ZM138.423 34.9803C137.995 37.9077 134.856 44.2622 131.503 48.9031C123.799 59.7557 112.671 65.8246 104.825 63.4684C102.542 62.7544 101.757 62.8258 100.83 63.5398C98.4758 65.539 100.83 69.6801 103.683 68.5377C106.251 67.4668 111.744 67.8237 115.596 69.2517C119.947 70.8939 125.44 75.1778 129.72 80.3185C132.502 83.6743 137.638 93.2417 138.708 97.0258C139.136 98.7394 139.065 98.7394 135.783 98.311C127.366 97.0972 118.235 91.8851 109.247 83.0317C100.616 74.5352 100.545 73.25 108.748 73.3928C115.739 73.4642 119.805 76.5344 116.523 79.2475C115.667 79.9615 115.239 79.9615 114.383 79.2475C113.813 78.7477 113.313 77.891 113.313 77.3912C113.313 76.1774 111.744 76.106 110.603 77.2484C109.247 78.605 109.604 81.1753 111.316 82.3891C113.099 83.6743 117.308 83.8885 117.95 82.7461C118.735 81.5323 119.591 82.3177 121.303 85.6734C123.229 89.3861 128.008 93.2417 131.575 93.9557C134.785 94.5269 135.213 94.0271 133.287 91.9565C132.431 91.0283 129.934 87.744 127.723 84.6024C121.731 76.1774 117.593 72.3933 112.814 70.9653C109.461 69.9657 108.249 69.8943 105.538 70.6083C100.045 72.0363 99.6172 71.9649 97.5485 68.8947L95.6225 66.0388L97.1205 63.3256C99.4032 59.1845 100.045 58.8989 103.327 60.2555C111.601 63.5398 118.521 59.9699 126.938 47.9035C129.363 44.5478 132.145 40.9064 133.144 39.8355C135.355 37.4079 134.999 36.9081 131.575 37.4793C126.795 38.4075 121.802 43.334 120.161 48.7603C119.805 49.9741 119.591 49.9741 118.164 48.9745C114.883 46.6897 109.747 48.5461 109.747 51.9732C109.747 54.7578 112.885 56.043 113.527 53.4726C113.813 52.4016 114.383 52.0446 115.596 52.2588C117.879 52.5444 118.164 55.2576 116.024 56.6856C112.529 58.9703 103.755 58.9703 102.899 56.7569C102.328 55.329 107.749 49.1173 113.955 44.1194C119.733 39.4785 127.081 35.4801 132.787 33.9094C137.638 32.6242 138.708 32.767 138.423 34.9803ZM138.993 50.3311C141.276 57.4709 144.486 61.9691 149.265 64.3966L152.119 65.8246L149.337 67.1812C147.839 67.9665 145.841 69.2517 144.914 70.1085C142.845 72.0363 139.207 79.2475 138.565 82.5319C138.351 83.8885 137.852 84.9594 137.567 84.9594C137.281 84.9594 135.712 83.2459 134.143 81.1753C132.502 79.1761 129.791 76.0346 128.008 74.2496C124.441 70.8225 124.156 69.9657 125.868 68.2521C127.295 66.8242 130.005 66.8242 131.147 68.1807C132.431 69.7515 131.004 71.3223 129.435 70.0371C127.937 68.8233 127.437 70.1799 128.721 71.9649C129.292 72.8217 130.576 73.5356 131.432 73.5356C132.716 73.5356 133.287 74.0354 133.643 75.4634C134.143 77.6768 135.284 79.2475 136.211 79.2475C137.281 79.2475 136.925 72.6075 135.783 70.3941C134.285 67.6096 135.141 67.0384 137.21 69.3945C139.279 71.8221 139.707 71.8935 139.707 69.7515C139.707 68.3949 140.206 67.9665 142.774 67.3954C145.913 66.6814 146.983 64.825 144.343 64.3966C140.206 63.754 139.707 63.4684 139.707 61.7549C139.707 59.4701 138.779 59.4701 137.567 61.7549C137.067 62.7544 136.211 63.5398 135.641 63.5398C134.499 63.5398 134.499 63.4684 135.783 60.9695C136.996 58.6133 137.21 53.1156 136.14 52.473C135.712 52.2588 134.785 53.4726 134 55.2576C132.859 57.8993 132.288 58.5419 130.861 58.5419C129.791 58.5419 128.721 59.1131 128.293 59.8985C127.223 61.9691 127.366 62.1119 129.72 61.6121C131.004 61.3979 131.86 61.5407 131.86 61.9691C131.86 62.7544 129.149 64.9678 128.151 64.9678C127.295 64.9678 124.727 62.2547 124.727 61.3265C124.727 60.9695 126.938 58.3277 129.577 55.4718C132.288 52.6158 135.07 49.4029 135.783 48.3319C137.281 46.0471 137.781 46.3327 138.993 50.3311ZM123.871 64.111C125.226 65.9674 125.226 66.1102 124.013 67.6809C123.3 68.5377 122.373 69.2517 121.945 69.2517C120.875 69.2517 115.453 66.3244 115.453 65.7532C115.453 65.2534 120.518 62.326 121.659 62.1833C122.087 62.1119 123.086 62.9686 123.871 64.111ZM85.4931 65.6104C85.4931 66.0388 85.2078 66.4672 84.9225 66.6814C83.9951 67.2526 81.2131 66.3244 81.6411 65.6104C82.1405 64.7536 85.4931 64.7536 85.4931 65.6104ZM105.467 65.6104C105.467 66.4672 103.398 67.2526 102.542 66.6814C101.258 65.9674 101.9 64.9678 103.683 64.9678C104.682 64.9678 105.467 65.2534 105.467 65.6104ZM96.3358 71.6079L98.2618 74.678L96.5498 78.1766C93.4825 84.1026 94.1245 90.3143 98.3332 96.883C99.2605 98.311 99.2605 98.7394 98.4045 100.096C97.8338 101.024 96.6212 103.237 95.6938 105.094C94.0532 108.378 92.6265 109.521 92.6265 107.593C92.6265 107.093 91.4852 104.808 90.1298 102.524L87.6332 98.3824L89.1312 96.4546C93.1258 91.3853 93.8392 84.0312 90.7718 78.0338L88.9885 74.321L90.9145 71.4651C91.9845 69.8229 93.1972 68.5377 93.6252 68.5377C94.0532 68.5377 95.2658 69.8943 96.3358 71.6079ZM89.4165 80.4613C91.1285 84.531 90.7718 87.8154 87.9185 93.4559L85.3505 98.5252L86.9198 101.738C90.2012 108.592 85.1365 114.09 78.0031 111.377C75.8631 110.592 75.2211 109.164 75.7918 106.807C76.7191 102.952 81.7125 104.023 80.8565 107.95C80.4285 109.592 80.6425 109.949 81.8551 109.949C83.5672 109.949 85.4931 107.379 85.4931 105.094C85.4931 104.094 84.4232 102.309 82.9252 100.81L80.4285 98.311L82.4971 96.0976C83.7098 94.8839 85.1365 92.8847 85.7785 91.5995C86.9912 89.2434 87.3478 82.8175 86.3492 82.8175C85.9925 82.8175 82.6398 85.959 78.8591 89.8859C71.7258 97.24 69.9425 100.596 70.9411 104.594C71.4405 106.665 70.2991 106.95 68.0878 105.308C66.2331 103.951 62.7378 103.951 61.2398 105.308C60.1698 106.308 59.8131 106.308 57.9584 105.308C55.6758 104.166 51.9664 103.88 51.9664 104.88C51.9664 106.165 58.7431 111.448 63.3084 113.733C67.4458 115.732 68.6585 116.018 74.0798 116.018C80.1431 116.018 81.4271 115.661 90.6292 110.806C90.9145 110.663 90.9145 112.377 90.7005 114.661C90.3438 117.803 90.5578 119.231 91.5565 121.087C93.2685 124.229 94.2672 124.157 95.8365 120.659C96.7638 118.588 96.9778 116.875 96.6925 114.233C96.4072 112.234 96.4785 110.663 96.7638 110.806C106.394 115.732 107.179 116.018 113.313 116.018C118.592 116.018 119.947 115.732 124.013 113.805C126.581 112.591 130.433 109.949 132.573 107.95L136.497 104.308L133.786 104.237C132.217 104.237 130.077 104.808 128.864 105.451C126.867 106.665 126.724 106.665 126.082 105.451C125.226 103.951 121.303 103.809 119.305 105.308C116.951 107.093 116.024 106.665 116.523 104.023C117.308 99.9532 115.239 96.3832 107.892 89.3148C104.254 85.7448 101.044 82.8175 100.901 82.8175C100.045 82.8175 99.9738 86.2446 100.759 89.3148C101.401 91.6709 102.613 93.8843 104.325 95.5978L106.965 98.311L104.468 100.81C102.97 102.309 101.9 104.094 101.9 105.094C101.9 107.379 103.826 109.949 105.538 109.949C106.751 109.949 106.965 109.592 106.537 107.95C105.681 104.023 110.674 102.952 111.601 106.807C112.172 109.164 111.53 110.592 109.39 111.377C105.966 112.662 103.327 112.234 101.115 110.02C98.6185 107.521 98.4758 105.379 100.545 101.167L102.043 98.0254L100.188 95.098C97.4058 90.6713 96.4785 85.8162 97.6198 81.8179C98.9752 76.8914 99.9738 76.463 102.685 79.7473C112.457 91.3139 125.226 99.6676 136.425 101.738C138.637 102.167 138.993 102.524 138.993 104.166C138.993 107.022 135.926 113.019 133.215 115.304C129.506 118.374 124.085 120.587 118.235 121.301C111.815 122.158 103.541 121.301 100.973 119.588C99.3318 118.517 99.0465 118.517 99.0465 119.445C99.0465 120.088 99.5458 121.016 100.117 121.658C101.757 123.301 101.472 123.729 97.4058 125.871L93.6252 127.799L89.4878 125.585L85.4218 123.372L86.8485 121.801C89.0598 119.445 88.7745 118.017 86.4205 119.588C83.7098 121.373 74.4365 122.301 68.5158 121.373C62.9518 120.445 56.7458 117.803 53.8211 115.09C51.3958 112.805 48.3998 106.807 48.3998 104.166C48.3998 102.452 48.8278 102.167 53.1078 101.167C63.4511 98.5966 74.5791 91.3853 83.0678 81.7465C85.2792 79.1761 87.3478 77.3198 87.7045 77.534C88.0612 77.7482 88.8458 79.0333 89.4165 80.4613Z" fill="white"/>
<path d="M52.7512 37.5514C53.3218 38.8365 62.3812 50.9743 64.8065 53.6875C67.5172 56.6862 69.5145 56.829 69.9425 54.0445C70.2279 52.0453 74.5079 51.3313 75.2212 53.1163C75.9345 54.9726 76.9332 54.4014 76.9332 52.2595C76.9332 48.3326 74.2225 47.1902 68.7298 48.8323C67.5885 49.1893 67.0178 48.6182 65.5198 45.4766C64.2358 42.7635 62.8805 41.2641 60.5265 39.8361C57.2452 37.837 52.2518 36.3376 52.7512 37.5514Z" fill="white"/>
<path d="M84.7792 47.7621C85.2072 48.6189 85.8492 49.2614 86.2059 49.2614C87.4899 49.2614 86.9906 47.9049 85.4212 47.1195C84.0659 46.3341 83.9946 46.4055 84.7792 47.7621Z" fill="white"/>
<path d="M79.7862 49.9028C79.7862 50.6882 81.6409 51.4736 82.2115 50.9024C82.4255 50.6882 82.4255 50.1884 82.2115 49.9028C81.7122 49.046 79.7862 49.1174 79.7862 49.9028Z" fill="white"/>
<path d="M50.9677 52.6155C50.1117 53.5437 50.5397 59.684 51.681 61.2548C52.323 62.183 52.6084 63.3254 52.4657 63.8251C52.2517 64.3963 52.4657 65.3959 53.0364 66.1813C53.9637 67.3951 54.035 67.3951 55.3904 65.9671C56.389 64.9675 56.603 64.1107 56.175 63.4682C55.105 61.6832 55.4617 61.1834 57.673 61.6118C58.8857 61.8974 59.813 61.8974 59.813 61.6832C59.813 60.3266 58.101 58.6844 56.3177 58.3274C54.7484 57.9705 54.035 57.3279 53.393 55.4001C52.537 52.7583 51.7524 51.8302 50.9677 52.6155Z" fill="white"/>
<path d="M82.996 52.7596C82.568 53.545 83.638 54.4018 84.3513 53.7592C84.9933 53.1166 84.8506 52.1171 84.1373 52.1171C83.7093 52.1171 83.2813 52.4027 82.996 52.7596Z" fill="white"/>
<path d="M73.7227 58.5419C73.9367 58.8989 74.2934 59.2559 74.5074 59.2559C74.6501 59.2559 74.7927 58.8989 74.7927 58.5419C74.7927 58.1135 74.4361 57.8279 74.0081 57.8279C73.6514 57.8279 73.5087 58.1135 73.7227 58.5419Z" fill="white"/>
<path d="M47.6864 61.3273C47.6864 63.0409 46.4024 64.0405 43.7631 64.3975C40.6244 64.7545 41.0524 66.5394 44.4764 67.539C46.1171 67.9674 47.4011 68.8242 47.5438 69.4668C47.8291 71.0375 48.6138 70.9661 50.1118 69.324C51.1105 68.1816 51.1818 67.6104 50.5398 66.468C50.1118 65.6112 49.9691 64.6117 50.2545 64.1833C50.7538 63.3265 49.1844 59.9707 48.2571 59.9707C47.9718 59.9707 47.6864 60.5419 47.6864 61.3273Z" fill="white"/>
<path d="M63.8784 61.1834C62.951 62.1116 63.379 62.6828 64.8057 62.3258C65.5904 62.1116 66.2324 61.6832 66.2324 61.3262C66.2324 60.6122 64.5204 60.4694 63.8784 61.1834Z" fill="white"/>
<path d="M60.8115 64.3253C60.5975 64.7537 61.0968 65.8247 62.0241 66.6815C62.9515 67.5383 63.2368 67.6811 62.7375 66.8957C61.9528 65.8961 61.9528 65.4677 62.6661 64.6109C63.3795 63.7541 63.3795 63.5399 62.4521 63.5399C61.8101 63.5399 61.0968 63.8969 60.8115 64.3253Z" fill="white"/>
<path d="M51.6096 69.9664C50.8963 71.1087 52.6083 73.5363 54.1063 73.5363C55.8896 73.5363 55.8896 72.8937 54.1776 70.8231C52.6796 69.0382 52.2516 68.8954 51.6096 69.9664Z" fill="white"/>
<path d="M57.4588 70.3941C56.8881 70.9652 57.5301 72.1076 58.3861 72.1076C58.6714 72.1076 59.0994 71.6078 59.3848 71.0366C59.7414 69.9657 58.3861 69.5373 57.4588 70.3941Z" fill="white"/>
<path d="M50.5398 76.7495C50.5398 78.5345 50.8252 79.2485 51.4672 79.1057C52.7512 78.6059 52.8938 76.0355 51.6098 74.9645C50.6825 74.1792 50.5398 74.3933 50.5398 76.7495Z" fill="white"/>
<path d="M33.4198 89.8146C33.4198 91.1712 35.8451 93.5274 38.8411 95.2409C40.6958 96.3119 42.3365 97.0259 42.4791 96.8831C42.6218 96.7403 42.3365 95.5979 41.9085 94.3127C41.4091 92.8134 40.1965 91.5996 38.3418 90.6714C35.4885 89.172 33.4198 88.815 33.4198 89.8146Z" fill="white"/>
<path d="M23.4325 97.0979C26.7139 99.9538 28.6399 99.9538 25.9292 97.0979C24.7879 95.8841 23.2185 94.9559 22.4339 94.9559C21.1499 95.0273 21.2925 95.3129 23.4325 97.0979Z" fill="white"/>
</svg>
