<svg width="1440" height="300" viewBox="0 0 1440 300" fill="none" xmlns="http://www.w3.org/2000/svg">
<rect width="1440" height="300" fill="#002252"/>
<path d="M364.962 258.138C364.962 256.995 366.247 257.423 368.104 259.137C370.388 261.207 375.744 262.778 386.739 264.635C391.451 265.42 396.949 266.491 398.948 267.134C406.445 269.347 412.157 275.345 413.585 282.484L414.37 286.626L420.938 286.911C426.079 287.125 428.293 287.626 431.577 289.125C435.387 290.852 440.026 294.748 444.136 299.5H439.984C437.285 296.63 433.902 294.057 430.149 292.266C426.294 290.481 424.152 289.982 419.797 289.768C413.085 289.411 413.156 289.339 413.156 298.549C413.159 298.871 413.166 299.188 413.174 299.5H408.078C409.522 296.696 410.566 294.078 410.8 292.48C411.085 290.267 410.015 290.124 405.16 291.409C400.34 292.735 394.349 295.789 389.121 299.5H385.104C392.652 292.997 400.255 289.189 409.515 287.125C411.442 286.697 411.514 286.554 411.086 283.698C409.372 273.203 398.091 266.777 382.669 267.634C379.099 267.777 375.743 268.419 374.315 269.133C372.959 269.775 371.746 270.346 371.603 270.347C370.96 270.347 371.531 268.49 372.674 267.276C373.816 265.92 373.815 265.849 372.53 265.063C371.816 264.635 370.103 263.564 368.746 262.636C365.89 260.779 365.961 260.779 363.105 262.707C361.82 263.564 360.25 264.635 359.536 265.063C358.251 265.849 358.251 265.92 359.465 267.276C360.536 268.49 361.106 270.347 360.464 270.347C360.32 270.346 359.107 269.775 357.751 269.061C354.252 267.277 340.472 267.348 334.975 269.133C329.191 271.061 324.765 274.56 322.552 278.986C320.053 284.055 320.053 286.625 322.694 287.125C327.192 288.125 335.189 291.267 339.116 293.623C341.268 294.872 344.397 297.253 347.046 299.5H342.977C340.34 297.65 337.067 295.677 334.761 294.551C329.406 291.98 321.766 289.767 320.909 290.624C320.384 291.092 321.868 295.29 323.911 299.5H319.117C319.188 297.753 319.101 295.996 318.839 294.266L318.196 289.981L312.127 290.053C306.915 290.053 305.487 290.338 301.774 292.194C298.431 293.824 294.892 296.556 292.06 299.5H288.049C292.143 294.642 296.02 291.352 299.847 289.481C303.845 287.482 305.416 287.125 311.057 286.911L317.696 286.626L318.125 283.484C318.696 279.2 320.766 275.416 324.193 272.274C329.191 267.776 331.691 266.919 347.398 264.206C356.894 262.635 364.961 259.851 364.962 258.138ZM311.984 293.408C313.269 292.766 314.482 292.481 314.697 292.694C315.425 293.422 313.329 296.742 310.903 299.5H298.152C299.648 298.533 301.517 297.625 303.773 296.765C306.986 295.479 310.699 293.979 311.984 293.408ZM325.051 295.052C324.551 293.838 329.549 295.337 332.833 297.336C333.933 298.002 334.813 298.686 335.571 299.5H328.111C326.486 297.27 325.251 295.501 325.051 295.052ZM363.034 274.631C362.606 270.775 364.463 265.064 365.962 265.563C367.818 266.135 369.318 270.703 368.961 274.416C368.818 276.557 368.961 278.199 369.317 278.2C369.674 278.2 371.174 277.416 372.674 276.416C376.529 273.917 383.668 272.203 388.523 272.774C393.593 273.346 400.233 276.63 404.945 280.843C407.658 283.27 408.373 284.27 407.659 284.698C406.517 285.484 403.018 284.769 400.947 283.484C399.662 282.556 399.305 282.627 398.163 283.912C396.521 285.697 395.236 285.697 391.88 283.912C390.452 283.127 389.166 282.484 389.023 282.484C388.952 282.488 388.81 284.2 388.81 286.34C388.81 289.339 388.452 290.695 386.953 292.623C385.89 294.02 383.262 296.8 380.567 299.5H373.263C374.206 296.504 376.121 293.404 377.814 292.48C379.314 291.695 379.813 289.624 378.528 289.624C377.172 289.624 374.244 285.912 374.244 284.127C374.244 282.413 377.1 278.914 378.528 278.914C378.885 278.915 379.171 279.914 379.1 281.128C378.957 282.627 379.313 283.627 380.17 284.198C382.098 285.412 383.883 283.912 383.883 280.985C383.883 278.772 383.597 278.486 380.812 277.486C377.957 276.487 377.528 276.559 375.101 277.844C371.388 279.843 370.603 283.198 372.816 287.625L374.387 290.838L372.602 293.694C371.497 295.431 370.59 297.495 369.998 299.5H367.364C367.642 298.236 368.208 296.947 369.246 294.837C371.531 290.267 371.531 290.052 370.389 288.268C369.675 287.268 368.532 285.054 367.747 283.341C366.962 281.699 366.176 280.343 365.962 280.343C365.748 280.343 364.962 281.699 364.248 283.341C363.463 285.054 362.249 287.34 361.464 288.482L360.107 290.481L362.249 293.908C363.268 295.526 364.134 297.798 364.514 299.5H362.989C362.229 298.115 361.194 296.371 360.25 294.908L357.608 290.838L359.179 287.696C360.964 283.984 361.035 283.056 359.607 280.414C356.966 275.202 347.113 276.415 347.97 281.842C348.541 285.911 353.325 285.269 352.968 281.128C352.896 279.915 353.181 278.915 353.538 278.914C354.966 278.914 357.822 282.413 357.822 284.056C357.822 285.698 354.823 289.624 353.538 289.624C352.396 289.624 352.753 291.552 353.896 292.052C355.154 292.531 358.072 296.984 358.978 299.5H351.647C351.128 299.027 350.552 298.476 349.897 297.835C344.543 292.623 343.257 290.267 343.328 285.84C343.328 283.984 343.257 282.484 343.114 282.484C342.971 282.484 341.614 283.127 340.187 283.912C336.831 285.697 335.546 285.697 333.976 283.983C332.762 282.698 332.69 282.699 329.191 284.127C326.336 285.341 325.55 285.483 324.765 284.698C323.551 283.413 329.406 278.201 335.475 275.202C339.544 273.203 340.972 272.846 345.613 272.846C351.254 272.846 356.323 274.273 360.107 276.844C363.035 278.986 363.534 278.629 363.034 274.631ZM403.946 294.979C407.373 294.408 407.73 294.908 405.517 297.335C405.138 297.74 404.505 298.514 403.731 299.5H396.508C398.665 297.182 401.337 295.486 403.946 294.979ZM418.439 295.836C416.798 292.766 417.012 291.981 419.082 293.123C419.796 293.48 423.081 294.836 426.223 295.978C429.407 297.134 431.888 298.283 433.762 299.5H421.066C419.97 298.262 418.988 296.933 418.439 295.836Z" fill="white" fill-opacity="0.05"/>
<path d="M1051.88 223.637C1051.88 222.495 1053.16 222.924 1055.01 224.637C1057.3 226.708 1062.65 228.278 1073.63 230.135C1078.34 230.92 1083.83 231.991 1085.83 232.634C1093.32 234.847 1099.03 240.844 1100.45 247.984L1101.24 252.126L1107.8 252.411C1112.94 252.625 1115.15 253.125 1118.43 254.625C1123.78 257.052 1130.77 263.764 1135.62 271.118C1141.61 280.257 1146.75 288.396 1146.75 288.896C1146.75 289.295 1143.64 294.207 1140.17 299.5H1133.02C1133 299.114 1132.96 298.7 1132.91 298.249C1132.41 294.108 1132.91 293.537 1134.98 295.821C1135.69 296.606 1136.62 297.25 1137.05 297.25C1137.48 297.249 1139.19 295.321 1140.9 292.966L1143.97 288.753L1140.9 284.469C1139.19 282.114 1137.48 280.186 1137.12 280.185C1136.69 280.114 1135.98 280.756 1135.48 281.542C1134.98 282.327 1133.98 282.969 1133.2 282.969C1131.98 282.969 1131.84 282.755 1132.48 281.613C1135.91 275.116 1128.06 263.05 1117 257.766C1113.15 255.981 1111.01 255.482 1106.66 255.267C1099.95 254.91 1100.03 254.839 1100.03 264.049C1100.1 272.688 1102.02 277.615 1107.16 282.756C1111.44 286.897 1114.44 287.896 1118.57 286.54C1121.21 285.683 1123.92 282.327 1123.92 280.043C1123.92 278.115 1120.64 275.615 1118.72 276.115C1116.36 276.686 1115.79 278.472 1117.22 280.685C1118.14 282.113 1118.22 282.541 1117.43 283.041C1115.79 284.112 1113.51 283.755 1111.51 282.184C1108.94 280.185 1108.94 275.687 1111.51 271.832C1112.79 269.975 1113.08 268.976 1112.51 268.833C1110.65 268.19 1106.66 264.049 1105.3 261.336C1103.66 258.266 1103.88 257.48 1105.95 258.623C1106.66 258.98 1109.94 260.336 1113.08 261.478C1121.93 264.691 1125.35 267.833 1125.35 272.617C1125.35 274.973 1126.63 274.902 1127.56 272.474C1128.49 269.975 1129.7 271.189 1130.13 275.259C1130.34 277.258 1130.06 279.4 1129.34 281.113C1127.78 284.897 1127.85 285.112 1130.63 285.112C1133.2 285.112 1138.55 286.754 1140.12 288.11C1141.69 289.395 1137.48 291.608 1132.48 292.037C1130.13 292.251 1128.2 292.68 1128.2 292.966C1128.2 293.251 1128.7 294.679 1129.27 296.036C1129.74 297.167 1130.04 298.335 1130.18 299.5H1123.07C1123.59 298.839 1123.92 298.047 1123.92 297.178C1123.92 296.322 1122.85 294.607 1121.5 293.251C1119.57 291.323 1118.5 290.824 1116.22 290.824C1112.51 290.824 1110.37 291.68 1107.37 294.322C1105.85 295.655 1104.51 297.434 1103.4 299.5H1100.11C1101.44 296.794 1103.03 294.162 1104.16 293.108C1105.09 292.251 1107.09 290.967 1108.59 290.181L1111.37 288.824L1108.51 287.396C1103.74 284.969 1100.53 280.47 1098.24 273.331C1097.03 269.333 1096.53 269.047 1095.03 271.332C1094.32 272.403 1091.54 275.616 1088.83 278.471C1086.19 281.326 1083.98 283.968 1083.98 284.326C1083.98 285.254 1086.54 287.967 1087.4 287.968C1088.4 287.968 1091.11 285.754 1091.11 284.968C1091.11 284.54 1090.25 284.398 1088.97 284.612C1086.62 285.112 1086.47 284.969 1087.54 282.898C1087.97 282.113 1089.04 281.542 1090.11 281.542C1091.54 281.542 1092.11 280.899 1093.25 278.258C1094.03 276.473 1094.96 275.259 1095.39 275.472C1096.46 276.115 1096.25 281.613 1095.03 283.969C1093.75 286.468 1093.75 286.54 1094.89 286.54C1095.46 286.54 1096.32 285.754 1096.82 284.755C1098.03 282.47 1098.96 282.47 1098.96 284.755C1098.96 286.468 1099.46 286.754 1103.59 287.396C1106.23 287.825 1105.16 289.681 1102.02 290.395C1099.46 290.966 1098.96 291.395 1098.96 292.752C1098.96 294.893 1098.53 294.822 1096.46 292.394C1094.39 290.038 1093.53 290.61 1095.03 293.394C1095.69 294.667 1096.08 297.404 1096.1 299.5H1093.19C1093.08 299.174 1092.98 298.828 1092.89 298.464C1092.54 297.036 1091.97 296.536 1090.68 296.536C1089.83 296.536 1088.54 295.821 1087.97 294.965C1086.69 293.18 1087.19 291.823 1088.68 293.037C1090.25 294.322 1091.68 292.751 1090.4 291.18C1089.25 289.824 1086.54 289.824 1085.12 291.252C1083.41 292.965 1083.69 293.823 1087.26 297.25C1087.88 297.871 1088.61 298.656 1089.37 299.5H1085.41C1081.9 296.122 1078.06 293.465 1074.85 292.252C1070.99 290.824 1065.5 290.467 1062.93 291.538C1060.08 292.68 1057.73 288.539 1060.08 286.54C1061.01 285.826 1061.79 285.755 1064.07 286.468C1071.92 288.825 1083.05 282.756 1090.75 271.903C1094.11 267.262 1097.24 260.908 1097.67 257.98C1097.96 255.767 1096.89 255.624 1092.04 256.909C1086.33 258.48 1078.98 262.478 1073.2 267.119C1067 272.117 1061.58 278.328 1062.15 279.757C1063 281.97 1071.78 281.97 1075.27 279.685C1077.41 278.257 1077.13 275.544 1074.85 275.259C1073.63 275.044 1073.06 275.401 1072.78 276.472C1072.14 279.043 1069 277.758 1069 274.973C1069 271.546 1074.13 269.69 1077.41 271.974C1078.84 272.974 1079.05 272.974 1079.41 271.76C1081.05 266.334 1086.04 261.408 1090.82 260.479C1094.25 259.908 1094.6 260.408 1092.39 262.836C1091.39 263.907 1088.61 267.548 1086.19 270.903C1077.77 282.969 1070.85 286.54 1062.58 283.256C1059.29 281.899 1058.65 282.185 1056.37 286.326L1054.87 289.039L1056.8 291.894C1058.87 294.964 1059.3 295.036 1064.79 293.608C1067.5 292.894 1068.71 292.966 1072.06 293.966C1074.91 294.815 1077.52 296.499 1080.44 299.5H1076.75C1075.97 297.799 1072.62 296.44 1068 296.392C1062.67 296.3 1060.84 296.808 1062.56 299.5H1056.62L1057.51 297.677L1055.59 294.608C1054.52 292.895 1053.3 291.538 1052.87 291.538C1052.45 291.538 1051.23 292.822 1050.16 294.465L1048.24 297.321L1049.28 299.5H1043.29C1043.76 298.821 1044.03 298.308 1044.03 298.035C1044.03 295.893 1034.47 295.75 1030.69 297.892C1029.94 298.295 1029.45 298.871 1029.23 299.5H1025.14C1026.88 297.603 1028.41 296.392 1030.26 295.322C1034.19 293.037 1040.25 292.752 1043.74 294.608C1045.88 295.751 1046.03 295.679 1047.38 294.179C1048.17 293.323 1049.38 291.751 1050.02 290.68C1051.23 288.824 1051.23 288.681 1049.02 285.468C1047.81 283.684 1046.53 282.256 1046.24 282.256C1045.88 282.256 1044.46 282.756 1043.1 283.327C1039.46 284.826 1036.9 284.754 1036.9 283.041C1036.9 282.041 1037.61 281.614 1039.96 281.257C1043.17 280.757 1046.81 278.043 1048.45 274.83C1049.09 273.545 1049.66 273.189 1050.38 273.617C1051.16 274.117 1051.02 274.759 1049.74 277.115L1048.17 279.971L1050.38 283.256C1051.66 285.04 1052.8 286.539 1052.95 286.54C1053.09 286.54 1054.23 285.112 1055.44 283.327L1057.73 280.043L1056.08 277.4C1055.09 275.687 1054.44 273.117 1054.16 269.904C1053.87 265.549 1054.02 264.692 1056.16 260.337C1058.44 255.767 1058.44 255.552 1057.3 253.767C1056.58 252.768 1055.44 250.555 1054.66 248.842C1053.87 247.199 1053.09 245.843 1052.87 245.843C1052.66 245.843 1051.88 247.199 1051.16 248.842C1050.38 250.555 1049.17 252.84 1048.38 253.982L1047.03 255.981L1049.17 259.408C1050.38 261.336 1051.38 264.191 1051.59 265.905L1051.88 269.047L1050.81 266.762C1050.24 265.477 1048.59 262.621 1047.17 260.408L1044.53 256.338L1046.1 253.196C1047.88 249.484 1047.95 248.555 1046.53 245.914C1043.89 240.702 1034.04 241.915 1034.9 247.342C1035.47 251.411 1040.25 250.769 1039.89 246.628C1039.82 245.414 1040.11 244.415 1040.46 244.415C1041.89 244.415 1044.74 247.913 1044.74 249.555C1044.74 251.198 1041.75 255.124 1040.46 255.124C1039.32 255.124 1039.68 257.051 1040.82 257.552C1042.32 258.123 1046.17 264.335 1046.17 266.191C1046.17 267.476 1045.74 267.762 1043.67 267.69C1041.6 267.619 1040.32 266.762 1036.82 263.335C1031.47 258.123 1030.19 255.766 1030.26 251.34C1030.26 249.483 1030.19 247.984 1030.05 247.984C1029.9 247.985 1028.55 248.627 1027.12 249.412C1023.77 251.197 1022.49 251.197 1020.92 249.484C1019.71 248.199 1019.63 248.199 1016.14 249.627C1013.29 250.84 1012.5 250.983 1011.72 250.198C1010.5 248.913 1016.35 243.701 1022.42 240.702C1026.48 238.703 1027.91 238.345 1032.54 238.345C1038.18 238.345 1043.24 239.773 1047.03 242.343C1049.95 244.485 1050.45 244.129 1049.95 240.131C1049.52 236.275 1051.38 230.563 1052.87 231.063C1054.73 231.635 1056.23 236.204 1055.87 239.917C1055.73 242.058 1055.87 243.699 1056.23 243.7C1056.58 243.7 1058.08 242.915 1059.58 241.916C1063.43 239.417 1070.57 237.703 1075.42 238.274C1080.48 238.845 1087.11 242.13 1091.82 246.343C1094.53 248.77 1095.25 249.77 1094.53 250.198C1093.39 250.983 1089.9 250.269 1087.83 248.984C1086.54 248.056 1086.19 248.127 1085.05 249.412C1083.41 251.197 1082.12 251.197 1078.77 249.412C1077.34 248.627 1076.06 247.985 1075.92 247.984C1075.84 247.984 1075.7 249.698 1075.7 251.84C1075.7 254.838 1075.34 256.195 1073.85 258.123C1071.35 261.407 1060.22 272.331 1059.86 271.903C1059.65 271.688 1059.51 270.117 1059.58 268.333C1059.58 264.763 1062.36 259.265 1064.72 257.98C1066.21 257.195 1066.71 255.124 1065.43 255.124C1064.07 255.124 1061.15 251.412 1061.15 249.627C1061.15 247.913 1064 244.415 1065.43 244.415C1065.79 244.415 1066.07 245.414 1066 246.628C1065.86 248.127 1066.21 249.127 1067.07 249.698C1069 250.912 1070.78 249.412 1070.78 246.485C1070.78 244.272 1070.49 243.986 1067.71 242.986C1064.86 241.987 1064.43 242.058 1062.01 243.343C1058.3 245.343 1057.51 248.698 1059.72 253.125L1061.29 256.338L1059.51 259.194C1057.51 262.336 1056.16 266.548 1056.16 269.547C1056.16 271.974 1058.22 277.258 1059.15 277.258C1059.51 277.258 1062.43 274.474 1065.64 271.118C1075.42 260.765 1084.55 255.267 1096.39 252.626C1098.31 252.197 1098.39 252.054 1097.96 249.198C1096.25 238.703 1084.97 232.277 1069.57 233.134C1066 233.276 1062.65 233.919 1061.22 234.633C1059.87 235.275 1058.65 235.845 1058.51 235.846C1057.87 235.846 1058.44 233.99 1059.58 232.776C1060.72 231.42 1060.72 231.349 1059.44 230.563C1058.72 230.135 1057.01 229.064 1055.66 228.135C1052.8 226.279 1052.87 226.279 1050.02 228.207C1048.74 229.064 1047.17 230.135 1046.45 230.563C1045.17 231.349 1045.17 231.42 1046.38 232.776C1047.45 233.99 1048.02 235.846 1047.38 235.846C1047.24 235.846 1046.03 235.275 1044.67 234.561C1041.18 232.776 1027.41 232.848 1021.92 234.633C1016.14 236.56 1011.71 240.059 1009.5 244.486C1007.01 249.555 1007.01 252.126 1009.65 252.626C1014.14 253.625 1022.13 256.767 1026.05 259.123C1030.48 261.693 1039.04 269.046 1039.04 270.189C1039.04 271.617 1037.04 270.618 1032.26 266.762C1029.55 264.549 1024.77 261.55 1021.7 260.051C1016.35 257.48 1008.72 255.267 1007.86 256.124C1007.22 256.696 1009.58 262.835 1012.29 267.761C1013.71 270.26 1016.85 274.402 1019.21 276.972C1022.56 280.47 1023.34 281.827 1022.7 282.469C1022.13 283.041 1020.85 282.255 1017.64 279.043C1015.21 276.687 1012.5 273.545 1011.43 272.117C1009.36 269.047 1008.72 269.119 1007.93 272.474C1006.51 279.043 1000.87 286.611 996.593 287.682C994.096 288.325 994.382 288.967 997.734 290.467C1001.09 292.037 1004.37 295.535 1003.73 297.106C1003.57 297.529 1003.88 298.502 1004.46 299.5H1002.45C999.031 293.628 994.985 290.824 989.887 290.824C986.535 290.824 983.039 293.537 982.255 296.678C982.017 297.71 982.304 298.69 982.878 299.5H975.711C975.851 298.338 976.154 297.172 976.619 296.036C977.19 294.679 977.689 293.251 977.689 292.966C977.689 292.68 975.834 292.251 973.551 292.037C968.345 291.608 964.351 289.753 965.562 288.325C966.632 287.04 972.411 285.112 975.336 285.112C978.046 285.112 978.117 284.826 976.548 281.113C975.834 279.4 975.549 277.258 975.763 275.259C976.191 271.189 977.404 269.975 978.332 272.474C979.402 275.187 980.543 274.83 980.543 271.903C980.543 267.976 983.824 264.906 990.743 262.264C993.953 260.979 997.663 259.479 998.947 258.908C1000.23 258.266 1001.44 257.981 1001.66 258.194C1002.87 259.408 996.236 267.833 993.311 268.833C992.598 269.047 992.74 269.69 993.953 271.118C996.021 273.76 997.021 277.615 996.236 279.757C995.023 282.827 990.957 284.612 988.461 283.041C987.676 282.541 987.747 282.113 988.675 280.685C990.101 278.472 989.53 276.686 987.176 276.115C984.609 275.401 981.613 278.543 982.255 281.184C983.467 286.039 989.174 288.396 994.168 286.182C1002.23 282.541 1007.44 270.618 1005.79 259.765L1005.15 255.481L999.09 255.552C993.882 255.552 992.455 255.838 988.746 257.694C983.039 260.479 976.762 266.477 974.408 271.26C972.839 274.545 972.553 275.758 972.91 279.043C973.195 282.184 973.124 282.969 972.268 282.969C971.769 282.969 970.912 282.327 970.413 281.542C969.913 280.756 969.2 280.114 968.772 280.114C968.415 280.116 966.703 282.114 965.063 284.469L962.067 288.896L965.063 293.037C966.632 295.392 968.344 297.249 968.772 297.25C969.272 297.25 970.199 296.606 970.913 295.821C972.91 293.608 973.409 294.108 972.91 297.606C972.832 298.243 972.792 298.874 972.791 299.5H965.736C959.334 289.7 958.447 287.744 959.785 286.968C960.07 286.754 963.066 282.327 966.347 277.115C973.837 265.263 980.4 258.123 986.82 254.981C990.815 252.982 992.384 252.625 998.019 252.411L1004.65 252.126L1005.08 248.984C1005.65 244.7 1007.72 240.916 1011.14 237.774C1016.14 233.276 1018.63 232.419 1034.33 229.706C1043.82 228.135 1051.88 225.351 1051.88 223.637ZM989.031 294.037C992.975 292.819 995.888 295.691 996.161 299.5H989.339C989.678 298.107 989.235 296.536 988.318 296.536C987.106 296.536 987.676 294.466 989.031 294.037ZM1009.79 299.5C1009.8 297.379 1009.97 297.208 1010.86 297.965C1011.31 298.342 1011.59 298.906 1011.7 299.5H1009.79ZM1029.98 285.397C1030.62 284.755 1035.47 287.325 1035.47 288.325C1035.47 288.896 1035.97 289.395 1036.54 289.395C1037.11 289.395 1037.61 288.967 1037.61 288.468C1037.61 288.039 1039.25 287.111 1041.25 286.468C1044.81 285.326 1044.81 285.326 1046.24 287.111C1047.6 288.896 1047.6 288.896 1046.1 290.538C1044.81 291.894 1044.31 292.037 1042.46 291.394C1039.04 290.181 1032.47 291.11 1028.34 293.394C1025.76 294.786 1023.06 296.945 1020.5 299.5H1017.01C1017.68 298.914 1018.31 298.457 1019.06 297.964C1021.77 296.179 1022.63 295.108 1022.63 293.394C1022.63 291.966 1022.91 291.824 1024.48 292.109C1025.63 292.323 1027.05 291.895 1028.34 290.895C1029.48 290.11 1030.76 289.395 1031.26 289.395C1031.76 289.395 1031.62 288.753 1030.83 287.539C1030.19 286.54 1029.76 285.541 1029.98 285.397ZM1110.44 296.464C1111.37 294.679 1114.22 293.537 1116.5 294.108C1118.07 294.537 1119 296.536 1117.57 296.536C1116.66 296.536 1116.21 298.107 1116.55 299.5H1109.64C1109.71 298.394 1109.97 297.339 1110.44 296.464ZM1010.86 292.967C1011.5 291.896 1011.93 292.038 1013.43 293.823C1015.14 295.893 1015.14 296.536 1013.36 296.536C1011.86 296.536 1010.15 294.109 1010.86 292.967ZM1016.71 293.394C1017.64 292.537 1018.99 292.966 1018.63 294.037C1018.35 294.608 1017.92 295.107 1017.64 295.107C1016.78 295.107 1016.14 293.965 1016.71 293.394ZM1007.51 282.97C1008.43 282.97 1010 286.327 1009.5 287.183C1009.22 287.612 1009.36 288.611 1009.79 289.468C1010.43 290.61 1010.36 291.182 1009.36 292.324C1007.86 293.966 1007.08 294.037 1006.79 292.467C1006.65 291.824 1005.37 290.967 1003.73 290.539C1000.3 289.539 999.874 287.754 1003.01 287.397C1005.65 287.04 1006.94 286.04 1006.94 284.327C1006.94 283.542 1007.22 282.971 1007.51 282.97ZM1080.91 285.183C1079.77 285.326 1074.7 288.252 1074.7 288.753C1074.7 289.324 1080.12 292.252 1081.19 292.252C1081.62 292.252 1082.55 291.537 1083.26 290.68C1084.48 289.11 1084.48 288.967 1083.12 287.111C1082.34 285.969 1081.34 285.112 1080.91 285.183ZM1021.7 286.54C1022.63 286.54 1022.63 286.754 1021.92 287.611C1021.2 288.468 1021.2 288.896 1021.99 289.895C1022.49 290.681 1022.2 290.538 1021.27 289.681C1020.35 288.825 1019.85 287.753 1020.06 287.325C1020.35 286.897 1021.06 286.54 1021.7 286.54ZM1010.22 275.615C1011 274.83 1011.79 275.759 1012.64 278.4C1013.28 280.328 1014 280.97 1015.57 281.327C1017.35 281.684 1019.06 283.327 1019.06 284.683C1019.06 284.897 1018.13 284.897 1016.92 284.612C1014.71 284.184 1014.35 284.683 1015.42 286.468C1015.85 287.11 1015.64 287.967 1014.64 288.967C1013.29 290.394 1013.21 290.395 1012.29 289.181C1011.72 288.396 1011.5 287.396 1011.72 286.825C1011.86 286.325 1011.57 285.183 1010.93 284.255C1009.79 282.684 1009.36 276.543 1010.22 275.615ZM1062.93 287.968C1061.15 287.968 1060.51 288.967 1061.79 289.681C1062.65 290.252 1064.72 289.467 1064.72 288.61C1064.72 288.253 1063.93 287.968 1062.93 287.968ZM1044.74 288.61C1044.74 287.753 1041.39 287.753 1040.89 288.61C1040.46 289.324 1043.24 290.252 1044.17 289.681C1044.46 289.467 1044.74 289.038 1044.74 288.61ZM1023.13 284.183C1023.77 283.469 1025.48 283.612 1025.48 284.326C1025.48 284.683 1024.84 285.112 1024.06 285.326C1022.63 285.683 1022.2 285.111 1023.13 284.183ZM1033.26 280.828C1033.69 280.828 1034.04 281.113 1034.04 281.542C1034.04 281.899 1033.9 282.256 1033.76 282.256C1033.54 282.255 1033.19 281.898 1032.97 281.542C1032.76 281.113 1032.9 280.828 1033.26 280.828ZM1012 260.552C1011.5 259.338 1016.49 260.837 1019.78 262.836C1022.13 264.264 1023.49 265.763 1024.77 268.476C1026.27 271.618 1026.84 272.189 1027.98 271.832C1033.47 270.19 1036.18 271.333 1036.18 275.26C1036.18 277.401 1035.18 277.972 1034.47 276.116C1033.76 274.331 1029.48 275.046 1029.19 277.045C1028.76 279.829 1026.77 279.686 1024.06 276.687C1021.63 273.974 1012.57 261.838 1012 260.552ZM1043.39 275.117C1044.1 275.117 1044.24 276.117 1043.6 276.76C1042.89 277.402 1041.82 276.545 1042.25 275.76C1042.53 275.403 1042.96 275.117 1043.39 275.117ZM1039.04 272.903C1039.04 272.118 1040.96 272.046 1041.46 272.903C1041.67 273.189 1041.67 273.688 1041.46 273.902C1040.89 274.473 1039.04 273.688 1039.04 272.903ZM1044.03 270.761C1043.24 269.405 1043.32 269.334 1044.67 270.119C1046.24 270.904 1046.74 272.261 1045.46 272.261C1045.1 272.261 1044.46 271.618 1044.03 270.761Z" fill="white" fill-opacity="0.05"/>
<path d="M1397.5 0.5C1398.06 1.67974 1398.66 2.87892 1399.29 4.0127C1400.71 6.5117 1403.85 10.6525 1406.21 13.2227C1409.56 16.7209 1410.34 18.0781 1409.7 18.7207C1409.13 19.2916 1407.85 18.5054 1404.64 15.293C1402.21 12.937 1399.5 9.7953 1398.43 8.36719C1396.36 5.29723 1395.72 5.36894 1394.93 8.72461C1393.51 15.2932 1387.87 22.8616 1383.59 23.9326C1381.1 24.5752 1381.38 25.2175 1384.73 26.7168C1388.09 28.2876 1391.37 31.7867 1390.73 33.3574C1390.51 33.9289 1391.15 35.4993 1392.15 36.7842C1393.15 38.1408 1394.51 40.3544 1395.08 41.7822L1396.15 44.3525L1399.14 40.9258C1402.85 36.6419 1403.99 35.5704 1406.06 34.2139C1408.77 32.4292 1409.63 31.3578 1409.63 29.6445C1409.63 28.2166 1409.91 28.0738 1411.48 28.3594C1412.63 28.5734 1414.05 28.1448 1415.34 27.1455C1416.48 26.3603 1417.76 25.6468 1418.26 25.6465C1418.76 25.6463 1418.62 25.0034 1417.83 23.79C1417.19 22.7905 1416.76 21.7903 1416.98 21.6475C1417.62 21.0063 1422.47 23.5758 1422.47 24.5752C1422.47 25.1462 1422.97 25.6465 1423.54 25.6465C1424.11 25.6463 1424.61 25.2173 1424.61 24.7178C1424.61 24.2893 1426.25 23.3613 1428.25 22.7188C1431.81 21.5765 1431.81 21.5764 1433.24 23.3613C1434.6 25.1459 1434.6 25.1463 1433.1 26.7881C1431.81 28.1445 1431.31 28.288 1429.46 27.6455C1426.04 26.4319 1419.47 27.3599 1415.34 29.6445C1406.49 34.4284 1396.08 48.2801 1395.22 56.1338C1395.01 57.9181 1395.22 58.1321 1396.79 57.918C1403.28 57.1324 1413.2 52.2059 1420.04 46.4229C1425.11 42.1393 1431.03 35.5711 1431.03 34.2852C1431.03 32.1434 1421.47 32.0007 1417.69 34.1426C1415.84 35.1422 1415.55 37.2129 1417.12 38.498C1417.98 39.2115 1418.4 39.2118 1419.26 38.498C1419.83 37.9984 1420.33 37.1415 1420.33 36.6416C1420.33 35.1424 1422.33 35.4278 1423.18 36.998C1424.18 38.9969 1424.11 39.7115 1422.47 41.3535C1420.97 42.8527 1416.48 43.3521 1415.69 42.0674C1414.98 40.854 1413.2 41.2824 1413.2 42.6387C1413.2 44.638 1409.42 49.4934 1406.49 51.2783C1403.71 52.9915 1398.93 54.062 1398.93 52.9922C1398.93 52.5638 1399.57 51.7063 1400.43 50.9209C1401.21 50.2066 1403.64 47.1371 1405.78 44.0674C1411.13 36.4277 1413.55 33.7142 1417.26 31.5723C1421.19 29.2876 1427.25 29.0022 1430.74 30.8584C1432.88 32.0006 1433.03 31.9289 1434.38 30.4297C1435.17 29.573 1436.38 28.0025 1437.02 26.9316C1438.23 25.0753 1438.23 24.9314 1436.02 21.7188C1434.81 19.9344 1433.53 18.5068 1433.24 18.5059C1432.88 18.5059 1431.46 19.006 1430.1 19.5771C1426.46 21.0763 1423.9 21.0049 1423.9 19.292C1423.9 18.2924 1424.61 17.8638 1426.96 17.5068C1430.17 17.007 1433.81 14.2937 1435.45 11.0811C1436.09 9.79588 1436.67 9.4388 1437.38 9.86719C1438.16 10.3669 1438.02 11.0099 1436.74 13.3652L1435.17 16.2217L1437.38 19.5059C1438.66 21.2899 1439.8 22.7888 1439.95 22.79C1439.96 22.7899 1439.98 22.7792 1440 22.7607V27.8184C1439.95 27.7994 1439.91 27.7881 1439.87 27.7881C1439.45 27.7883 1438.23 29.0738 1437.16 30.7158L1435.24 33.5713L1437.02 37.2842C1440.09 43.2816 1439.38 50.6359 1435.38 55.7051L1433.88 57.6328L1436.38 61.7734C1437.73 64.0575 1438.88 66.3422 1438.88 66.8428C1438.88 67.9192 1439.32 68.0383 1440 67.3613V82.6133C1439.34 82.6758 1438.66 81.9082 1437.81 80.3379C1436.81 78.4817 1436.59 77.0531 1436.95 73.9121C1437.16 71.6274 1437.16 69.9129 1436.88 70.0557C1427.68 74.9106 1426.39 75.2685 1420.33 75.2686C1414.91 75.2686 1413.7 74.9824 1409.56 72.9834C1404.99 70.6988 1398.22 65.4156 1398.22 64.1299C1398.22 63.1305 1401.93 63.4164 1404.21 64.5586C1406.06 65.5579 1406.42 65.5577 1407.49 64.5586C1408.99 63.202 1412.48 63.202 1414.34 64.5586C1416.55 66.2002 1417.69 65.9145 1417.19 63.8447C1416.19 59.8464 1417.98 56.4907 1425.11 49.1367C1428.89 45.2115 1432.24 42.0702 1432.6 42.0674C1433.6 42.0682 1433.24 48.4935 1432.03 50.8496C1431.39 52.1347 1429.96 54.1339 1428.75 55.3477L1426.68 57.5615L1429.17 60.0605C1430.67 61.5596 1431.74 63.3441 1431.74 64.3438C1431.74 66.6282 1429.82 69.1987 1428.11 69.1992C1426.89 69.1992 1426.68 68.8421 1427.11 67.2002C1427.96 63.2733 1422.97 62.2023 1422.04 66.0576C1421.47 68.4135 1422.11 69.8416 1424.25 70.627C1431.39 73.3398 1436.45 67.8423 1433.17 60.9883L1431.6 57.7754L1434.17 52.7061C1437.02 47.0657 1437.38 43.7815 1435.67 39.7119C1435.1 38.2843 1434.31 36.9989 1433.95 36.7842C1433.6 36.5713 1431.53 38.4275 1429.32 40.9971C1420.83 50.6357 1409.7 57.8467 1399.36 60.417C1395.08 61.4165 1394.65 61.7025 1394.65 63.416C1394.65 66.0579 1397.65 72.0552 1400.07 74.3398C1403 77.0529 1409.2 79.6949 1414.77 80.623C1420.69 81.5512 1429.96 80.6228 1432.67 78.8379C1435.02 77.2676 1435.31 78.6957 1433.1 81.0518L1431.67 82.6221L1435.74 84.8359L1439.87 87.0488L1440 86.9844V90.4961C1439.7 90.4709 1439.39 90.3143 1439.02 90.0479C1435.45 87.4061 1429.96 85.6213 1421.4 84.1934C1409.49 82.2657 1405.06 81.051 1400.78 78.2666C1396.5 75.5535 1392.8 70.0558 1392.15 65.415L1391.65 62.0596L1387.23 61.9883C1384.88 61.9883 1381.45 61.5592 1379.67 61.1309C1376.96 60.4169 1376.46 59.9886 1376.32 58.3467C1376.17 56.4903 1376.25 56.4907 1378.6 57.4902C1379.95 57.99 1383.24 58.7038 1385.88 58.918C1389.94 59.2749 1390.94 59.2032 1391.72 58.2041C1392.94 56.7763 1393.79 42.2126 1392.79 41.4248C1392.44 41.2099 1391.44 39.4971 1390.51 37.7129C1386.87 30.5017 1382.52 27.0743 1376.89 27.0742C1373.53 27.0742 1370.04 29.7872 1369.25 32.9287C1368.4 36.6411 1374.32 39.7109 1376.1 36.4277C1376.82 34.9285 1376.39 32.7864 1375.32 32.7861C1374.11 32.7861 1374.68 30.7158 1376.03 30.2871C1381.81 28.5022 1385.38 35.4989 1381.67 41.3535L1380.1 43.8525L1379.74 41.7822C1379.46 40.64 1378.96 39.5689 1378.46 39.4258C1377.39 39.0689 1376.6 41.7107 1377.1 43.8525C1377.67 46.0655 1376.39 46.7796 1375.25 44.9238C1374.25 43.2817 1372.54 42.996 1372.54 44.4238C1372.54 44.9241 1373.68 46.7088 1375.1 48.3506C1377.96 51.706 1377.17 52.2056 1373.04 49.707C1369.75 47.708 1367.54 44.5665 1367.54 41.9248C1367.54 39.0691 1366.19 38.784 1365.26 41.4971L1364.4 43.8525L1363.55 41.7109C1362.26 38.7837 1362.34 35.4276 1363.62 32.2861C1364.19 30.9301 1364.69 29.5022 1364.69 29.2158C1364.69 28.9303 1362.83 28.5022 1360.55 28.2881C1355.35 27.8597 1351.35 26.0031 1352.56 24.5752C1353.63 23.29 1359.41 21.3623 1362.34 21.3623C1365.05 21.3623 1365.12 21.0763 1363.55 17.3643C1362.83 15.6508 1362.55 13.5079 1362.76 11.5088C1363.19 7.43938 1364.4 6.22573 1365.33 8.72461C1366.4 11.4372 1367.54 11.0802 1367.54 8.15332C1367.54 5.16985 1369.44 2.68223 1373.38 0.5H1385.5C1383.73 2.64452 1381.64 4.62924 1380.31 5.08301C1379.6 5.29723 1379.74 5.94024 1380.95 7.36816C1383.02 10.0097 1384.02 13.8649 1383.24 16.0068C1382.02 19.0767 1377.96 20.8623 1375.46 19.292C1374.68 18.7922 1374.75 18.3633 1375.67 16.9355C1377.1 14.7223 1376.53 12.9375 1374.18 12.3662C1371.61 11.6524 1368.61 14.7939 1369.25 17.4355C1370.47 22.2903 1376.17 24.6469 1381.17 22.4336C1388.13 19.2898 1392.96 9.97172 1393.09 0.5H1397.5ZM1368.68 54.2061C1369.47 54.2062 1371.04 55.135 1372.18 56.3486C1374.89 59.2042 1372.96 59.204 1369.68 56.3486C1367.54 54.5638 1367.4 54.2775 1368.68 54.2061ZM1379.67 49.0654C1379.67 48.0658 1381.74 48.4225 1384.59 49.9219C1386.45 50.85 1387.66 52.0642 1388.16 53.5635C1388.59 54.8483 1388.87 55.9909 1388.73 56.1338C1388.59 56.2763 1386.94 55.5619 1385.09 54.4912C1382.1 52.778 1379.67 50.4221 1379.67 49.0654ZM1366.78 0.5C1364.44 2.80297 1362.5 5.28773 1361.41 7.51074C1359.84 10.7948 1359.55 12.009 1359.91 15.293C1360.2 18.4337 1360.12 19.2204 1359.27 19.2207C1358.77 19.2207 1357.91 18.5772 1357.41 17.792C1356.91 17.007 1356.2 16.3649 1355.77 16.3643C1355.42 16.3643 1353.7 18.3636 1352.06 20.7197L1349.07 25.1465L1352.06 29.2871C1353.63 31.6431 1355.35 33.5 1355.77 33.5C1356.27 33.4995 1357.2 32.8572 1357.91 32.0723C1359.91 29.8589 1360.41 30.3589 1359.91 33.8574C1359.34 38.4979 1360.77 42.7819 1364.76 47.708C1368.61 52.491 1368.97 53.491 1366.9 53.4912C1365.05 53.4912 1361.12 48.5647 1352.99 36.1416C1346.36 26.003 1345.43 24.0041 1346.78 23.2188C1347.07 23.0042 1350.07 18.5771 1353.35 13.3652C1356.61 8.20232 1359.7 3.93345 1362.67 0.5H1366.78ZM1396.79 36C1396.79 33.6441 1396.93 33.4297 1397.86 34.2148C1399.14 35.2859 1399 37.8566 1397.72 38.3564C1397.07 38.4988 1396.79 37.7842 1396.79 36ZM1397.86 29.2168C1398.5 28.1458 1398.93 28.2883 1400.43 30.0732C1402.14 32.1434 1402.14 32.787 1400.36 32.7871C1398.86 32.7871 1397.15 30.3593 1397.86 29.2168ZM1403.71 29.6445C1404.64 28.7879 1405.99 29.2162 1405.63 30.2871C1405.35 30.8581 1404.92 31.3582 1404.64 31.3584C1403.78 31.3581 1403.14 30.2157 1403.71 29.6445ZM1394.51 19.2207C1395.43 19.2211 1397 22.5765 1396.5 23.4336C1396.22 23.8621 1396.36 24.8621 1396.79 25.7188C1397.43 26.8606 1397.36 27.4321 1396.36 28.5742C1394.86 30.216 1394.08 30.2871 1393.79 28.7168C1393.65 28.0743 1392.37 27.2174 1390.73 26.7891C1387.3 25.7895 1386.87 24.0045 1390.01 23.6475C1392.65 23.2905 1393.94 22.2912 1393.94 20.5781C1393.94 19.793 1394.22 19.221 1394.51 19.2207ZM1408.7 22.79C1409.63 22.7901 1409.63 23.0046 1408.92 23.8613C1408.2 24.718 1408.2 25.147 1408.99 26.1465C1409.49 26.9311 1409.2 26.7879 1408.27 25.9316C1407.35 25.075 1406.85 24.0037 1407.06 23.5752C1407.35 23.147 1408.06 22.79 1408.7 22.79ZM1397.22 11.8662C1398 11.0808 1398.79 12.0088 1399.64 14.6504C1400.28 16.5778 1401 17.2211 1402.57 17.5781C1404.35 17.9352 1406.06 19.5771 1406.06 20.9336C1406.06 21.1474 1405.13 21.1477 1403.92 20.8623C1401.71 20.434 1401.35 20.9338 1402.42 22.7188C1402.85 23.3613 1402.64 24.2184 1401.64 25.2178C1400.29 26.6455 1400.21 26.6451 1399.29 25.4316C1398.72 24.6464 1398.5 23.6464 1398.72 23.0752C1398.86 22.5753 1398.57 21.4328 1397.93 20.5049C1396.79 18.9337 1396.36 12.795 1397.22 11.8662ZM1431.74 24.8604C1431.74 24.004 1428.39 24.0038 1427.89 24.8604C1427.46 25.5743 1430.25 26.5028 1431.17 25.9316C1431.46 25.7174 1431.74 25.2885 1431.74 24.8604ZM1410.13 20.4336C1410.77 19.7197 1412.48 19.8625 1412.48 20.5762C1412.48 20.9331 1411.84 21.362 1411.06 21.5762C1409.63 21.9331 1409.2 21.3617 1410.13 20.4336ZM1420.26 17.0781C1420.69 17.0782 1421.04 17.3638 1421.04 17.792C1421.04 18.1483 1420.9 18.5048 1420.76 18.5059C1420.54 18.5059 1420.19 18.1489 1419.97 17.792C1419.76 17.3638 1419.9 17.0782 1420.26 17.0781ZM1408.74 0.5C1409.98 1.58497 1410.89 2.87229 1411.77 4.72656C1413.27 7.86746 1413.84 8.43975 1414.98 8.08301C1420.47 6.44088 1423.18 7.58291 1423.18 11.5098C1423.18 13.6513 1422.18 14.2221 1421.47 12.3662C1420.76 10.5819 1416.48 11.2959 1416.19 13.2949C1415.76 16.0789 1413.77 15.9358 1411.06 12.9375C1409.38 11.0622 1404.53 4.6845 1401.51 0.5H1408.74ZM1430.39 11.3672C1431.1 11.3678 1431.24 12.3674 1430.6 13.0098C1429.89 13.6522 1428.82 12.7951 1429.25 12.0098C1429.53 11.6529 1429.96 11.3672 1430.39 11.3672ZM1426.04 9.15332C1426.04 8.36793 1427.96 8.29654 1428.46 9.15332C1428.68 9.43883 1428.68 9.93806 1428.46 10.1523C1427.89 10.7233 1426.04 9.93851 1426.04 9.15332ZM1431.03 7.0127C1430.24 5.65615 1430.32 5.58479 1431.67 6.37012C1433.24 7.15545 1433.74 8.51146 1432.46 8.51172C1432.1 8.51172 1431.46 7.86918 1431.03 7.0127ZM1420.08 0.5C1423.28 3.14007 1426.03 5.7902 1426.04 6.43945C1426.04 7.86691 1424.04 6.86775 1419.26 3.0127C1418.31 2.23842 1417.11 1.36876 1415.82 0.5H1420.08ZM1438.24 0.5C1438.41 1.1111 1438.53 1.67813 1438.59 2.15625L1438.88 5.29785L1437.81 3.0127C1437.55 2.42953 1437.07 1.52321 1436.49 0.5H1438.24ZM1432.59 0.5C1432.95 1.30502 1433.17 1.99757 1433.17 2.44141C1433.17 3.72626 1432.74 4.0118 1430.67 3.94043C1428.8 3.87581 1427.57 3.1684 1424.77 0.5H1432.59Z" fill="white" fill-opacity="0.05"/>
<path d="M829.304 0.5C831.695 4.28663 833.248 6.86823 833.25 7.14551C833.25 7.93089 820.98 26.5661 817.913 30.5645C813.99 35.4909 808.069 40.1319 803.219 41.9883C801.15 42.7737 796.799 43.6305 793.589 43.8447L787.668 44.2734L787.169 47.2002C786.17 53.2689 781.89 58.8381 775.827 61.8369C773.901 62.7651 767.48 64.408 759.919 65.8359C746.08 68.4062 743.798 69.1205 741.373 71.4053C740.018 72.6903 739.518 72.7616 738.519 72.0479C734.953 69.4061 729.46 67.6203 720.9 66.1924C708.988 64.2646 704.564 63.0512 700.284 60.2666C696.004 57.5534 692.295 52.0558 691.653 47.415L691.154 44.0596L686.731 43.9873C684.377 43.9873 680.953 43.5592 679.17 43.1309C676.459 42.4169 675.96 41.9886 675.817 40.3467C675.675 38.4904 675.746 38.4898 678.099 39.4893C679.455 39.989 682.736 40.7038 685.376 40.918C689.442 41.2749 690.441 41.2027 691.225 40.2031C692.438 38.7725 693.293 24.2101 692.295 23.4248C691.938 23.21 690.94 21.4965 690.013 19.7119C686.375 12.5007 682.023 9.07422 676.388 9.07422C673.035 9.0743 669.539 11.7872 668.755 14.9287C667.899 18.6413 673.82 21.711 675.603 18.4268C676.316 16.9274 675.888 14.7861 674.818 14.7861C673.606 14.786 674.177 12.7155 675.532 12.2871C681.31 10.5024 684.876 17.4989 681.167 23.3535L679.597 25.8525L679.241 23.7822C678.956 22.6398 678.456 21.5686 677.957 21.4258C676.887 21.069 676.102 23.7107 676.601 25.8525C677.172 28.0658 675.888 28.7799 674.747 26.9238C673.748 25.2817 672.036 24.9959 672.036 26.4238C672.036 26.9239 673.178 28.7086 674.604 30.3506C677.458 33.7063 676.673 34.2059 672.536 31.707C669.255 29.7079 667.043 26.5665 667.043 23.9248C667.043 21.0689 665.688 20.7832 664.761 23.4961L663.904 25.8525L663.049 23.7109C661.765 20.7836 661.836 17.4276 663.12 14.2861C663.691 12.9297 664.189 11.5017 664.189 11.2158C664.189 10.9302 662.335 10.5013 660.053 10.2871C654.845 9.85872 650.851 8.00316 652.063 6.5752C653.133 5.29002 658.911 3.3623 661.836 3.3623C664.239 3.3623 664.567 3.13753 663.517 0.5H669.112C670.838 4.62146 676.055 6.47714 680.668 4.43262C682.605 3.55728 684.377 2.20255 685.93 0.5H689.75C687.646 3.2921 685.205 5.4041 683.093 5.93262C680.596 6.57516 680.882 7.21756 684.234 8.7168C687.587 10.2875 690.868 13.7855 690.226 15.3564C690.012 15.9276 690.654 17.499 691.653 18.7842C692.652 20.1408 694.007 22.3543 694.578 23.7822L695.647 26.3525L698.643 22.9248C702.353 18.6409 703.495 17.5704 705.563 16.2139C708.274 14.4291 709.13 13.3578 709.13 11.6445C709.13 10.2166 709.415 10.0738 710.984 10.3594C712.126 10.5736 713.553 10.1451 714.837 9.14551C715.978 8.36014 717.262 7.64551 717.762 7.64551C718.26 7.6451 718.117 7.00246 717.333 5.78906C716.691 4.7896 716.263 3.79024 716.477 3.64746C717.12 3.00539 721.97 5.57569 721.97 6.5752C721.97 7.14622 722.469 7.64551 723.04 7.64551C723.61 7.64545 724.11 7.21746 724.11 6.71777C724.11 6.28938 725.751 5.36134 727.748 4.71875C731.315 3.57637 731.314 3.57636 732.741 5.36133C734.096 7.14611 734.096 7.14602 732.598 8.78809C731.315 10.1446 730.815 10.2871 728.961 9.64453C725.537 8.43076 718.974 9.3598 714.837 11.6445C705.991 16.4282 695.577 30.2789 694.721 38.1328C694.507 39.9178 694.721 40.1322 696.29 39.918C702.781 39.1325 712.697 34.2061 719.545 28.4229C724.609 24.1391 730.53 17.5707 730.53 16.2852C730.53 14.1432 720.971 14.0006 717.19 16.1426C715.336 17.1422 715.051 19.2119 716.62 20.4971C717.476 21.2111 717.904 21.2111 718.76 20.4971C719.33 19.9974 719.83 19.1414 719.83 18.6416C719.83 17.1422 721.827 17.4273 722.683 18.998C723.682 20.9972 723.61 21.7114 721.97 23.3535C720.471 24.8528 715.978 25.3525 715.193 24.0674C714.48 22.8536 712.696 23.2821 712.696 24.6387C712.696 26.6378 708.916 31.4934 705.991 33.2783C703.209 34.9918 698.43 36.0622 698.43 34.9912C698.43 34.5627 699.072 33.7061 699.928 32.9209C700.712 32.2069 703.138 29.1365 705.278 26.0664C710.628 18.4271 713.053 15.7142 716.763 13.5723C720.686 11.2876 726.749 11.0014 730.244 12.8574C732.384 13.9998 732.527 13.9291 733.883 12.4297C734.667 11.5729 735.879 10.0016 736.521 8.93066C737.734 7.0743 737.735 6.93169 735.523 3.71875C734.311 1.93378 733.026 0.505859 732.741 0.505859C732.384 0.505919 730.958 1.00599 729.602 1.57715C725.964 3.07646 723.396 3.00456 723.396 1.29102C723.396 0.97577 723.467 0.717289 723.639 0.5H736.201L736.879 1.50586C738.162 3.28929 739.302 4.78773 739.446 4.79004C739.589 4.79004 740.731 3.36205 741.943 1.57715L742.691 0.5H761.862C757.695 3.04912 753.587 3.29619 749.076 1.50586C745.795 0.149471 745.153 0.434697 742.871 4.5752L741.373 7.28906L743.299 10.1445C745.367 13.2147 745.795 13.2864 751.288 11.8584C753.999 11.1444 755.212 11.2153 758.564 12.2148C763.344 13.6429 767.481 17.4277 773.472 25.8525C775.684 28.994 778.181 32.2778 779.037 33.2061C780.963 35.2766 780.534 35.7772 777.324 35.2061C773.758 34.4919 768.979 30.6363 767.053 26.9238C765.341 23.5682 764.485 22.7824 763.7 23.9961C763.058 25.1385 758.85 24.9238 757.066 23.6387C755.354 22.4249 754.997 19.8546 756.352 18.498C757.494 17.3558 759.063 17.4279 759.063 18.6416C759.064 19.1415 759.563 19.9974 760.134 20.4971C760.99 21.211 761.417 21.211 762.273 20.4971C765.554 17.784 761.488 14.714 754.498 14.6426C746.295 14.4998 746.366 15.7851 754.997 24.2812C763.985 33.1346 773.116 38.3467 781.533 39.5605C784.814 39.9889 784.886 39.989 784.458 38.2754C783.388 34.491 778.251 24.924 775.47 21.5684C771.19 16.4278 765.697 12.1441 761.346 10.502C757.494 9.07406 752.001 8.71719 749.433 9.78809C746.58 10.9305 744.226 6.78921 746.58 4.79004C747.507 4.07608 748.292 4.00486 750.574 4.71875C755.341 6.15015 761.319 4.47111 767.005 0.5H771.985C771.061 1.60733 770.477 2.39229 770.476 2.57617C770.476 3.50425 773.044 6.21716 773.9 6.21777C774.899 6.21777 777.61 4.00414 777.61 3.21875C777.61 2.7906 776.753 2.64816 775.47 2.8623C773.116 3.362 772.973 3.2188 774.043 1.14844C774.174 0.908575 774.365 0.689735 774.597 0.5H782.136C781.976 1.1556 781.775 1.75029 781.533 2.21973C780.249 4.71837 780.249 4.79004 781.39 4.79004C781.961 4.79004 782.817 4.0044 783.316 3.00488C784.529 0.720125 785.457 0.720125 785.457 3.00488C785.457 4.71844 785.956 5.0039 790.094 5.64648C792.732 6.07497 791.663 7.9315 788.524 8.64551C785.956 9.2167 785.457 9.64538 785.457 11.002C785.457 13.1435 785.028 13.0719 782.96 10.6445C780.891 8.28841 780.035 8.85999 781.533 11.6445C782.674 13.8582 783.031 20.4971 781.961 20.4971C781.034 20.4966 779.893 18.9266 779.393 16.7139C779.037 15.2859 778.465 14.7861 777.181 14.7861C776.326 14.7859 775.042 14.0714 774.472 13.2148C773.188 11.4299 773.686 10.0734 775.184 11.2871C776.754 12.5723 778.18 11.0014 776.896 9.43066C775.755 8.07429 773.045 8.07421 771.618 9.50195C769.906 11.2155 770.191 12.0729 773.758 15.5C775.541 17.285 778.252 20.4266 779.892 22.4258C781.461 24.4955 783.03 26.2078 783.316 26.209C783.602 26.209 784.101 25.1387 784.315 23.7822C784.957 20.4979 788.595 13.2862 790.664 11.3584C791.591 10.5016 793.589 9.21701 795.087 8.43164L797.869 7.07422L795.015 5.64648C792.667 4.45372 790.699 2.76026 789.032 0.5H793.164C793.326 0.668516 793.491 0.83702 793.66 1.00586C797.94 5.1468 800.936 6.1465 805.073 4.79004C806.934 4.18579 808.83 2.33785 809.787 0.5H815.384C814.326 3.19305 814.657 3.3623 817.129 3.3623C819.697 3.36237 825.047 5.00381 826.616 6.36035C828.185 7.64553 823.977 9.85872 818.983 10.2871C816.629 10.5013 814.703 10.9302 814.703 11.2158C814.703 11.5017 815.203 12.9297 815.773 14.2861C817.057 17.4276 817.129 20.8551 815.845 23.7109C814.846 25.9239 814.775 25.852 813.634 22.2822C813.063 20.2834 811.85 21.2115 811.849 23.6387C811.849 28.1368 807.499 31.7071 798.368 34.8486C796.228 35.634 793.66 36.7051 792.732 37.3477C791.805 37.9901 790.878 38.2757 790.664 38.0615C789.38 36.8476 795.872 27.6377 798.012 27.6377C799.795 27.6375 799.795 26.1378 798.012 23.9961C796.014 21.6399 795.515 17.3556 796.941 14.7139C797.869 12.9291 800.722 11.7872 803.005 12.3584C804.574 12.7869 805.501 14.7857 804.075 14.7861C803.005 14.7861 802.577 16.9274 803.29 18.4268C804.859 21.2826 810.423 18.9984 810.424 15.4287C810.424 14.5719 809.353 12.8576 807.998 11.501C806.072 9.57345 805.002 9.07427 802.72 9.07422C799.01 9.07422 796.87 9.93052 793.874 12.5723C788.667 17.1417 785.528 26.9231 786.455 35.7051C786.954 40.1318 787.169 40.5609 788.881 40.9893C791.877 41.7031 800.294 39.9176 804.717 37.5615C810.352 34.5628 815.844 29.0649 818.056 24.2812C819.553 20.997 819.768 19.7119 819.411 16.499C818.912 12.3581 819.412 11.7866 821.48 14.0713C822.194 14.8567 823.121 15.5 823.549 15.5C823.977 15.4998 825.688 13.5717 827.4 11.2158L830.468 7.00293L827.4 2.71973C826.811 1.90826 826.22 1.14859 825.685 0.5H829.304ZM733.455 18.7842C733.098 18.57 731.029 20.426 728.818 22.9961C720.33 32.6349 709.201 39.8466 698.857 42.417C694.578 43.4165 694.149 43.7025 694.149 45.416C694.149 48.0579 697.146 54.0552 699.571 56.3398C702.496 59.0529 708.702 61.6948 714.265 62.623C720.186 63.5512 729.46 62.6229 732.171 60.8379C734.525 59.2673 734.81 60.6948 732.598 63.0508L731.172 64.6221L735.238 66.835L739.375 69.0488L743.156 67.1211C747.222 64.9792 747.507 64.5504 745.866 62.9082C745.296 62.2657 744.797 61.3378 744.797 60.6953C744.797 59.7671 745.082 59.7669 746.722 60.8379C749.291 62.5514 757.565 63.4085 763.985 62.5518C769.835 61.8378 775.256 59.6239 778.966 56.5537C781.676 54.2688 784.743 48.272 784.743 45.416C784.743 43.774 784.387 43.4166 782.176 42.9883C770.976 40.9177 758.207 32.5637 748.434 20.9971C745.724 17.7129 744.725 18.1419 743.37 23.0684C742.229 27.0665 743.156 31.9212 745.937 36.3477L747.793 39.2754L746.295 42.417C744.226 46.6295 744.368 48.7716 746.865 51.2705C749.076 53.4838 751.716 53.912 755.139 52.627C757.279 51.8416 757.922 50.4136 757.351 48.0576C756.424 44.2021 751.431 45.2733 752.287 49.2002C752.715 50.8419 752.5 51.1992 751.288 51.1992C749.576 51.1992 747.65 48.6285 747.65 46.3438C747.65 45.3441 748.72 43.5589 750.218 42.0596L752.715 39.5605L750.075 36.8477C748.363 35.1341 747.151 32.9205 746.509 30.5645C745.724 27.4944 745.795 24.0674 746.651 24.0674C746.795 24.0683 750.004 26.9952 753.641 30.5645C760.989 37.6327 763.058 41.2029 762.273 45.2725C761.774 47.9142 762.701 48.3426 765.056 46.5576C767.053 45.0586 770.976 45.2019 771.832 46.7012C772.474 47.9147 772.617 47.9149 774.614 46.7012C775.827 46.0586 777.967 45.4873 779.536 45.4873L782.247 45.5586L778.323 49.2002C776.183 51.1993 772.331 53.8409 769.764 55.0547C765.698 56.9824 764.342 57.2676 759.063 57.2676C752.929 57.2676 752.144 56.9822 742.514 52.0557C742.228 51.914 742.157 53.4841 742.442 55.4824C742.728 58.1242 742.514 59.8386 741.587 61.9092C740.017 65.4075 739.018 65.4784 737.306 62.3369C736.308 60.4806 736.093 59.0526 736.45 55.9111C736.664 53.6264 736.664 51.9129 736.379 52.0557C727.177 56.9106 725.893 57.2676 719.83 57.2676C714.409 57.2676 713.196 56.9825 709.058 54.9834C704.493 52.6988 697.717 47.4154 697.717 46.1299C697.717 45.1303 701.426 45.4152 703.709 46.5576C705.563 47.5571 705.92 47.5572 706.99 46.5576C708.488 45.2015 711.983 45.2013 713.838 46.5576C716.049 48.1998 717.191 47.9143 716.691 45.8438C715.693 41.8455 717.476 38.4896 724.609 31.1357C728.39 27.2089 731.743 24.0674 732.099 24.0674C733.098 24.0688 732.741 30.4937 731.528 32.8496C730.886 34.1348 729.46 36.1339 728.247 37.3477L726.179 39.5605L728.675 42.0596C730.173 43.5589 731.243 45.3441 731.243 46.3438C731.243 48.6284 729.317 51.199 727.605 51.1992C726.393 51.1992 726.178 50.842 726.606 49.2002C727.462 45.2733 722.469 44.2021 721.542 48.0576C720.971 50.4136 721.613 51.8416 723.753 52.627C730.886 55.3401 735.951 49.8425 732.67 42.9883L731.1 39.7754L733.669 34.7061C736.522 29.0656 736.879 25.7807 735.167 21.7109C734.596 20.2836 733.812 18.9992 733.455 18.7842ZM739.375 9.78809C738.947 9.78867 737.735 11.0732 736.665 12.7148L734.738 15.5713L736.521 19.2842C739.589 25.2816 738.875 32.6358 734.881 37.7051L733.383 39.6328L735.88 43.7734C737.235 46.0581 738.377 48.3429 738.377 48.8428C738.377 50.7705 739.804 49.6281 741.444 46.3438C742.371 44.4874 743.583 42.2738 744.154 41.3457C745.01 39.9892 745.01 39.5608 744.083 38.1328C739.874 31.5643 739.232 25.3527 742.3 19.4268L744.012 15.9277L742.086 12.8574C741.016 11.144 739.803 9.78809 739.375 9.78809ZM668.183 36.2061C668.968 36.2061 670.538 37.1339 671.68 38.3477C674.39 41.2035 672.464 41.2036 669.182 38.3477C667.043 36.563 666.9 36.2775 668.183 36.2061ZM679.17 31.0645C679.17 30.0651 681.238 30.4226 684.092 31.9219C685.946 32.85 687.159 34.0633 687.658 35.5625C688.086 36.8469 688.371 37.9889 688.229 38.1328C688.087 38.2756 686.445 37.5622 684.591 36.4912C681.595 34.7777 679.17 32.421 679.17 31.0645ZM653.212 0.5C652.692 1.15527 652.123 1.91636 651.563 2.71973L648.567 7.14551L651.563 11.2871C653.133 13.6433 654.845 15.5 655.273 15.5C655.773 15.4997 656.7 14.8565 657.413 14.0713C659.41 11.8582 659.909 12.3581 659.41 15.8564C658.839 20.4973 660.266 24.7816 664.261 29.708C668.112 34.4916 668.47 35.4911 666.401 35.4912C664.547 35.4912 660.623 30.5648 652.491 18.1416C645.857 8.00299 644.93 6.00316 646.285 5.21777C646.469 5.07877 647.77 3.20373 649.546 0.5H653.212ZM696.29 17.999C696.29 15.6433 696.433 15.4295 697.36 16.2148C698.644 17.286 698.501 19.8557 697.217 20.3555C696.575 20.4979 696.29 19.7836 696.29 17.999ZM697.359 11.2168C698.001 10.1458 698.43 10.2883 699.928 12.0732C701.64 14.1437 701.64 14.7861 699.856 14.7861C698.358 14.7861 696.647 12.3594 697.359 11.2168ZM703.209 11.6445C704.136 10.7877 705.491 11.2161 705.135 12.2871C704.849 12.8581 704.421 13.3574 704.136 13.3574C703.28 13.357 702.639 12.2157 703.209 11.6445ZM694.007 1.2207C694.934 1.2207 696.504 4.57681 696.005 5.43359C695.719 5.862 695.862 6.86108 696.29 7.71777C696.932 8.86013 696.861 9.43188 695.862 10.5742C694.364 12.2164 693.579 12.2875 693.294 10.7168C693.151 10.0742 691.867 9.21746 690.226 8.78906C686.802 7.78948 686.375 6.00445 689.514 5.64746C692.153 5.29042 693.436 4.29062 693.436 2.57715C693.436 1.79222 693.721 1.22124 694.007 1.2207ZM767.409 3.43359C766.267 3.57668 761.205 6.50241 761.203 7.00293C761.203 7.57406 766.623 10.5013 767.694 10.502C768.122 10.502 769.05 9.78745 769.764 8.93066C770.976 7.36033 770.976 7.21718 769.621 5.36133C768.836 4.21895 767.837 3.3622 767.409 3.43359ZM708.202 4.79004C709.129 4.79004 709.129 5.00454 708.416 5.86133C707.703 6.7178 707.703 7.14624 708.487 8.14551C708.986 8.93085 708.701 8.78829 707.774 7.93164C706.847 7.07486 706.347 6.00359 706.561 5.5752C706.847 5.14685 707.56 4.79008 708.202 4.79004ZM704.036 0.5C704.931 1.18261 705.563 2.11006 705.563 2.93359C705.562 3.14739 704.635 3.14674 703.423 2.86133C701.212 2.43311 700.855 2.93327 701.925 4.71777C702.353 5.36031 702.139 6.21731 701.14 7.2168C699.785 8.64476 699.713 8.64538 698.786 7.43164C698.215 6.64627 698.002 5.64639 698.216 5.0752C698.358 4.57546 698.073 3.43301 697.431 2.50488C697.132 2.09261 696.883 1.36499 696.692 0.5H704.036ZM749.433 6.21777C747.65 6.21777 747.008 7.21765 748.292 7.93164C749.148 8.50265 751.217 7.71709 751.217 6.86035C751.217 6.50341 750.432 6.21783 749.433 6.21777ZM731.243 6.86035C731.243 6.00367 727.891 6.00376 727.391 6.86035C726.963 7.57434 729.745 8.50283 730.673 7.93164C730.958 7.71744 731.243 7.28873 731.243 6.86035ZM709.629 2.43359C710.271 1.71975 711.982 1.86226 711.982 2.57617C711.982 2.93317 711.34 3.36198 710.556 3.57617C709.129 3.93304 708.701 3.36172 709.629 2.43359ZM804.468 0.5C804.487 0.826878 804.309 1.05047 803.931 1.29102C802.315 2.34638 800.076 2.01338 798.099 0.5H804.468ZM680.827 0.5C679.07 1.8767 676.655 2.35662 674.961 1.29102C674.583 1.05055 674.406 0.826771 674.425 0.5H680.827ZM659.505 0.5C659.408 1.03792 659.18 1.2197 658.768 1.21973C658.433 1.21973 657.94 0.92789 657.499 0.5H659.505ZM821.351 0.5C820.847 0.928784 820.223 1.21973 819.696 1.21973C818.756 1.21968 818.46 1.09139 818.675 0.5H821.351ZM709.35 0.5C709.316 0.58154 709.266 0.654427 709.201 0.719727C708.93 0.990911 708.499 0.954995 707.777 0.5H709.35ZM720.288 0.5C720.278 0.503526 720.268 0.505825 720.258 0.505859C720.247 0.505859 720.237 0.501671 720.225 0.5H720.288Z" fill="white" fill-opacity="0.05"/>
<path d="M3.52246 0.5C3.28648 1.5863 3.15626 2.62392 3.15625 3.54688C3.15625 5.97418 5.22487 11.2567 6.15234 11.2578C6.509 11.2578 9.43372 8.4737 12.6436 5.11816C14.2123 3.45626 15.7659 1.91996 17.3154 0.5H20.9932C20.7279 0.70547 20.4643 0.910923 20.2051 1.11914C13.9993 6.11684 8.57827 12.3285 9.14844 13.7568C10.0044 15.9702 18.7791 15.9703 22.2744 13.6855C24.4141 12.2575 24.1283 9.54437 21.8457 9.25879C20.6332 9.0447 20.0627 9.40176 19.7773 10.4727C19.1354 13.0428 15.9974 11.7579 15.9971 8.97363C15.9971 5.5465 21.1327 3.68985 24.4141 5.97461C25.8405 6.974 26.0546 6.97403 26.4111 5.76074C26.9732 3.90173 27.9291 2.10101 29.1348 0.5H36.4551C35.4219 1.85616 34.2694 3.40777 33.1885 4.90332C24.7711 16.9697 17.8509 20.5402 9.57617 17.2559C6.29521 15.8995 5.65346 16.1847 3.37109 20.3252L1.87305 23.0391L3.79883 25.8945C5.8675 28.9647 6.29541 29.0364 11.7881 27.6084C14.4987 26.8944 15.7118 26.9653 19.0645 27.9648C23.8437 29.3929 27.9808 33.1777 33.9727 41.6025C36.184 44.744 38.6811 48.0278 39.5371 48.9561C41.4631 51.0266 41.0342 51.5272 37.8242 50.9561C34.2577 50.2419 29.4788 46.3863 27.5527 42.6738C25.8408 39.3182 24.9848 38.5324 24.2002 39.7461C23.5582 40.8885 19.3498 40.6738 17.5664 39.3887C15.8544 38.1749 15.4972 35.6046 16.8525 34.248C17.9939 33.1058 19.5635 33.1779 19.5635 34.3916C19.5638 34.8915 20.0633 35.7474 20.6338 36.2471C21.4898 36.961 21.9174 36.961 22.7734 36.2471C26.0542 33.534 21.9885 30.464 14.998 30.3926C6.79481 30.2498 6.86606 31.5351 15.4971 40.0312C24.485 48.8846 33.6159 54.0967 42.0332 55.3105C45.3145 55.7389 45.386 55.739 44.958 54.0254C43.8878 50.241 38.7516 40.674 35.9697 37.3184C31.6897 32.1778 26.197 27.8941 21.8457 26.252C17.9938 24.8241 12.5016 24.4672 9.93359 25.5381C7.08027 26.6805 4.72614 22.5392 7.08008 20.54C8.00737 19.8261 8.79178 19.7549 11.0742 20.4688C18.9208 22.8249 30.0489 16.7557 37.7529 5.90332C38.952 4.24346 40.1222 2.36307 41.1523 0.5H47.1035C47.5093 7.66198 49.5305 12.122 54.1602 16.7559C58.44 20.8968 61.4361 21.8965 65.5732 20.54C68.2124 19.6833 70.9235 16.3277 70.9238 14.043C70.9238 12.1152 67.6418 9.61544 65.7158 10.1152C63.3619 10.6865 62.7911 12.4722 64.2178 14.6855C65.145 16.1134 65.2163 16.5412 64.4316 17.041C62.791 18.1118 60.5089 17.7551 58.5117 16.1846C55.9437 14.1854 55.9438 9.68754 58.5117 5.83203C59.7957 3.97567 60.0804 2.97581 59.5098 2.83301C58.7227 2.56022 57.5518 1.65611 56.3594 0.5H69.5752C71.5059 2.27456 72.3496 4.24319 72.3496 6.61719C72.3496 8.97317 73.6342 8.90189 74.5615 6.47461C75.4889 3.97566 76.7019 5.18907 77.1299 9.25879C77.3439 11.2579 77.058 13.3997 76.3447 15.1133C74.7754 18.8974 74.8469 19.1123 77.6289 19.1123C80.1969 19.1124 85.5468 20.7538 87.1162 22.1104C88.6855 23.3955 84.4767 25.6087 79.4834 26.0371C77.1294 26.2513 75.2031 26.6802 75.2031 26.9658C75.2032 27.2517 75.7028 28.6797 76.2734 30.0361C77.5573 33.1776 77.6287 36.6051 76.3447 39.4609C75.3462 41.6739 75.2751 41.602 74.1338 38.0322C73.5631 36.0334 72.3497 36.9615 72.3496 39.3887C72.3496 43.8868 67.9988 47.4571 58.8682 50.5986C56.7282 51.384 54.1598 52.4551 53.2324 53.0977C52.3052 53.7401 51.378 54.0257 51.1641 53.8115C49.8802 52.5976 56.3717 43.3877 58.5117 43.3877C60.2947 43.3875 60.2948 41.8878 58.5117 39.7461C56.5144 37.3899 56.0147 33.1056 57.4414 30.4639C58.3689 28.6791 61.2223 27.5372 63.5049 28.1084C65.0739 28.5369 66.0011 30.5357 64.5752 30.5361C63.5052 30.5361 63.0768 32.6774 63.79 34.1768C65.3593 37.0326 70.9233 34.7484 70.9238 31.1787C70.9238 30.3219 69.8534 28.6076 68.498 27.251C66.5722 25.3235 65.5021 24.8243 63.2197 24.8242C59.5104 24.8242 57.37 25.6805 54.374 28.3223C49.1668 32.8917 46.0279 42.6731 46.9551 51.4551C47.4544 55.8818 47.6689 56.3109 49.3809 56.7393C52.377 57.4531 60.7942 55.6676 65.2168 53.3115C70.8521 50.3128 76.3443 44.8149 78.5557 40.0312C80.0536 36.747 80.2678 35.4619 79.9111 32.249C79.4118 28.1081 79.9119 27.5366 81.9805 29.8213C82.6938 30.6067 83.6208 31.25 84.0488 31.25C84.4769 31.2498 86.1885 29.3217 87.9004 26.9658L90.9678 22.7529L87.9004 18.4697C86.1884 16.1136 84.4768 14.1856 84.1201 14.1855C83.6921 14.1141 82.9788 14.7566 82.4795 15.542C81.9802 16.3274 80.9809 16.9697 80.1963 16.9697C78.9841 16.9697 78.8415 16.7555 79.4834 15.6133C81.5472 11.697 79.5158 5.75795 75.1553 0.5H79.2334C80.4366 1.98559 81.5791 3.53697 82.6221 5.11816C88.6121 14.2541 93.7467 22.391 93.75 22.8955C93.75 23.6809 81.4805 42.3161 78.4131 46.3145C74.4898 51.2409 68.5694 55.8819 63.7188 57.7383C61.6501 58.5237 57.2989 59.3805 54.0889 59.5947L48.168 60.0234L47.6689 62.9502C46.6703 69.0189 42.3902 74.5881 36.3271 77.5869C34.4011 78.5151 27.9803 80.158 20.4189 81.5859C6.58062 84.1562 4.29836 84.8705 1.87305 87.1553C1.02395 87.9604 0.51042 88.2884 0 88.2461V84.7344L3.65625 82.8711C7.72212 80.7292 8.00686 80.3004 6.36621 78.6582C5.79574 78.0157 5.29703 77.0878 5.29688 76.4453C5.29688 75.5171 5.58199 75.5169 7.22266 76.5879C9.79072 78.3014 18.0654 79.1585 24.4854 78.3018C30.3347 77.5878 35.7565 75.3739 39.4658 72.3037C42.1763 70.0188 45.2429 64.022 45.2432 61.166C45.2432 59.524 44.8867 59.1666 42.6758 58.7383C31.4764 56.6677 18.7073 48.3137 8.93457 36.7471C6.22402 33.4629 5.22543 33.8919 3.87012 38.8184C2.72899 42.8165 3.65583 47.6712 6.4375 52.0977L8.29297 55.0254L6.79492 58.167C4.72625 62.3795 4.86856 64.5216 7.36523 67.0205C9.5765 69.2338 12.2158 69.662 15.6396 68.377C17.7796 67.5916 18.4221 66.1636 17.8516 63.8076C16.9242 59.9521 11.9311 61.0233 12.7871 64.9502C13.2149 66.5919 13.0005 66.9492 11.7881 66.9492C10.0761 66.9492 8.15039 64.3785 8.15039 62.0938C8.15048 61.0941 9.21983 59.3089 10.7178 57.8096L13.2148 55.3105L10.5752 52.5977C8.86327 50.8841 7.65077 48.6705 7.00879 46.3145C6.22419 43.2444 6.29539 39.8174 7.15137 39.8174C7.29497 39.8183 10.5043 42.7452 14.1416 46.3145C21.4887 53.3827 23.5579 56.9529 22.7734 61.0225C22.2741 63.6642 23.2017 64.0926 25.5557 62.3076C27.5531 60.8086 31.4761 60.9519 32.332 62.4512C32.9739 63.6647 33.1171 63.6649 35.1143 62.4512C36.3269 61.8086 38.4668 61.2373 40.0361 61.2373L42.7471 61.3086L38.8232 64.9502C36.6832 66.9493 32.8316 69.5909 30.2637 70.8047C26.1977 72.7324 24.842 73.0176 19.5635 73.0176C13.4288 73.0176 12.6437 72.7322 3.01367 67.8057C2.72858 67.664 2.65722 69.2341 2.94238 71.2324C3.22772 73.8742 3.01425 75.5886 2.08691 77.6592C1.30223 79.4084 0.659859 80.3009 0 80.3633V65.1104C0.536506 64.5751 1.22016 63.5434 1.94434 62.0938C2.87165 60.2374 4.08365 58.0238 4.6543 57.0957C5.51028 55.7392 5.51034 55.3108 4.58301 53.8828C0.374544 47.3143 -0.267363 41.1027 2.7998 35.1768L4.51172 31.6777L2.58594 28.6074C1.60687 27.0395 0.507457 25.7726 0 25.5684V20.5107C0.274902 20.3035 1.32957 18.9666 2.44336 17.3271L4.72559 14.043L3.08496 11.4004C2.08648 9.68688 1.4445 7.11679 1.15918 3.9043C1.06557 2.4754 1.02028 1.42284 1.07422 0.5H3.52246ZM45.2432 7.33105C44.0305 3.3328 43.5312 3.04729 42.0332 5.33203C41.3197 6.40317 38.5377 9.61587 35.8271 12.4717C33.1886 15.3268 30.9778 17.968 30.9766 18.3262C30.9766 19.2543 33.5441 21.9672 34.4004 21.9678C35.3991 21.9678 38.1104 19.7541 38.1104 18.9688C38.1099 18.5406 37.2534 18.3982 35.9697 18.6123C33.6161 19.112 33.4731 18.9688 34.543 16.8984C34.971 16.1131 36.0413 15.542 37.1113 15.542C38.538 15.542 39.1087 14.8994 40.25 12.2578C41.0344 10.4735 41.9614 9.25955 42.3896 9.47266C43.4597 10.1152 43.2459 15.6136 42.0332 17.9697C40.7494 20.4684 40.7494 20.54 41.8906 20.54C42.4613 20.54 43.3171 19.7544 43.8164 18.7549C45.0291 16.4701 45.957 16.4701 45.957 18.7549C45.957 20.4684 46.4564 20.7539 50.5938 21.3965C53.2326 21.825 52.1627 23.6815 49.0244 24.3955C46.4564 24.9667 45.957 25.3954 45.957 26.752C45.957 28.8935 45.5285 28.8219 43.46 26.3945C41.3913 24.0384 40.5352 24.61 42.0332 27.3945C43.1744 29.6082 43.5309 36.2471 42.4609 36.2471C41.5337 36.2466 40.3929 34.6766 39.8936 32.4639C39.5369 31.0359 38.9656 30.5361 37.6816 30.5361C36.8257 30.5359 35.5423 29.8214 34.9717 28.9648C33.6877 27.1799 34.1866 25.8234 35.6846 27.0371C37.2539 28.3223 38.6805 26.7514 37.3965 25.1807C36.2551 23.8243 33.5448 23.8242 32.1182 25.252C30.4062 26.9655 30.6911 27.8229 34.2578 31.25C36.0412 33.035 38.7519 36.1766 40.3926 38.1758C41.9613 40.2455 43.5303 41.9578 43.8164 41.959C44.1017 41.959 44.6014 40.8887 44.8154 39.5322C45.4574 36.2479 49.0954 29.0362 51.1641 27.1084C52.0914 26.2516 54.089 24.967 55.5869 24.1816L58.3691 22.8242L55.5156 21.3965C50.7363 18.9689 47.5258 14.4709 45.2432 7.33105ZM27.9092 19.1836C26.7677 19.3267 21.7049 22.2524 21.7031 22.7529C21.7031 23.3241 27.1235 26.2513 28.1943 26.252C28.6223 26.252 29.5503 25.5374 30.2637 24.6807C31.476 23.1103 31.476 22.9672 30.1211 21.1113C29.3364 19.9689 28.3372 19.1122 27.9092 19.1836ZM9.93359 21.9678C8.15026 21.9678 7.50799 22.9677 8.79199 23.6816C9.64808 24.2527 11.7168 23.4671 11.7168 22.6104C11.7167 22.2534 10.9321 21.9678 9.93359 21.9678ZM12.957 0.5C9.85752 3.54538 7.04471 6.11306 6.86621 5.90332C6.65221 5.68912 6.50972 4.11798 6.58105 2.33301C6.58107 1.76279 6.65237 1.14355 6.78125 0.5H12.957Z" fill="white" fill-opacity="0.05"/>
</svg>
