<svg width="1440" height="352" viewBox="0 0 1440 352" fill="none" xmlns="http://www.w3.org/2000/svg">
<path d="M0 0.00585938H1440V352.006H0V0.00585938Z" fill="#011F4D"/>
<path d="M366.615 296.856C366.615 295.333 368.329 295.904 370.804 298.189C373.85 300.949 380.99 303.044 395.65 305.519C401.933 306.566 409.264 307.994 411.93 308.851C421.925 311.802 429.541 319.799 431.445 329.319L432.492 334.84L441.25 335.221C448.104 335.507 451.056 336.173 455.435 338.172C460.514 340.475 466.701 345.669 472.181 352.006H466.644C463.045 348.18 458.535 344.749 453.531 342.361C448.391 339.981 445.534 339.314 439.728 339.029C430.779 338.553 430.874 338.458 430.874 350.739C430.878 351.168 430.885 351.59 430.896 352.006H424.104C426.029 348.268 427.421 344.777 427.732 342.647C428.113 339.696 426.685 339.505 420.212 341.218C413.785 342.985 405.798 347.059 398.827 352.006H393.47C403.534 343.334 413.672 338.258 426.019 335.506C428.589 334.935 428.684 334.745 428.113 330.937C425.828 316.943 410.786 308.374 390.224 309.517C385.464 309.707 380.99 310.565 379.086 311.517C377.278 312.373 375.661 313.134 375.469 313.135C374.612 313.135 375.373 310.66 376.896 309.041C378.42 307.233 378.42 307.137 376.706 306.09C375.754 305.519 373.469 304.091 371.66 302.854C367.852 300.379 367.948 300.378 364.14 302.949C362.426 304.091 360.332 305.519 359.38 306.09C357.666 307.137 357.666 307.233 359.284 309.041C360.712 310.66 361.474 313.135 360.617 313.135C360.426 313.134 358.808 312.373 357 311.421C352.335 309.041 333.962 309.137 326.632 311.517C318.921 314.087 313.019 318.751 310.067 324.654C306.735 331.413 306.735 334.84 310.258 335.506C316.255 336.839 326.917 341.028 332.153 344.169C335.022 345.835 339.194 349.01 342.726 352.006H337.301C333.786 349.539 329.421 346.909 326.346 345.408C319.206 341.981 309.021 339.029 307.878 340.171C307.177 340.795 309.155 346.392 311.88 352.006H305.487C305.581 349.677 305.466 347.334 305.117 345.027L304.26 339.315L296.168 339.409C289.219 339.409 287.315 339.791 282.364 342.266C277.906 344.439 273.189 348.081 269.412 352.006H264.062C269.521 345.529 274.691 341.142 279.794 338.648C285.125 335.982 287.22 335.507 294.74 335.221L303.594 334.84L304.165 330.652C304.927 324.94 307.687 319.894 312.257 315.705C318.921 309.708 322.253 308.565 343.196 304.948C355.858 302.853 366.615 299.14 366.615 296.856Z" fill="white" fill-opacity="0.1"/>
<path d="M295.978 343.884C297.691 343.027 299.31 342.646 299.596 342.932C300.566 343.903 297.77 348.329 294.535 352.006H277.533C279.528 350.717 282.021 349.507 285.03 348.359C289.314 346.645 294.264 344.646 295.978 343.884Z" fill="white" fill-opacity="0.1"/>
<path d="M313.399 346.074C312.733 344.456 319.396 346.455 323.775 349.12C325.242 350.009 326.416 350.921 327.428 352.006H317.479C315.312 349.033 313.666 346.673 313.399 346.074Z" fill="white" fill-opacity="0.1"/>
<path d="M364.045 318.847C363.474 313.707 365.948 306.091 367.947 306.756C370.422 307.518 372.422 313.611 371.946 318.561C371.756 321.416 371.946 323.606 372.422 323.607C372.898 323.607 374.897 322.56 376.896 321.227C382.037 317.895 391.557 315.61 398.03 316.371C404.789 317.133 413.643 321.512 419.926 327.129C423.543 330.366 424.495 331.699 423.544 332.27C422.021 333.317 417.355 332.365 414.595 330.652C412.881 329.414 412.405 329.509 410.882 331.223C408.692 333.602 406.979 333.603 402.505 331.223C400.601 330.176 398.887 329.319 398.696 329.319C398.601 329.326 398.411 331.608 398.411 334.459C398.411 338.458 397.935 340.267 395.936 342.837C394.518 344.7 391.015 348.406 387.422 352.006H377.682C378.939 348.011 381.493 343.878 383.751 342.647C385.75 341.6 386.416 338.838 384.702 338.838C382.893 338.837 378.99 333.888 378.99 331.508C378.99 329.223 382.798 324.56 384.702 324.559C385.178 324.559 385.559 325.892 385.464 327.51C385.274 329.509 385.75 330.842 386.893 331.604C389.463 333.222 391.843 331.222 391.843 327.32C391.843 324.368 391.462 323.987 387.749 322.655C383.941 321.322 383.37 321.418 380.133 323.131C375.183 325.797 374.136 330.271 377.087 336.173L379.181 340.456L376.801 344.265C375.327 346.58 374.118 349.333 373.329 352.006H369.815C370.186 350.321 370.943 348.602 372.327 345.787C375.373 339.695 375.373 339.409 373.85 337.03C372.898 335.697 371.375 332.746 370.328 330.461C369.281 328.272 368.233 326.462 367.947 326.462C367.661 326.464 366.615 328.273 365.663 330.461C364.616 332.746 362.997 335.793 361.95 337.316L360.142 339.981L362.997 344.55C364.355 346.708 365.511 349.737 366.017 352.006H363.984C362.971 350.159 361.59 347.833 360.332 345.883L356.81 340.456L358.904 336.268C361.284 331.318 361.379 330.08 359.475 326.558C355.952 319.609 342.816 321.227 343.958 328.462C344.72 333.888 351.098 333.031 350.622 327.51C350.527 325.892 350.907 324.56 351.383 324.559C353.287 324.559 357.095 329.224 357.095 331.413C357.094 333.603 353.096 338.838 351.383 338.838C349.86 338.839 350.336 341.409 351.859 342.075C353.537 342.715 357.428 348.651 358.635 352.006H348.862C348.17 351.376 347.401 350.641 346.528 349.786C339.389 342.837 337.674 339.695 337.77 333.793C337.77 331.319 337.675 329.319 337.484 329.319C337.294 329.319 335.485 330.176 333.581 331.223C329.107 333.603 327.393 333.602 325.299 331.318C323.681 329.604 323.585 329.604 318.921 331.508C315.113 333.126 314.066 333.317 313.019 332.27C311.4 330.556 319.206 323.607 327.298 319.609C332.724 316.943 334.629 316.467 340.816 316.467C348.337 316.467 355.096 318.371 360.142 321.798C364.044 324.654 364.711 324.178 364.045 318.847Z" fill="white" fill-opacity="0.1"/>
<path d="M418.593 345.978C423.162 345.216 423.638 345.883 420.688 349.119C420.183 349.66 419.339 350.691 418.308 352.006H408.676C411.552 348.916 415.114 346.653 418.593 345.978Z" fill="white" fill-opacity="0.1"/>
<path d="M437.918 347.12C435.729 343.027 436.015 341.98 438.775 343.503C439.728 343.979 444.107 345.788 448.295 347.311C452.541 348.852 455.85 350.383 458.348 352.006H441.422C439.96 350.355 438.649 348.583 437.918 347.12Z" fill="white" fill-opacity="0.1"/>
<path fill-rule="evenodd" clip-rule="evenodd" d="M1042.5 250.856C1042.5 249.333 1044.21 249.904 1046.69 252.189C1049.73 254.949 1056.86 257.043 1071.51 259.519C1077.79 260.566 1085.11 261.994 1087.77 262.851C1097.76 265.802 1105.37 273.799 1107.27 283.318L1108.32 288.84L1117.07 289.221C1123.92 289.506 1126.87 290.173 1131.24 292.172C1138.37 295.409 1147.69 304.358 1154.16 314.163C1162.15 326.348 1169 337.201 1169 337.867C1169 338.395 1164.86 344.946 1160.22 352.006H1150.7C1150.67 351.491 1150.61 350.94 1150.55 350.338C1149.88 344.817 1150.55 344.055 1153.31 347.102C1154.26 348.149 1155.49 349.005 1156.06 349.005C1156.64 349.005 1158.92 346.435 1161.2 343.293L1165.29 337.677L1161.2 331.965C1158.92 328.824 1156.64 326.255 1156.16 326.253C1155.59 326.158 1154.64 327.015 1153.97 328.062C1153.31 329.109 1151.98 329.966 1150.93 329.966C1149.31 329.966 1149.12 329.68 1149.98 328.157C1154.54 319.494 1144.08 303.405 1129.34 296.36C1124.2 293.981 1121.35 293.314 1115.55 293.028C1106.61 292.552 1106.7 292.458 1106.7 304.738C1106.8 316.257 1109.37 322.826 1116.21 329.68C1121.92 335.201 1125.91 336.534 1131.43 334.726C1134.95 333.583 1138.56 329.109 1138.56 326.063C1138.56 323.492 1134.19 320.16 1131.62 320.826C1128.48 321.588 1127.72 323.968 1129.62 326.919C1130.86 328.823 1130.96 329.394 1129.91 330.061C1127.72 331.489 1124.68 331.013 1122.01 328.919C1118.59 326.253 1118.59 320.255 1122.01 315.114C1123.73 312.64 1124.11 311.307 1123.35 311.116C1120.87 310.259 1115.55 304.738 1113.74 301.12C1111.55 297.027 1111.84 295.98 1114.6 297.503C1115.55 297.979 1119.92 299.787 1124.11 301.311C1135.9 305.595 1140.47 309.784 1140.47 316.162C1140.47 319.303 1142.18 319.208 1143.42 315.972C1144.65 312.64 1146.27 314.258 1146.84 319.685C1147.12 322.35 1146.74 325.206 1145.79 327.49C1143.7 332.536 1143.8 332.821 1147.51 332.821C1150.93 332.821 1158.06 335.012 1160.15 336.82C1162.25 338.534 1156.64 341.485 1149.98 342.056C1146.84 342.341 1144.27 342.912 1144.27 343.293C1144.27 343.674 1144.94 345.578 1145.7 347.387C1146.31 348.895 1146.72 350.452 1146.91 352.006H1137.43C1138.12 351.125 1138.56 350.069 1138.56 348.91C1138.56 347.768 1137.14 345.483 1135.33 343.674C1132.76 341.104 1131.34 340.438 1128.29 340.438C1123.35 340.438 1120.49 341.58 1116.5 345.103C1114.47 346.881 1112.68 349.25 1111.19 352.006H1106.82C1108.58 348.398 1110.71 344.888 1112.22 343.483C1113.46 342.341 1116.12 340.628 1118.12 339.581L1121.82 337.772L1118.02 335.868C1111.65 332.632 1107.37 326.634 1104.32 317.114C1102.71 311.783 1102.04 311.402 1100.04 314.448C1099.09 315.876 1095.38 320.16 1091.77 323.968C1088.25 327.776 1085.3 331.298 1085.3 331.774C1085.3 333.012 1088.73 336.63 1089.87 336.63C1091.2 336.63 1094.81 333.678 1094.81 332.631C1094.81 332.06 1093.67 331.87 1091.96 332.155C1088.82 332.822 1088.63 332.631 1090.06 329.87C1090.63 328.823 1092.06 328.062 1093.48 328.062C1095.38 328.062 1096.14 327.205 1097.67 323.683C1098.71 321.303 1099.95 319.684 1100.52 319.97C1101.95 320.827 1101.66 328.157 1100.04 331.299C1098.33 334.63 1098.33 334.726 1099.85 334.726C1100.61 334.726 1101.76 333.679 1102.42 332.346C1104.04 329.299 1105.28 329.299 1105.28 332.346C1105.28 334.63 1105.94 335.011 1111.46 335.868C1114.98 336.439 1113.55 338.914 1109.37 339.866C1105.94 340.628 1105.28 341.199 1105.28 343.008C1105.28 345.864 1104.7 345.769 1101.95 342.532C1099.19 339.391 1098.05 340.152 1100.04 343.864C1100.92 345.562 1101.45 349.211 1101.47 352.006H1097.59C1097.44 351.572 1097.3 351.11 1097.19 350.624C1096.71 348.72 1095.95 348.054 1094.24 348.054C1093.1 348.054 1091.39 347.101 1090.63 345.959C1088.92 343.579 1089.58 341.77 1091.58 343.389C1093.67 345.102 1095.57 343.008 1093.86 340.913C1092.34 339.104 1088.73 339.105 1086.82 341.009C1084.54 343.293 1084.92 344.436 1089.68 349.005C1090.5 349.833 1091.48 350.881 1092.49 352.006H1087.21C1082.53 347.502 1077.42 343.96 1073.13 342.342C1067.99 340.438 1060.67 339.962 1057.24 341.39C1053.44 342.913 1050.3 337.391 1053.44 334.726C1054.68 333.774 1055.72 333.679 1058.77 334.631C1069.23 337.772 1084.07 329.68 1094.34 315.21C1098.81 309.022 1102.99 300.55 1103.56 296.647C1103.94 293.695 1102.52 293.505 1096.05 295.219C1088.44 297.313 1078.64 302.644 1070.94 308.832C1062.67 315.496 1055.44 323.778 1056.2 325.682C1057.34 328.633 1069.04 328.633 1073.7 325.587C1076.55 323.683 1076.17 320.066 1073.13 319.685C1071.51 319.399 1070.75 319.875 1070.37 321.303C1069.51 324.73 1065.33 323.016 1065.33 319.304C1065.33 314.734 1072.18 312.259 1076.55 315.305C1078.45 316.638 1078.74 316.638 1079.21 315.02C1081.4 307.785 1088.06 301.216 1094.43 299.979C1099 299.217 1099.47 299.883 1096.53 303.12C1095.19 304.548 1091.48 309.403 1088.25 313.877C1077.03 329.965 1067.8 334.726 1056.77 330.347C1052.39 328.538 1051.54 328.919 1048.49 334.44L1046.5 338.058L1049.06 341.865C1051.82 345.959 1052.39 346.054 1059.72 344.15C1063.33 343.198 1064.95 343.293 1069.42 344.626C1073.21 345.759 1076.7 348.005 1080.59 352.006H1075.67C1074.62 349.739 1070.16 347.926 1064 347.863C1056.9 347.74 1054.45 348.417 1056.75 352.006H1048.83L1050.02 349.576L1047.45 345.483C1046.02 343.199 1044.4 341.39 1043.83 341.39C1043.26 341.39 1041.65 343.104 1040.22 345.293L1037.65 349.101L1039.05 352.006H1031.05C1031.68 351.101 1032.04 350.418 1032.04 350.053C1032.04 347.197 1019.29 347.006 1014.25 349.862C1013.26 350.399 1012.6 351.168 1012.31 352.006H1006.86C1009.17 349.477 1011.21 347.861 1013.68 346.435C1018.91 343.388 1027 343.008 1031.66 345.483C1034.51 347.006 1034.7 346.911 1036.51 344.912C1037.56 343.77 1039.17 341.675 1040.03 340.247C1041.65 337.772 1041.65 337.582 1038.7 333.298C1037.08 330.919 1035.37 329.015 1034.99 329.014C1034.51 329.014 1032.61 329.68 1030.8 330.441C1025.95 332.441 1022.53 332.345 1022.53 330.061C1022.53 328.728 1023.48 328.157 1026.62 327.681C1030.9 327.014 1035.75 323.397 1037.94 319.113C1038.79 317.4 1039.55 316.924 1040.51 317.495C1041.55 318.162 1041.36 319.018 1039.65 322.159L1037.56 325.968L1040.51 330.347C1042.22 332.727 1043.74 334.726 1043.93 334.726C1044.12 334.724 1045.64 332.82 1047.26 330.441L1050.3 326.063L1048.11 322.54C1046.78 320.255 1045.93 316.828 1045.55 312.544C1045.16 306.737 1045.36 305.595 1048.21 299.788C1051.25 293.695 1051.25 293.409 1049.73 291.029C1048.78 289.697 1047.26 286.746 1046.21 284.461C1045.16 282.271 1044.12 280.463 1043.83 280.463C1043.55 280.464 1042.5 282.272 1041.55 284.461C1040.5 286.746 1038.89 289.792 1037.84 291.315L1036.03 293.981L1038.89 298.55C1040.5 301.12 1041.84 304.928 1042.12 307.213L1042.5 311.402L1041.08 308.356C1040.31 306.642 1038.13 302.834 1036.22 299.883L1032.71 294.457L1034.8 290.268C1037.18 285.318 1037.27 284.08 1035.37 280.558C1031.85 273.608 1018.72 275.227 1019.87 282.462C1020.63 287.888 1027 287.031 1026.52 281.51C1026.43 279.891 1026.81 278.559 1027.28 278.559C1029.19 278.559 1032.99 283.224 1032.99 285.413C1032.99 287.603 1029 292.837 1027.28 292.838C1025.76 292.838 1026.24 295.409 1027.76 296.075C1029.76 296.837 1034.89 305.118 1034.89 307.594C1034.89 309.307 1034.32 309.688 1031.56 309.593C1028.81 309.498 1027.09 308.355 1022.43 303.786C1015.3 296.837 1013.59 293.695 1013.68 287.793C1013.68 285.318 1013.59 283.318 1013.4 283.318C1013.21 283.319 1011.4 284.176 1009.5 285.223C1005.03 287.603 1003.32 287.602 1001.22 285.317C999.607 283.604 999.511 283.604 994.851 285.508C991.046 287.126 990 287.317 988.954 286.27C987.338 284.556 995.137 277.607 1003.22 273.608C1008.64 270.943 1010.54 270.467 1016.73 270.467C1024.24 270.467 1030.99 272.371 1036.03 275.798C1039.93 278.654 1040.6 278.178 1039.93 272.847C1039.36 267.706 1041.84 260.091 1043.83 260.757C1046.31 261.518 1048.3 267.611 1047.83 272.562C1047.64 275.417 1047.83 277.607 1048.3 277.607C1048.78 277.606 1050.78 276.559 1052.77 275.227C1057.91 271.895 1067.42 269.61 1073.89 270.371C1080.64 271.133 1089.49 275.512 1095.76 281.129C1099.38 284.366 1100.33 285.698 1099.38 286.27C1097.86 287.317 1093.2 286.365 1090.44 284.651C1088.73 283.414 1088.25 283.509 1086.73 285.223C1084.54 287.603 1082.83 287.603 1078.36 285.223C1076.46 284.176 1074.75 283.32 1074.55 283.318C1074.46 283.318 1074.27 285.603 1074.27 288.459C1074.27 292.457 1073.79 294.267 1071.8 296.837C1068.47 301.216 1053.63 315.78 1053.15 315.21C1052.87 314.924 1052.68 312.83 1052.77 310.45C1052.77 305.69 1056.48 298.36 1059.62 296.647C1061.62 295.599 1062.28 292.838 1060.57 292.838C1058.77 292.838 1054.87 287.888 1054.87 285.508C1054.87 283.223 1058.67 278.559 1060.57 278.559C1061.05 278.559 1061.43 279.892 1061.33 281.51C1061.14 283.509 1061.62 284.842 1062.76 285.604C1065.33 287.222 1067.71 285.222 1067.71 281.319C1067.71 278.368 1067.33 277.987 1063.62 276.654C1059.81 275.322 1059.24 275.417 1056.01 277.131C1051.06 279.796 1050.02 284.271 1052.96 290.173L1055.06 294.457L1052.68 298.265C1050.02 302.453 1048.21 308.07 1048.21 312.068C1048.21 315.305 1050.97 322.35 1052.2 322.35C1052.68 322.35 1056.58 318.637 1060.86 314.163C1073.89 300.359 1086.06 293.029 1101.85 289.507C1104.42 288.936 1104.51 288.744 1103.94 284.937C1101.66 270.943 1086.63 262.375 1066.09 263.518C1061.33 263.708 1056.86 264.565 1054.96 265.517C1053.15 266.373 1051.54 267.135 1051.35 267.135C1050.49 267.134 1051.25 264.659 1052.77 263.041C1054.3 261.232 1054.3 261.137 1052.58 260.09C1051.63 259.519 1049.35 258.091 1047.54 256.854C1043.74 254.379 1043.83 254.378 1040.03 256.948C1038.32 258.091 1036.22 259.519 1035.27 260.09C1033.56 261.137 1033.56 261.233 1035.18 263.041C1036.6 264.659 1037.37 267.135 1036.51 267.135C1036.32 267.135 1034.7 266.373 1032.9 265.421C1028.23 263.041 1009.88 263.137 1002.55 265.517C994.851 268.087 988.954 272.751 986.006 278.653C982.677 285.412 982.677 288.841 986.196 289.507C992.189 290.84 1002.84 295.029 1008.07 298.17C1013.97 301.597 1025.38 311.4 1025.38 312.925C1025.38 314.829 1022.72 313.496 1016.35 308.356C1012.73 305.404 1006.36 301.406 1002.27 299.407C995.137 295.98 984.961 293.029 983.818 294.171C982.962 294.933 986.101 303.12 989.715 309.689C991.617 313.02 995.802 318.542 998.941 321.969C1003.41 326.633 1004.46 328.442 1003.6 329.299C1002.84 330.06 1001.13 329.013 996.849 324.73C993.615 321.588 990 317.399 988.573 315.495C985.815 311.402 984.959 311.498 983.913 315.972C982.011 324.73 974.497 334.821 968.79 336.249C965.462 337.106 965.843 337.963 970.313 339.962C974.782 342.056 979.157 346.72 978.302 348.815C978.09 349.379 978.506 350.675 979.277 352.006H976.6C972.042 344.176 966.646 340.438 959.85 340.438C955.38 340.438 950.719 344.056 949.673 348.244C949.356 349.619 949.736 350.927 950.501 352.006H940.946C941.133 350.456 941.54 348.903 942.159 347.387C942.92 345.578 943.586 343.674 943.586 343.293C943.584 342.912 941.112 342.341 938.069 342.056C931.126 341.484 925.8 339.009 927.417 337.106C928.844 335.392 936.548 332.821 940.447 332.821C944.062 332.821 944.157 332.441 942.065 327.49C941.114 325.206 940.732 322.35 941.018 319.685C941.588 314.258 943.206 312.64 944.443 315.972C945.869 319.589 947.391 319.113 947.391 315.21C947.391 309.974 951.766 305.881 960.991 302.358C965.271 300.645 970.216 298.646 971.929 297.884C973.64 297.027 975.257 296.647 975.543 296.932C977.16 298.55 968.315 309.783 964.415 311.116C963.464 311.402 963.655 312.259 965.272 314.163C968.03 317.685 969.362 322.826 968.316 325.682C966.699 329.775 961.277 332.155 957.948 330.061C956.902 329.394 956.997 328.823 958.234 326.919C960.135 323.968 959.374 321.588 956.235 320.826C952.812 319.875 948.817 324.064 949.673 327.586C951.29 334.059 958.899 337.201 965.557 334.25C976.304 329.395 983.247 313.497 981.06 299.026L980.204 293.315L972.119 293.409C965.176 293.409 963.274 293.791 958.328 296.266C950.719 299.978 942.35 307.975 939.211 314.354C937.119 318.732 936.738 320.351 937.214 324.73C937.594 328.918 937.499 329.966 936.358 329.966C935.692 329.966 934.551 329.109 933.885 328.062C933.219 327.015 932.268 326.158 931.697 326.158C931.222 326.158 928.939 328.823 926.751 331.965L922.757 337.867L926.751 343.389C928.844 346.53 931.127 349.005 931.697 349.005C932.363 349.005 933.6 348.149 934.551 347.102C937.214 344.151 937.88 344.817 937.214 349.482C937.11 350.331 937.057 351.171 937.055 352.006H927.648C919.112 338.941 917.93 336.331 919.713 335.297C920.093 335.011 924.088 329.109 928.463 322.159C938.45 306.356 947.201 296.836 955.761 292.648C961.087 289.982 963.179 289.506 970.693 289.221L979.538 288.84L980.109 284.651C980.869 278.94 983.628 273.894 988.193 269.705C994.851 263.708 998.18 262.566 1019.1 258.948C1031.75 256.854 1042.5 253.14 1042.5 250.856ZM1081.21 332.917C1079.69 333.108 1072.94 337.01 1072.94 337.677C1072.94 338.439 1080.17 342.342 1081.59 342.342C1082.16 342.342 1083.4 341.389 1084.35 340.247C1085.97 338.153 1085.97 337.963 1084.16 335.487C1083.11 333.964 1081.78 332.822 1081.21 332.917ZM1057.24 336.63C1054.87 336.63 1054.01 337.962 1055.72 338.914C1056.86 339.675 1059.62 338.629 1059.62 337.486C1059.62 337.01 1058.58 336.63 1057.24 336.63Z" fill="white" fill-opacity="0.1"/>
<path d="M958.709 344.722C963.967 343.097 967.85 346.928 968.214 352.006H959.12C959.573 350.149 958.98 348.054 957.758 348.054C956.141 348.054 956.902 345.293 958.709 344.722Z" fill="white" fill-opacity="0.1"/>
<path d="M986.389 352.006C986.403 349.178 986.621 348.95 987.813 349.959C988.416 350.462 988.782 351.214 988.93 352.006H986.389Z" fill="white" fill-opacity="0.1"/>
<path fill-rule="evenodd" clip-rule="evenodd" d="M1013.3 333.202C1014.16 332.346 1020.63 335.773 1020.63 337.106C1020.63 337.867 1021.29 338.533 1022.05 338.533C1022.81 338.533 1023.48 337.962 1023.48 337.296C1023.48 336.725 1025.67 335.488 1028.33 334.631C1033.09 333.108 1033.09 333.107 1034.99 335.487C1036.8 337.867 1036.8 337.867 1034.8 340.057C1033.09 341.865 1032.42 342.056 1029.95 341.199C1025.38 339.581 1016.63 340.818 1011.12 343.864C1007.68 345.72 1004.08 348.599 1000.66 352.006H996.007C996.908 351.224 997.747 350.615 998.751 349.957C1002.37 347.577 1003.51 346.149 1003.51 343.864C1003.51 341.961 1003.89 341.771 1005.98 342.151C1007.5 342.437 1009.4 341.865 1011.12 340.532C1012.64 339.485 1014.35 338.533 1015.01 338.533C1015.68 338.533 1015.49 337.677 1014.44 336.059C1013.59 334.726 1013.02 333.393 1013.3 333.202ZM1032.99 337.486C1032.99 336.344 1028.52 336.344 1027.85 337.486C1027.28 338.438 1030.99 339.676 1032.23 338.914C1032.61 338.629 1032.99 338.058 1032.99 337.486Z" fill="white" fill-opacity="0.1"/>
<path d="M1120.59 347.958C1121.82 345.578 1125.63 344.055 1128.67 344.816C1130.77 345.388 1132 348.053 1130.1 348.054C1128.88 348.054 1128.28 350.148 1128.74 352.006H1119.52C1119.61 350.532 1119.96 349.125 1120.59 347.958Z" fill="white" fill-opacity="0.1"/>
<path d="M987.813 343.294C988.669 341.866 989.239 342.057 991.236 344.437C993.519 347.197 993.519 348.055 991.142 348.055C989.144 348.055 986.862 344.817 987.813 343.294Z" fill="white" fill-opacity="0.1"/>
<path d="M995.611 343.864C996.848 342.722 998.655 343.294 998.18 344.722C997.799 345.483 997.228 346.149 996.848 346.149C995.707 346.149 994.851 344.626 995.611 343.864Z" fill="white" fill-opacity="0.1"/>
<path d="M983.343 329.967C984.579 329.967 986.671 334.44 986.006 335.583C985.626 336.154 985.815 337.488 986.386 338.63C987.242 340.153 987.147 340.914 985.816 342.438C983.818 344.627 982.772 344.722 982.392 342.628C982.201 341.771 980.489 340.629 978.302 340.058C973.737 338.725 973.166 336.345 977.351 335.869C980.87 335.393 982.582 334.06 982.582 331.775C982.582 330.728 982.962 329.967 983.343 329.967Z" fill="white" fill-opacity="0.1"/>
<path d="M1002.27 334.726C1003.51 334.726 1003.51 335.011 1002.55 336.153C1001.6 337.296 1001.6 337.868 1002.65 339.2C1003.32 340.247 1002.93 340.057 1001.7 338.914C1000.46 337.772 999.797 336.344 1000.08 335.773C1000.46 335.202 1001.41 334.726 1002.27 334.726Z" fill="white" fill-opacity="0.1"/>
<path d="M986.957 320.16C988.003 319.113 989.049 320.351 990.191 323.873C991.046 326.443 991.998 327.299 994.09 327.775C996.468 328.251 998.75 330.441 998.75 332.25C998.75 332.536 997.514 332.536 995.898 332.155C992.949 331.584 992.473 332.25 993.9 334.63C994.47 335.487 994.185 336.629 992.854 337.962C991.047 339.866 990.951 339.865 989.715 338.247C988.954 337.2 988.669 335.868 988.954 335.107C989.144 334.44 988.764 332.916 987.908 331.679C986.387 329.584 985.816 321.398 986.957 320.16Z" fill="white" fill-opacity="0.1"/>
<path d="M1004.17 331.584C1005.03 330.632 1007.31 330.822 1007.31 331.774C1007.31 332.25 1006.45 332.821 1005.41 333.107C1003.51 333.582 1002.93 332.822 1004.17 331.584Z" fill="white" fill-opacity="0.1"/>
<path d="M1017.68 327.109C1018.25 327.109 1018.72 327.49 1018.72 328.062C1018.72 328.538 1018.53 329.014 1018.34 329.014C1018.06 329.014 1017.58 328.537 1017.3 328.062C1017.01 327.491 1017.2 327.11 1017.68 327.109Z" fill="white" fill-opacity="0.1"/>
<path d="M989.335 300.074C988.669 298.456 995.327 300.456 999.702 303.121C1002.84 305.025 1004.65 307.024 1006.36 310.642C1008.36 314.83 1009.12 315.591 1010.64 315.115C1017.96 312.926 1021.58 314.45 1021.58 319.686C1021.58 322.541 1020.25 323.302 1019.3 320.827C1018.34 318.448 1012.64 319.4 1012.26 322.065C1011.69 325.778 1009.02 325.587 1005.41 321.589C1002.17 317.971 990.096 301.788 989.335 300.074Z" fill="white" fill-opacity="0.1"/>
<path d="M1031.18 319.495C1032.13 319.495 1032.32 320.828 1031.47 321.685C1030.52 322.541 1029.09 321.399 1029.66 320.352C1030.04 319.876 1030.61 319.495 1031.18 319.495Z" fill="white" fill-opacity="0.1"/>
<path d="M1025.38 316.543C1025.38 315.496 1027.95 315.401 1028.62 316.543C1028.9 316.924 1028.9 317.59 1028.62 317.876C1027.85 318.637 1025.38 317.59 1025.38 316.543Z" fill="white" fill-opacity="0.1"/>
<path d="M1032.04 313.689C1030.99 311.88 1031.09 311.785 1032.89 312.832C1034.99 313.879 1035.65 315.687 1033.94 315.688C1033.47 315.688 1032.61 314.831 1032.04 313.689Z" fill="white" fill-opacity="0.1"/>
<path fill-rule="evenodd" clip-rule="evenodd" d="M834.641 0C836.247 1.98241 837.771 4.05293 839.163 6.16309C847.152 18.3483 854 29.2008 854 29.8672C854 30.9146 837.641 55.7605 833.551 61.0918C828.32 67.6605 820.426 73.8491 813.958 76.3242C811.2 77.3714 805.398 78.5132 801.118 78.7988L793.224 79.3701L792.559 83.2734C791.227 91.3653 785.52 98.7907 777.436 102.789C774.868 104.027 766.307 106.216 756.226 108.12C737.774 111.547 734.731 112.5 731.497 115.546C729.69 117.259 729.024 117.354 727.692 116.402C722.937 112.88 715.613 110.5 704.2 108.596C688.317 106.025 682.42 104.407 676.713 100.694C671.006 97.0768 666.06 89.7465 665.204 83.5586L664.538 79.085L658.642 78.9893C655.503 78.9893 650.937 78.4179 648.56 77.8467C644.946 76.8948 644.28 76.3239 644.09 74.1348C643.9 71.6596 643.994 71.6595 647.133 72.9922C648.94 73.6586 653.315 74.6099 656.834 74.8955C662.255 75.3715 663.588 75.277 664.634 73.9443C666.251 72.0405 667.392 52.6213 666.061 51.5723C665.585 51.2867 664.253 49.002 663.017 46.6221C658.166 37.0072 652.364 32.4376 644.851 32.4375C640.38 32.4375 635.72 36.0554 634.674 40.2441C633.533 45.1943 641.426 49.2872 643.804 44.9082C644.755 42.909 644.184 40.0537 642.758 40.0537C641.141 40.0537 641.902 37.2929 643.709 36.7217C651.413 34.3417 656.168 43.6713 651.223 51.4775L649.13 54.8096L648.654 52.0488C648.274 50.5257 647.608 49.0976 646.942 48.9072C645.516 48.4317 644.47 51.9538 645.136 54.8096C645.896 57.7602 644.185 58.7119 642.663 56.2373C641.332 54.0479 639.049 53.6668 639.049 55.5703C639.049 56.2367 640.57 58.6171 642.473 60.8066C646.277 65.2809 645.23 65.9472 639.714 62.6152C635.339 59.9497 632.391 55.7605 632.391 52.2383C632.39 48.4308 630.584 48.0506 629.348 51.668L628.206 54.8096L627.064 51.9531C625.352 48.05 625.447 43.5754 627.159 39.3867C627.92 37.5787 628.585 35.6758 628.586 35.2939C628.586 34.9132 626.114 34.3413 623.07 34.0557C616.127 33.4845 610.8 31.0094 612.417 29.1055C613.844 27.3919 621.548 24.8214 625.447 24.8213C629.061 24.8213 629.157 24.4405 627.064 19.4902C626.113 17.2056 625.733 14.3499 626.019 11.6846C626.589 6.25827 628.206 4.63974 629.442 7.97168C630.869 11.5891 632.391 11.113 632.391 7.20996C632.391 4.53276 633.536 2.15622 635.888 0H653.613C652.05 1.54377 650.531 2.73495 649.416 3.11621C648.465 3.40181 648.655 4.25912 650.271 6.16309C653.03 9.68533 654.362 14.8257 653.315 17.6816C651.699 21.7752 646.277 24.1549 642.948 22.0605C641.902 21.3942 641.997 20.8229 643.233 18.9189C645.135 15.968 644.375 13.5888 641.236 12.8271C637.812 11.8752 633.818 16.0636 634.674 19.5859C636.291 26.0591 643.899 29.2008 650.557 26.25C659.1 22.3904 665.239 11.5518 666.299 0H673.817C674.113 0.570228 674.411 1.13578 674.715 1.68848C676.617 5.02041 680.803 10.5416 683.941 13.9688C688.412 18.6335 689.458 20.443 688.602 21.2998C687.841 22.061 686.128 21.013 681.849 16.7295C678.615 13.588 675.001 9.39905 673.574 7.49512C670.816 3.40177 669.959 3.49742 668.913 7.97168C667.011 16.7298 659.498 26.8209 653.791 28.249C650.462 29.1058 650.842 29.9628 655.312 31.9619C659.783 34.0563 664.158 38.7211 663.302 40.8154C663.017 41.5774 663.873 43.6715 665.204 45.3848C666.536 47.1935 668.343 50.1449 669.104 52.0488L670.53 55.4756L674.525 50.9062C679.471 45.1944 680.993 43.7658 683.751 41.957C687.365 39.5772 688.507 38.149 688.507 35.8643C688.507 33.9607 688.887 33.7706 690.979 34.1514C692.501 34.4368 694.403 33.8657 696.115 32.5332C697.637 31.4861 699.349 30.5334 700.015 30.5332C700.68 30.5332 700.49 29.6768 699.444 28.0586C698.588 26.7258 698.017 25.3925 698.303 25.2021C699.159 24.3457 705.626 27.7727 705.626 29.1055C705.626 29.8669 706.292 30.533 707.053 30.5332C707.814 30.5332 708.479 29.9623 708.479 29.2959C708.48 28.7247 710.667 27.4876 713.33 26.6309C718.086 25.1077 718.086 25.1073 719.988 27.4873C721.795 29.8672 721.795 29.8671 719.798 32.0566C718.086 33.8654 717.42 34.056 714.947 33.1992C710.382 31.5809 701.632 32.818 696.115 35.8643C684.321 42.2425 670.435 60.7118 669.294 71.1836C669.009 73.5632 669.294 73.8491 671.387 73.5635C680.042 72.5162 693.262 65.9473 702.393 58.2363C709.145 52.5246 717.039 43.7668 717.04 42.0527C717.04 39.1968 704.295 39.0064 699.254 41.8623C696.781 43.1951 696.401 45.9554 698.493 47.6689C699.634 48.6209 700.205 48.6209 701.347 47.6689C702.107 47.0026 702.773 45.8607 702.773 45.1943C702.773 43.1953 705.436 43.5758 706.577 45.6699C707.909 48.3355 707.814 49.288 705.626 51.4775C703.628 53.4764 697.637 54.1422 696.591 52.4287C695.64 50.8109 693.262 51.382 693.262 53.1904C693.262 55.856 688.221 62.33 684.321 64.71C680.612 66.9946 674.239 68.4221 674.239 66.9941C674.24 66.4228 675.096 65.2804 676.237 64.2334C677.284 63.2809 680.517 59.1878 683.37 55.0947C690.503 44.9085 693.738 41.2905 698.684 38.4346C703.915 35.3885 711.999 35.0083 716.659 37.4834C719.512 39.0065 719.703 38.911 721.51 36.9121C722.556 35.7697 724.173 33.675 725.029 32.2471C726.646 29.772 726.646 29.5817 723.697 25.2979C722.08 22.918 720.369 21.0139 719.988 21.0137C719.513 21.0137 717.611 21.6799 715.804 22.4414C710.953 24.4406 707.528 24.3453 707.528 22.0605C707.528 20.7281 708.48 20.1566 711.618 19.6807C715.898 19.0143 720.749 15.3971 722.937 11.1133C723.793 9.39971 724.554 8.92393 725.505 9.49512C726.551 10.1615 726.36 11.018 724.648 14.1592L722.557 17.9678L725.505 22.3467C727.217 24.7265 728.739 26.7256 728.929 26.7256C729.119 26.7254 730.641 24.8212 732.258 22.4414L735.301 18.0625L733.113 14.54C731.782 12.2553 730.926 8.82769 730.546 4.54395C730.421 2.63602 730.358 1.23174 730.431 0H733.696C733.381 1.45042 733.209 2.83618 733.209 4.06836C733.209 7.3049 735.967 14.3487 737.203 14.3496C737.679 14.3496 741.578 10.6373 745.858 6.16309C747.952 3.94487 750.025 1.89494 752.094 0H756.997C756.641 0.275686 756.288 0.552632 755.94 0.832031C747.666 7.49582 740.438 15.7776 741.198 17.6816C742.34 20.6327 754.038 20.633 758.698 17.5869C761.552 15.683 761.171 12.0654 758.128 11.6846C756.511 11.399 755.75 11.8748 755.369 13.3027C754.513 16.7296 750.329 15.0162 750.329 11.3037C750.329 6.7342 757.177 4.25932 761.552 7.30566C763.454 8.63832 763.739 8.63786 764.215 7.01953C764.965 4.5386 766.241 2.13614 767.851 0H777.611C776.233 1.80965 774.694 3.88066 773.251 5.87695C762.028 21.9655 752.801 26.7258 741.769 22.3467C737.393 20.5379 736.538 20.919 733.494 26.4404L731.497 30.0576L734.064 33.8652C736.823 37.9587 737.394 38.0543 744.717 36.1504C748.331 35.1984 749.949 35.2932 754.419 36.626C760.791 38.53 766.308 43.5764 774.297 54.8096C777.245 58.9982 780.575 63.3767 781.716 64.6143C784.284 67.375 783.713 68.0419 779.433 67.2803C774.677 66.3282 768.304 61.1876 765.736 56.2373C763.454 51.763 762.313 50.7156 761.267 52.334C760.411 53.8572 754.799 53.572 752.421 51.8584C750.138 50.2401 749.663 46.8127 751.47 45.0039C752.992 43.4807 755.084 43.576 755.084 45.1943C755.084 45.8607 755.75 47.0026 756.511 47.6689C757.652 48.6209 758.223 48.6209 759.364 47.6689C763.739 44.0514 758.318 39.9585 748.997 39.8633C738.059 39.6729 738.155 41.3863 749.663 52.7148C761.647 64.5192 773.821 71.4684 785.044 73.0869C789.419 73.6581 789.515 73.6583 788.944 71.374C787.518 66.3286 780.669 53.5723 776.96 49.0977C771.253 42.2434 763.93 36.5314 758.128 34.3418C752.992 32.4378 745.668 31.9617 742.244 33.3896C738.44 34.9126 735.301 29.3912 738.439 26.7256C739.676 25.7736 740.722 25.679 743.766 26.6309C754.228 29.7724 769.066 21.6801 779.338 7.20996C780.938 4.99508 782.499 2.48598 783.873 0H791.805C792.345 9.55251 795.039 15.5001 801.213 21.6797C806.919 27.2011 810.914 28.5342 816.431 26.7256C819.95 25.5832 823.564 21.1088 823.564 18.0625C823.564 15.4922 819.189 12.1608 816.621 12.8271C813.483 13.5888 812.722 15.968 814.624 18.9189C815.86 20.8229 815.955 21.3942 814.909 22.0605C812.722 23.4885 809.678 23.0133 807.015 20.9189C803.591 18.2535 803.591 12.2558 807.015 7.11523C808.727 4.64011 809.108 3.30663 808.347 3.11621C807.296 2.75217 805.732 1.54445 804.14 0H821.762C824.34 2.36744 825.467 4.99445 825.467 8.16211C825.467 11.3035 827.179 11.2083 828.415 7.97168C829.651 4.63974 831.268 6.25827 831.839 11.6846C832.124 14.3499 831.744 17.2056 830.793 19.4902C828.701 24.5357 828.796 24.8213 832.505 24.8213C835.929 24.8213 843.062 27.0116 845.154 28.8203C847.247 30.5339 841.635 33.4845 834.978 34.0557C831.839 34.3413 829.271 34.9132 829.271 35.2939C829.272 35.6758 829.938 37.5787 830.698 39.3867C832.41 43.5754 832.505 48.1452 830.793 51.9531C829.461 54.9043 829.367 54.8087 827.845 50.0488C827.084 47.3836 825.467 48.6218 825.467 51.8584C825.467 57.8557 819.664 62.6151 807.49 66.8037C804.637 67.8509 801.213 69.279 799.977 70.1357C798.74 70.9925 797.504 71.3734 797.219 71.0879C795.507 69.4696 804.161 57.1906 807.015 57.1895C809.392 57.1895 809.392 55.1899 807.015 52.334C804.352 49.1924 803.686 43.4803 805.588 39.958C806.824 37.5781 810.629 36.0548 813.673 36.8164C815.765 37.3876 817.002 40.0536 815.1 40.0537C813.673 40.0537 813.103 42.909 814.054 44.9082C816.146 48.7161 823.564 45.6701 823.564 40.9102C823.564 39.7678 822.138 37.4826 820.331 35.6738C817.763 33.1035 816.336 32.4375 813.292 32.4375C808.346 32.4376 805.494 33.5804 801.499 37.1025C794.556 43.1952 790.371 56.2369 791.607 67.9463C792.273 73.8486 792.558 74.42 794.841 74.9912C798.835 75.9432 810.058 73.5633 815.955 70.4219C823.469 66.4236 830.793 59.0931 833.741 52.7148C835.739 48.3357 836.024 46.6218 835.549 42.3379C834.883 36.8166 835.548 36.0553 838.307 39.1016C839.258 40.1484 840.494 41.0045 841.064 41.0049C841.635 41.0049 843.919 38.4354 846.201 35.2939L850.291 29.6768L846.201 23.9648C843.919 20.8237 841.636 18.2535 841.16 18.2529C840.59 18.1577 839.638 19.0145 838.973 20.0615C838.307 21.1087 836.975 21.9658 835.929 21.9658C834.312 21.9658 834.122 21.6801 834.978 20.1572C837.73 14.934 835.019 7.01216 829.201 0H834.641ZM720.939 45.3848C720.464 45.0992 717.705 47.5738 714.757 51.001C703.439 63.8527 688.602 73.4684 674.811 76.8955C669.104 78.2283 668.533 78.6088 668.533 80.8936C668.533 84.416 672.528 92.4127 675.762 95.459C679.661 99.0764 687.936 102.598 695.354 103.836C703.249 105.074 715.613 103.836 719.228 101.456C722.366 99.3619 722.746 101.266 719.798 104.407L717.896 106.502L723.317 109.453L728.834 112.404L733.874 109.834C739.295 106.978 739.676 106.406 737.488 104.217C736.728 103.36 736.062 102.122 736.062 101.266C736.063 100.028 736.443 100.028 738.63 101.456C742.054 103.741 753.087 104.883 761.646 103.741C769.446 102.789 776.674 99.8377 781.62 95.7441C785.234 92.6978 789.324 84.7015 789.324 80.8936C789.324 78.704 788.849 78.2274 785.9 77.6562C770.968 74.8955 753.943 63.7579 740.913 48.3359C737.299 43.9568 735.967 44.528 734.16 51.0967C732.638 56.4278 733.875 62.9015 737.584 68.8037L740.057 72.7061L738.06 76.8955C735.302 82.5119 735.492 85.3674 738.82 88.6992C741.769 91.6504 745.288 92.2224 749.854 90.5088C752.707 89.4616 753.563 87.5573 752.802 84.416C751.565 79.2754 744.908 80.7029 746.049 85.9385C746.62 88.128 746.334 88.6045 744.717 88.6045C742.434 88.6041 739.866 85.177 739.866 82.1309C739.866 80.7981 741.293 78.418 743.29 76.4189L746.619 73.0869L743.101 69.4697C740.818 67.185 739.201 64.2333 738.345 61.0918C737.299 56.9984 737.394 52.4287 738.535 52.4287C738.729 52.4319 743.007 56.334 747.855 61.0918C757.652 70.5164 760.41 75.2768 759.364 80.7031C758.699 84.2252 759.935 84.7965 763.073 82.417C765.736 80.4178 770.968 80.6083 772.109 82.6074C772.965 84.2253 773.156 84.2255 775.818 82.6074C777.435 81.7507 780.288 80.9884 782.381 80.9883L785.995 81.084L780.765 85.9385C777.911 88.604 772.775 92.1268 769.351 93.7451C763.929 96.3153 762.122 96.6963 755.084 96.6963C746.905 96.6963 745.858 96.3156 733.019 89.7471C732.638 89.5567 732.543 91.6508 732.924 94.3164C733.304 97.8385 733.018 100.123 731.782 102.884C729.69 107.549 728.358 107.644 726.075 103.455C724.744 100.98 724.458 99.0761 724.934 94.8877C725.219 91.8414 725.219 89.5567 724.839 89.7471C712.57 96.2204 710.858 96.6963 702.773 96.6963C695.545 96.6963 693.928 96.3159 688.411 93.6504C682.324 90.6042 673.29 83.5598 673.289 81.8457C673.289 80.5129 678.235 80.8938 681.278 82.417C683.751 83.7495 684.227 83.7496 685.653 82.417C687.651 80.6082 692.311 80.6082 694.784 82.417C697.732 84.6061 699.254 84.2253 698.588 81.4648C697.256 76.1337 699.634 71.6589 709.146 61.8535C714.185 56.6191 718.654 52.4309 719.132 52.4287C720.463 52.4287 719.988 60.9971 718.371 64.1387C717.515 65.8522 715.613 68.5174 713.996 70.1357L711.238 73.0869L714.566 76.4189C716.564 78.418 717.991 80.7981 717.991 82.1309C717.991 85.177 715.423 88.6041 713.141 88.6045C711.524 88.6045 711.238 88.128 711.809 85.9385C712.949 80.7029 706.292 79.2755 705.056 84.416C704.295 87.5574 705.151 89.4616 708.004 90.5088C717.515 94.1263 724.269 86.7953 719.894 77.6562L717.801 73.373L721.225 66.6133C725.029 59.0929 725.504 54.7142 723.222 49.2881C722.461 47.3844 721.415 45.6707 720.939 45.3848ZM728.834 33.3896C728.263 33.3896 726.646 35.1034 725.22 37.293L722.651 41.1006L725.029 46.0508C729.119 54.0474 728.168 63.8532 722.842 70.6123L720.844 73.1826L724.173 78.7041C725.98 81.7503 727.502 84.7964 727.502 85.4629C727.502 88.0332 729.404 86.51 731.592 82.1309C732.828 79.6557 734.445 76.7044 735.206 75.4668C736.347 73.6584 736.347 73.0871 735.111 71.1836C729.5 62.4253 728.644 54.1427 732.733 46.2412L735.016 41.5762L732.448 37.4834C731.022 35.1992 729.405 33.3905 728.834 33.3896ZM789.324 9.11426C787.707 3.78316 787.041 3.40189 785.044 6.44824C784.093 7.87626 780.384 12.16 776.77 15.9678C773.251 19.7755 770.302 23.2982 770.302 23.7744C770.302 25.0119 773.726 28.6294 774.867 28.6299C776.199 28.6299 779.813 25.678 779.813 24.6309C779.813 24.06 778.672 23.8698 776.96 24.1553C773.821 24.8217 773.631 24.6309 775.058 21.8701C775.628 20.8231 777.055 20.0616 778.481 20.0615C780.384 20.0615 781.145 19.2049 782.667 15.6826C783.713 13.3032 784.949 11.685 785.52 11.9697C786.946 12.8265 786.661 20.1573 785.044 23.2988C783.332 26.6303 783.333 26.7256 784.854 26.7256C785.615 26.7252 786.756 25.6782 787.422 24.3457C789.039 21.2994 790.275 21.2994 790.275 24.3457C790.275 26.6304 790.942 27.0114 796.458 27.8682C799.977 28.4395 798.55 30.9142 794.365 31.8662C790.941 32.6278 790.275 33.1991 790.275 35.0078C790.275 37.8637 789.704 37.7689 786.946 34.5322C784.188 31.3908 783.047 32.1519 785.044 35.8643C786.566 38.8152 787.042 47.668 785.615 47.6689C784.379 47.6689 782.857 45.575 782.191 42.624C781.716 40.7201 780.954 40.0537 779.242 40.0537C778.101 40.0535 776.389 39.1012 775.628 37.959C773.916 35.5792 774.582 33.7706 776.579 35.3887C778.672 37.1022 780.574 35.0074 778.862 32.9131C777.34 31.1045 773.726 31.105 771.824 33.0088C769.542 35.2935 769.922 36.4357 774.677 41.0049C777.054 43.3847 780.669 47.5737 782.856 50.2393C784.948 52.9994 787.041 55.2841 787.422 55.2852C787.802 55.2852 788.469 53.8574 788.754 52.0488C789.61 47.6697 794.461 38.0537 797.219 35.4834C798.455 34.3411 801.118 32.6282 803.115 31.5811L806.825 29.7715L803.021 27.8682C796.648 24.6315 792.368 18.6339 789.324 9.11426ZM766.212 24.917C764.689 25.108 757.938 29.0104 757.938 29.6768C757.938 30.4383 765.166 34.3418 766.593 34.3418C767.163 34.3418 768.4 33.3894 769.351 32.2471C770.967 30.1528 770.968 29.9622 769.161 27.4873C768.115 25.9641 766.783 24.8218 766.212 24.917ZM742.244 28.6299C739.866 28.6299 739.011 29.9621 740.723 30.9141C741.864 31.6756 744.622 30.6287 744.622 29.4863C744.622 29.0104 743.576 28.6299 742.244 28.6299ZM717.991 29.4863C717.991 28.344 713.52 28.344 712.854 29.4863C712.284 30.4383 715.994 31.6756 717.23 30.9141C717.611 30.6284 717.991 30.0573 717.991 29.4863Z" fill="white" fill-opacity="0.1"/>
<path d="M633.912 68.6133C634.958 68.6135 637.051 69.8515 638.572 71.4697C642.186 75.2776 639.618 75.2776 635.243 71.4697C632.39 69.0899 632.2 68.7085 633.912 68.6133Z" fill="white" fill-opacity="0.1"/>
<path d="M648.56 61.7588C648.56 60.426 651.318 60.9023 655.122 62.9014C657.595 64.1389 659.212 65.7568 659.878 67.7559C660.449 69.4694 660.829 70.9932 660.639 71.1836C660.447 71.373 658.26 70.4215 655.788 68.9941C651.793 66.7094 648.56 63.5676 648.56 61.7588Z" fill="white" fill-opacity="0.1"/>
<path d="M628.572 0C626.722 2.15524 625.204 4.33536 624.211 6.35352C622.119 10.7323 621.738 12.3507 622.214 16.7295C622.594 20.9182 622.499 21.9658 621.357 21.9658C620.692 21.9655 619.55 21.1085 618.885 20.0615C618.219 19.0144 617.268 18.1582 616.697 18.1582C616.221 18.1586 613.939 20.8236 611.752 23.9648L607.757 29.8672L611.752 35.3887C613.844 38.5299 616.126 41.0046 616.697 41.0049C617.363 41.0049 618.6 40.1487 619.551 39.1016C622.214 36.1504 622.88 36.8167 622.214 41.4814C621.453 47.6693 623.355 53.3815 628.682 59.9502C633.817 66.3279 634.293 67.661 631.535 67.6611C629.062 67.6611 623.831 61.0918 612.988 44.5273C604.144 31.0102 602.906 28.3442 604.713 27.2969C605.093 27.0113 609.089 21.1087 613.464 14.1592C616.912 8.70359 620.212 3.99709 623.408 0H628.572Z" fill="white" fill-opacity="0.1"/>
<path d="M671.387 44.3389C671.387 41.1973 671.577 40.9118 672.813 41.959C674.525 43.3872 674.335 46.8141 672.623 47.4805C671.767 47.6709 671.387 46.7186 671.387 44.3389Z" fill="white" fill-opacity="0.1"/>
<path d="M672.812 35.2939C673.668 33.8662 674.239 34.057 676.236 36.4365C678.519 39.1973 678.519 40.0547 676.142 40.0547C674.144 40.0546 671.861 36.8171 672.812 35.2939Z" fill="white" fill-opacity="0.1"/>
<path d="M680.611 35.8643C681.848 34.7219 683.655 35.2937 683.18 36.7217C682.799 37.4832 682.228 38.1494 681.848 38.1494C680.707 38.149 679.851 36.6257 680.611 35.8643Z" fill="white" fill-opacity="0.1"/>
<path d="M668.343 21.9668C669.579 21.9668 671.672 26.4416 671.006 27.584C670.626 28.1554 670.816 29.4877 671.387 30.6299C672.243 32.153 672.147 32.9144 670.815 34.4375C668.818 36.6271 667.772 36.7223 667.392 34.6279C667.201 33.7712 665.489 32.6287 663.302 32.0576C658.737 30.7249 658.166 28.3452 662.351 27.8691C665.87 27.3932 667.582 26.0601 667.582 23.7754C667.582 22.7284 667.962 21.9669 668.343 21.9668Z" fill="white" fill-opacity="0.1"/>
<path d="M687.27 26.7256C688.506 26.7256 688.506 27.0111 687.555 28.1533C686.604 29.2957 686.604 29.8674 687.65 31.2002C688.316 32.2471 687.936 32.0563 686.699 30.9141C685.463 29.7719 684.797 28.3449 685.082 27.7734C685.462 27.2022 686.414 26.7256 687.27 26.7256Z" fill="white" fill-opacity="0.1"/>
<path d="M671.957 12.1602C673.003 11.113 674.049 12.3507 675.19 15.873C676.046 18.443 676.998 19.2994 679.09 19.7754C681.468 20.2514 683.751 22.4413 683.751 24.25C683.751 24.5356 682.514 24.536 680.897 24.1553C677.949 23.5841 677.474 24.2499 678.9 26.6299C679.471 27.4867 679.185 28.6291 677.854 29.9619C676.047 31.8657 675.951 31.8663 674.715 30.248C673.954 29.2011 673.669 27.8681 673.954 27.1064C674.144 26.4401 673.764 24.9163 672.908 23.6787C671.386 21.5843 670.816 13.398 671.957 12.1602Z" fill="white" fill-opacity="0.1"/>
<path d="M689.171 23.584C690.027 22.632 692.31 22.8224 692.31 23.7744C692.309 24.2503 691.453 24.8209 690.407 25.1064C688.505 25.5823 687.935 24.8213 689.171 23.584Z" fill="white" fill-opacity="0.1"/>
<path d="M702.678 19.1094C703.248 19.1095 703.724 19.4905 703.724 20.0615C703.724 20.5375 703.533 21.0137 703.343 21.0137C703.057 21.0132 702.582 20.5373 702.297 20.0615C702.012 19.4904 702.202 19.1094 702.678 19.1094Z" fill="white" fill-opacity="0.1"/>
<path d="M689.902 0C690.412 0.780088 690.89 1.64948 691.359 2.6416C693.357 6.83026 694.118 7.59121 695.64 7.11523C702.963 4.92567 706.577 6.44965 706.577 11.6855C706.577 14.5412 705.246 15.3022 704.295 12.8271C703.343 10.4476 697.637 11.4 697.257 14.0654C696.686 17.7779 694.023 17.587 690.409 13.5889C688.547 11.5056 683.751 5.25463 679.873 0H689.902Z" fill="white" fill-opacity="0.1"/>
<path d="M716.183 11.4951C717.134 11.4951 717.324 12.8278 716.469 13.6846C715.518 14.5412 714.091 13.3996 714.661 12.3525C715.041 11.8767 715.612 11.4953 716.183 11.4951Z" fill="white" fill-opacity="0.1"/>
<path d="M710.382 8.54297C710.382 7.49581 712.949 7.40066 713.615 8.54297C713.901 8.92376 713.901 9.59038 713.615 9.87598C712.854 10.6372 710.382 9.59005 710.382 8.54297Z" fill="white" fill-opacity="0.1"/>
<path d="M717.039 5.68848C715.993 3.87986 716.088 3.78502 717.895 4.83203C719.987 5.87918 720.653 7.68737 718.941 7.6875C718.466 7.6875 717.61 6.83085 717.039 5.68848Z" fill="white" fill-opacity="0.1"/>
<path d="M746.282 0C742.146 4.06474 738.39 7.49276 738.154 7.20996C737.869 6.92397 737.679 4.82982 737.774 2.4502C737.774 1.68816 737.869 0.860194 738.042 0H746.282Z" fill="white" fill-opacity="0.1"/>
<path d="M705.92 0C708.523 2.34759 710.381 4.30978 710.382 4.9248C710.382 6.82877 707.719 5.49615 701.347 0.355469C701.203 0.237925 701.053 0.120674 700.9 0H705.92Z" fill="white" fill-opacity="0.1"/>
<path d="M727.502 3.40234L726.075 0.355469C726.026 0.245344 725.971 0.126637 725.911 0H727.192L727.502 3.40234Z" fill="white" fill-opacity="0.1"/>
<path d="M719.878 0C719.779 1.36841 719.09 1.68088 716.564 1.59375C715.006 1.53998 713.782 1.15105 712.172 0H719.878Z" fill="white" fill-opacity="0.1"/>
<path fill-rule="evenodd" clip-rule="evenodd" d="M4.69434 0.00585938C4.37975 1.4541 4.20899 2.83787 4.20898 4.06836C4.20898 7.30491 6.96657 14.3488 8.20312 14.3496C8.67867 14.3496 12.5785 10.6373 16.8584 6.16309C18.9501 3.94724 21.0209 1.89911 23.0869 0.00585938H27.9893C27.6359 0.279585 27.2858 0.554648 26.9404 0.832031C18.6659 7.49584 11.4375 15.7776 12.1982 17.6816C13.3396 20.6327 25.0376 20.633 29.6982 17.5869C32.5515 15.683 32.1714 12.0654 29.1279 11.6846C27.511 11.399 26.7496 11.8748 26.3691 13.3027C25.5131 16.7296 21.3293 15.0162 21.3291 11.3037C21.3291 6.73419 28.1766 4.25932 32.5518 7.30566C34.4538 8.63832 34.7393 8.63785 35.2148 7.01953C35.9643 4.54077 37.239 2.1406 38.8467 0.00585938H48.6074C47.2298 1.81419 45.6923 3.88272 44.251 5.87695C33.0278 21.9655 23.8015 26.7258 12.7686 22.3467C8.39348 20.5379 7.53769 20.919 4.49414 26.4404L2.49707 30.0576L5.06445 33.8652C7.82264 37.9587 8.39356 38.0543 15.7168 36.1504C19.331 35.1984 20.9487 35.2932 25.4189 36.626C31.7913 38.53 37.3077 43.5764 45.2969 54.8096C48.2453 58.9982 51.5745 63.3767 52.7158 64.6143C55.2838 67.375 54.7126 68.0419 50.4326 67.2803C45.6771 66.3282 39.3043 61.1876 36.7363 56.2373C34.4537 51.763 33.3128 50.7157 32.2666 52.334C31.4106 53.8571 25.7987 53.5719 23.4209 51.8584C21.1383 50.2401 20.6629 46.8127 22.4697 45.0039C23.9915 43.4807 26.084 43.576 26.084 45.1943C26.0841 45.8607 26.7501 47.0026 27.5107 47.6689C28.6521 48.6209 29.2229 48.6209 30.3643 47.6689C34.7391 44.0514 29.3179 39.9585 19.9971 39.8633C9.05934 39.6729 9.15464 41.3863 20.6631 52.7148C32.6469 64.5192 44.821 71.4684 56.0439 73.0869C60.4188 73.6581 60.5149 73.6583 59.9443 71.374C58.5177 66.3286 51.6694 53.5723 47.96 49.0977C42.2533 42.2435 34.9297 36.5314 29.1279 34.3418C23.9919 32.4378 16.6681 31.9617 13.2441 33.3896C9.43982 34.9126 6.30111 29.3912 9.43945 26.7256C10.6759 25.7736 11.7223 25.679 14.7656 26.6309C25.2279 29.7724 40.0659 21.6801 50.3379 7.20996C51.9367 4.99678 53.4966 2.48997 54.8701 0.00585938H62.8057C63.3468 9.55492 66.0403 15.5013 72.2129 21.6797C77.9194 27.2011 81.9144 28.5342 87.4307 26.7256C90.9498 25.5832 94.5645 21.1088 94.5645 18.0625C94.5644 15.4922 90.1891 12.1608 87.6211 12.8271C84.4827 13.5888 83.7221 15.968 85.624 18.9189C86.8604 20.8228 86.9553 21.3942 85.9092 22.0605C83.7216 23.4885 80.6778 23.0133 78.0146 20.9189C74.5908 18.2535 74.591 12.2558 78.0146 7.11523C79.7266 4.64012 80.1075 3.30664 79.3467 3.11621C78.2973 2.75262 76.7356 1.54754 75.1455 0.00585938H92.7676C95.3415 2.37184 96.4668 4.99696 96.4668 8.16211C96.4669 11.3035 98.1786 11.2083 99.415 7.97168C100.651 4.63974 102.268 6.25827 102.839 11.6846C103.124 14.3499 102.744 17.2056 101.793 19.4902C99.7005 24.5357 99.7955 24.8213 103.505 24.8213C106.929 24.8213 114.062 27.0116 116.154 28.8203C118.247 30.5339 112.635 33.4845 105.978 34.0557C102.839 34.3413 100.271 34.9132 100.271 35.2939C100.272 35.6758 100.937 37.5788 101.697 39.3867C103.409 43.5754 103.505 48.1452 101.793 51.9531C100.461 54.9043 100.367 54.8087 98.8447 50.0488C98.0838 47.3836 96.4668 48.6218 96.4668 51.8584C96.4665 57.8557 90.6642 62.6151 78.4902 66.8037C75.6369 67.8509 72.213 69.279 70.9766 70.1357C69.7402 70.9925 68.5042 71.3734 68.2188 71.0879C66.5068 69.4696 75.1609 57.1905 78.0146 57.1895C80.3924 57.1895 80.3924 55.1899 78.0146 52.334C75.3517 49.1924 74.6857 43.4803 76.5879 39.958C77.8243 37.5781 81.6293 36.0548 84.6729 36.8164C86.7653 37.3876 88.0017 40.0536 86.0996 40.0537C84.673 40.0537 84.1026 42.909 85.0537 44.9082C87.1462 48.7161 94.5645 45.6701 94.5645 40.9102C94.5644 39.7678 93.1382 37.4826 91.3311 35.6738C88.7631 33.1035 87.3356 32.4375 84.292 32.4375C79.3465 32.4376 76.4935 33.5804 72.499 37.1025C65.5559 43.1952 61.371 56.2369 62.6074 67.9463C63.2732 73.8486 63.5582 74.42 65.8408 74.9912C69.8354 75.9431 81.0581 73.5633 86.9551 70.4219C94.4688 66.4236 101.793 59.0931 104.741 52.7148C106.739 48.3357 107.024 46.6218 106.549 42.3379C105.883 36.8166 106.548 36.0553 109.307 39.1016C110.258 40.1485 111.494 41.0045 112.064 41.0049C112.635 41.0049 114.919 38.4354 117.201 35.2939L121.291 29.6768L117.201 23.9648C114.919 20.8237 112.636 18.2536 112.16 18.2529C111.59 18.1577 110.638 19.0145 109.973 20.0615C109.307 21.1087 107.975 21.9658 106.929 21.9658C105.312 21.9658 105.122 21.6801 105.978 20.1572C108.729 14.9355 106.02 7.01657 100.206 0.00585938H105.646C107.25 1.98647 108.773 4.05503 110.163 6.16309C118.152 18.3483 125 29.2008 125 29.8672C125 30.9146 108.641 55.7605 104.551 61.0918C99.3197 67.6605 91.4256 73.8491 84.958 76.3242C82.1997 77.3714 76.3981 78.5132 72.1182 78.7988L64.2236 79.3701L63.5586 83.2734C62.227 91.3653 56.52 98.7907 48.4355 102.789C45.8675 104.027 37.3074 106.216 27.2256 108.12C8.77413 111.547 5.73083 112.5 2.49707 115.546C1.365 116.619 0.680525 117.056 0 117V112.319L4.87402 109.834C10.2954 106.978 10.6758 106.406 8.48828 104.217C7.72751 103.36 7.0625 102.122 7.0625 101.266C7.06255 100.028 7.44263 100.028 9.62988 101.456C13.0538 103.741 24.0865 104.883 32.6465 103.741C40.4456 102.789 47.6743 99.8377 52.6201 95.7441C56.2343 92.6978 60.3241 84.7015 60.3242 80.8936C60.3242 78.704 59.8488 78.2274 56.9004 77.6562C41.968 74.8955 24.9433 63.7579 11.9131 48.3359C8.29886 43.9568 6.96727 44.528 5.16016 51.0967C3.63846 56.4277 4.87469 62.9015 8.58398 68.8037L11.0566 72.7061L9.05957 76.8955C6.30152 82.5119 6.49166 85.3674 9.82031 88.6992C12.7688 91.6504 16.2882 92.2224 20.8535 90.5088C23.7066 89.4616 24.5625 87.5573 23.8018 84.416C22.5653 79.2754 15.9079 80.7029 17.0488 85.9385C17.6195 88.128 17.3337 88.6045 15.7168 88.6045C13.4342 88.6041 10.8662 85.177 10.8662 82.1309C10.8663 80.7981 12.2928 78.418 14.29 76.4189L17.6191 73.0869L14.1006 69.4697C11.8179 67.185 10.2007 64.2333 9.34473 61.0918C8.2986 56.9984 8.39385 52.4287 9.53516 52.4287C9.72879 52.432 14.007 56.3341 18.8555 61.0918C28.6519 70.5164 31.4105 75.2768 30.3643 80.7031C29.6985 84.2252 30.9349 84.7966 34.0732 82.417C36.7364 80.4178 41.968 80.6083 43.1094 82.6074C43.9652 84.2253 44.1558 84.2255 46.8184 82.6074C48.4352 81.7507 51.2884 80.9884 53.3809 80.9883L56.9951 81.084L51.7646 85.9385C48.9113 88.604 43.7746 92.1267 40.3506 93.7451C34.9295 96.3154 33.1221 96.6963 26.084 96.6963C17.9047 96.6963 16.8583 96.3156 4.01855 89.7471C3.63811 89.5567 3.54241 91.6509 3.92285 94.3164C4.30328 97.8385 4.0185 100.123 2.78223 102.884C1.73599 105.216 0.879792 106.407 0 106.49V86.1533C0.715354 85.4397 1.62619 84.0638 2.5918 82.1309C3.82824 79.6557 5.44518 76.7044 6.20605 75.4668C7.34714 73.6584 7.34741 73.0871 6.11133 71.1836C0.499763 62.4254 -0.356387 54.1427 3.7334 46.2412L6.01562 41.5762L3.44824 37.4834C2.14291 35.393 0.676773 33.7033 0 33.4307V26.6875C0.366213 26.4117 1.77242 24.6278 3.25781 22.4414L6.30078 18.0625L4.11328 14.54C2.78182 12.2553 1.92633 8.82769 1.5459 4.54395C1.42111 2.63904 1.35875 1.2362 1.43066 0.00585938H4.69434ZM60.3242 9.11426C58.7073 3.78316 58.0413 3.4019 56.0439 6.44824C55.0928 7.87626 51.3836 12.1599 47.7695 15.9678C44.2506 19.7755 41.302 23.2982 41.3018 23.7744C41.3018 25.0119 44.7256 28.6294 45.8672 28.6299C47.1987 28.6299 50.8135 25.678 50.8135 24.6309C50.8129 24.06 49.6715 23.8698 47.96 24.1553C44.8213 24.8217 44.6309 24.6309 46.0576 21.8701C46.6284 20.8231 48.055 20.0616 49.4814 20.0615C51.3837 20.0615 52.1452 19.205 53.667 15.6826C54.713 13.3032 55.9487 11.685 56.5195 11.9697C57.9462 12.8265 57.6608 20.1573 56.0439 23.2988C54.3322 26.6304 54.3328 26.7256 55.8545 26.7256C56.6154 26.7252 57.7562 25.6782 58.4219 24.3457C60.0388 21.2994 61.2754 21.2994 61.2754 24.3457C61.2754 26.6304 61.9416 27.0114 67.458 27.8682C70.9767 28.4395 69.55 30.9143 65.3652 31.8662C61.9413 32.6278 61.2754 33.1991 61.2754 35.0078C61.2754 37.8637 60.7045 37.7689 57.9463 34.5322C55.1882 31.3908 54.047 32.1519 56.0439 35.8643C57.5656 38.8152 58.0416 47.6679 56.6152 47.6689C55.3788 47.6689 53.8572 45.575 53.1914 42.624C52.7159 40.7201 51.9542 40.0537 50.2422 40.0537C49.1009 40.0535 47.3887 39.1012 46.6279 37.959C44.9162 35.5792 45.582 33.7706 47.5791 35.3887C49.6716 37.1022 51.5743 35.0074 49.8623 32.9131C48.3405 31.1045 44.7264 31.105 42.8242 33.0088C40.5416 35.2935 40.9216 36.4357 45.6768 41.0049C48.0544 43.3847 51.6689 47.5737 53.8564 50.2393C55.9485 52.9994 58.0408 55.2842 58.4219 55.2852C58.8023 55.2852 59.4685 53.8574 59.7539 52.0488C60.6099 47.6697 65.4605 38.0538 68.2188 35.4834C69.4553 34.3411 72.1181 32.6282 74.1152 31.5811L77.8252 29.7715L74.0205 27.8682C67.6481 24.6315 63.3678 18.6339 60.3242 9.11426ZM37.2119 24.917C35.6894 25.108 28.9376 29.0104 28.9375 29.6768C28.9375 30.4383 36.1661 34.3418 37.5928 34.3418C38.1634 34.3418 39.3995 33.3894 40.3506 32.2471C41.9674 30.1528 41.9681 29.9622 40.1611 27.4873C39.1149 25.9641 37.7826 24.8218 37.2119 24.917ZM13.2441 28.6299C10.8664 28.6299 10.0107 29.9621 11.7227 30.9141C12.864 31.6756 15.6221 30.6287 15.6221 29.4863C15.622 29.0104 14.5757 28.6299 13.2441 28.6299Z" fill="white" fill-opacity="0.1"/>
<path d="M17.2764 0.00585938C13.142 4.06806 9.38964 7.49263 9.1543 7.20996C8.86902 6.924 8.67932 4.82985 8.77441 2.4502C8.77441 1.68988 8.86917 0.863969 9.04102 0.00585938H17.2764Z" fill="white" fill-opacity="0.1"/>
<path d="M1385.34 0.00585938C1382.97 2.86572 1380.19 5.51218 1378.42 6.11719C1377.46 6.40296 1377.66 7.2608 1379.27 9.16406C1382.03 12.6863 1383.36 17.8267 1382.31 20.6826C1380.7 24.7761 1375.28 27.1559 1371.95 25.0615C1370.9 24.3955 1371 23.824 1372.23 21.9209C1374.14 18.9698 1373.37 16.5897 1370.24 15.8281C1366.81 14.8771 1362.82 19.0649 1363.67 22.5869C1365.29 29.0602 1372.9 32.2017 1379.56 29.251C1388.84 25.0591 1395.28 12.6352 1395.46 0.00585938H1401.34C1402.08 1.57891 1402.88 3.1776 1403.71 4.68945C1405.62 8.02116 1409.8 13.5425 1412.94 16.9697C1417.41 21.6343 1418.46 23.444 1417.6 24.3008C1416.84 25.0619 1415.13 24.0139 1410.85 19.7305C1407.62 16.589 1404 12.401 1402.57 10.4971C1399.82 6.40395 1398.96 6.49851 1397.91 10.9727C1396.01 19.7309 1388.5 29.822 1382.79 31.25C1379.46 32.1067 1379.84 32.9641 1384.31 34.9629C1388.78 37.0573 1393.16 41.7221 1392.3 43.8164C1392.02 44.5782 1392.87 46.6725 1394.2 48.3857C1395.54 50.1944 1397.34 53.1459 1398.1 55.0498L1399.53 58.4766L1403.52 53.9072C1408.47 48.1957 1409.99 46.7666 1412.75 44.958C1416.36 42.5782 1417.51 41.1507 1417.51 38.8662C1417.51 36.9626 1417.89 36.7718 1419.98 37.1523C1421.5 37.4379 1423.4 36.8668 1425.12 35.5342C1426.64 34.4874 1428.35 33.5348 1429.01 33.5342C1429.68 33.534 1429.49 32.6778 1428.44 31.0596C1427.59 29.7276 1427.02 28.3945 1427.3 28.2031C1428.16 27.3477 1434.62 30.7736 1434.63 32.1064C1434.63 32.8678 1435.29 33.5338 1436.05 33.5342C1436.81 33.5341 1437.48 32.9632 1437.48 32.2969C1437.48 31.9063 1438.5 31.2049 1440 30.5264V35.5137C1435.33 35.2891 1429.3 36.5576 1425.12 38.8662C1413.32 45.2447 1399.44 63.7129 1398.29 74.1846C1398.01 76.564 1398.29 76.8498 1400.39 76.5645C1409.04 75.5173 1422.26 68.9482 1431.39 61.2373C1434.29 58.7865 1437.4 55.7734 1440 52.998V58.0156C1429.27 68.8406 1416.12 76.8366 1403.81 79.8965C1398.1 81.229 1397.53 81.61 1397.53 83.8945C1397.53 87.4167 1401.53 95.4133 1404.76 98.46C1408.66 102.077 1416.94 105.599 1424.35 106.837C1428.93 107.554 1435 107.438 1440 106.753V112.896C1437.91 112.437 1435.65 112.006 1433.2 111.598C1417.32 109.027 1411.42 107.408 1405.71 103.695C1400.01 100.078 1395.06 92.748 1394.2 86.5605L1393.54 82.0859L1387.64 81.9902C1384.5 81.9901 1379.94 81.4197 1377.56 80.8486C1373.95 79.8968 1373.28 79.3249 1373.09 77.1357C1372.9 74.6609 1372.99 74.6607 1376.13 75.9932C1377.94 76.6595 1382.32 77.6118 1385.83 77.8975C1391.25 78.3734 1392.59 78.2776 1393.63 76.9453C1395.25 75.0413 1396.39 55.6204 1395.06 54.5732C1394.58 54.2858 1393.25 52.0018 1392.02 49.623C1387.17 40.0083 1381.36 35.4385 1373.85 35.4385C1369.38 35.439 1364.72 39.0567 1363.67 43.2451C1362.53 48.1952 1370.43 52.2879 1372.8 47.9092C1373.75 45.9102 1373.18 43.0552 1371.76 43.0547C1370.14 43.0539 1370.9 40.2942 1372.71 39.7227C1380.41 37.3431 1385.17 46.6724 1380.22 54.4785L1378.13 57.8105L1377.65 55.0498C1377.27 53.5268 1376.61 52.0987 1375.94 51.9082C1374.52 51.4335 1373.47 54.9551 1374.13 57.8105C1374.9 60.7615 1373.18 61.7134 1371.66 59.2383C1370.33 57.0493 1368.05 56.6681 1368.05 58.5713C1368.05 59.2376 1369.57 61.6182 1371.47 63.8076C1375.28 68.2819 1374.23 68.9482 1368.71 65.6162C1364.34 62.9507 1361.39 58.7623 1361.39 55.2402C1361.39 51.4324 1359.58 51.0514 1358.35 54.6689L1357.21 57.8105L1356.06 54.9541C1354.35 51.0511 1354.45 46.5763 1356.16 42.3877C1356.92 40.5796 1357.59 38.6766 1357.59 38.2949C1357.59 37.9141 1355.11 37.3422 1352.07 37.0566C1345.13 36.4854 1339.8 34.0103 1341.42 32.1064C1342.84 30.393 1350.55 27.8226 1354.45 27.8223C1358.06 27.8223 1358.16 27.4415 1356.06 22.4912C1355.11 20.2066 1354.73 17.3508 1355.02 14.6855C1355.59 9.25956 1357.2 7.64134 1358.44 10.9727C1359.87 14.5902 1361.39 14.1141 1361.39 10.2109C1361.39 6.23278 1363.92 2.91559 1369.18 0.00585938H1385.34Z" fill="white" fill-opacity="0.1"/>
<path d="M1440 85.2344C1438.32 83.453 1434.91 83.881 1434.06 87.417C1433.29 90.5582 1434.15 92.4626 1437 93.5098C1438.04 93.9033 1439.04 94.1663 1440 94.3125V98.9961C1437.54 99.6082 1435.24 99.6973 1431.77 99.6973C1424.54 99.6972 1422.93 99.3167 1417.41 96.6514C1411.32 93.605 1402.29 86.5605 1402.29 84.8467C1402.29 83.5141 1407.23 83.8951 1410.28 85.418C1412.75 86.7506 1413.23 86.7502 1414.65 85.418C1416.65 83.6093 1421.31 83.6096 1423.78 85.418C1426.73 87.6074 1428.25 87.2264 1427.59 84.4658C1426.26 79.1349 1428.63 74.6596 1438.15 64.8545C1438.77 64.201 1439.4 63.564 1440 62.9492V85.2344Z" fill="white" fill-opacity="0.1"/>
<path d="M1362.91 71.6152C1363.96 71.6152 1366.05 72.8525 1367.57 74.4707C1371.19 78.2784 1368.62 78.2785 1364.24 74.4707C1361.39 72.0915 1361.2 71.7105 1362.91 71.6152Z" fill="white" fill-opacity="0.1"/>
<path d="M1377.56 64.7598C1377.56 63.4272 1380.32 63.9035 1384.12 65.9023C1386.59 67.1398 1388.21 68.758 1388.88 70.7568C1389.45 72.4703 1389.83 73.9941 1389.64 74.1846C1389.45 74.3738 1387.26 73.4223 1384.79 71.9951C1380.79 69.7104 1377.56 66.5684 1377.56 64.7598Z" fill="white" fill-opacity="0.1"/>
<path d="M1360.38 0.00585938C1357.26 3.07681 1354.67 6.39022 1353.21 9.35449C1351.12 13.7332 1350.74 15.3519 1351.21 19.7305C1351.59 23.9192 1351.5 24.9668 1350.36 24.9668C1349.69 24.9662 1348.55 24.1093 1347.88 23.0625C1347.22 22.0157 1346.27 21.1595 1345.7 21.1592C1345.22 21.1616 1342.94 23.8257 1340.75 26.9658L1336.76 32.8682L1340.75 38.3896C1342.84 41.53 1345.13 44.0049 1345.7 44.0068C1346.36 44.0066 1347.6 43.1493 1348.55 42.1025C1351.21 39.1514 1351.88 39.8178 1351.21 44.4824C1350.45 50.6702 1352.35 56.3827 1357.68 62.9512C1362.82 69.3294 1363.29 70.6621 1360.53 70.6621C1358.06 70.6607 1352.83 64.0911 1341.99 47.5283C1333.14 34.012 1331.91 31.3452 1333.71 30.2979C1334.09 30.0123 1338.09 24.1095 1342.46 17.1602C1346.81 10.2757 1350.93 4.58405 1354.9 0.00585938H1360.38Z" fill="white" fill-opacity="0.1"/>
<path d="M1427.68 41.4365C1431.14 39.4203 1435.86 38.572 1440 38.9463V42.8457C1435.99 42.6619 1430.99 43.3134 1428.25 44.8633C1425.78 46.196 1425.4 48.9564 1427.49 50.6699C1428.63 51.6218 1429.2 51.6216 1430.35 50.6699C1431.11 50.0036 1431.77 48.8617 1431.77 48.1953C1431.77 46.1965 1434.44 46.5771 1435.58 48.6709C1436.91 51.3364 1436.81 52.289 1434.63 54.4785C1432.63 56.4772 1426.64 57.1435 1425.59 55.4307C1424.64 53.8129 1422.26 54.3832 1422.26 56.1914C1422.26 58.8569 1417.22 65.3309 1413.32 67.7109C1409.61 69.9955 1403.24 71.423 1403.24 69.9951C1403.24 69.4238 1404.1 68.2811 1405.24 67.2344C1406.28 66.2823 1409.52 62.1891 1412.37 58.0957C1419.5 47.9101 1422.74 44.2924 1427.68 41.4365Z" fill="white" fill-opacity="0.1"/>
<path d="M1400.39 47.3398C1400.39 44.1988 1400.58 43.9132 1401.81 44.96C1403.52 46.388 1403.33 49.8151 1401.62 50.4814C1400.77 50.6708 1400.39 49.7187 1400.39 47.3398Z" fill="white" fill-opacity="0.1"/>
<path d="M1401.81 38.2959C1402.67 36.868 1403.24 37.0581 1405.24 39.4375C1407.52 42.1981 1407.52 43.0556 1405.14 43.0557C1403.14 43.055 1400.86 39.8191 1401.81 38.2959Z" fill="white" fill-opacity="0.1"/>
<path d="M1409.61 38.8652C1410.85 37.7232 1412.66 38.2948 1412.18 39.7227C1411.8 40.4842 1411.23 41.1504 1410.85 41.1504C1409.71 41.1498 1408.85 39.6268 1409.61 38.8652Z" fill="white" fill-opacity="0.1"/>
<path d="M1397.34 24.9678C1398.58 24.9686 1400.67 29.4427 1400.01 30.585C1399.63 31.1562 1399.82 32.4888 1400.39 33.6309C1401.24 35.1539 1401.15 35.9155 1399.82 37.4385C1397.82 39.6278 1396.77 39.7232 1396.39 37.6289C1396.2 36.7722 1394.49 35.6297 1392.3 35.0586C1387.74 33.7258 1387.17 31.3463 1391.35 30.8701C1394.87 30.3941 1396.58 29.0611 1396.58 26.7764C1396.58 25.73 1396.96 24.9686 1397.34 24.9678Z" fill="white" fill-opacity="0.1"/>
<path d="M1416.27 29.7266C1417.51 29.7266 1417.51 30.013 1416.55 31.1553C1415.6 32.2973 1415.6 32.8689 1416.65 34.2012C1417.32 35.2483 1416.93 35.0583 1415.7 33.916C1414.46 32.7739 1413.8 31.3457 1414.08 30.7744C1414.46 30.2034 1415.41 29.7268 1416.27 29.7266Z" fill="white" fill-opacity="0.1"/>
<path d="M1400.96 15.1611C1402 14.114 1403.05 15.3519 1404.19 18.874C1405.05 21.4439 1406 22.3013 1408.09 22.7773C1410.47 23.2533 1412.75 25.4423 1412.75 27.251C1412.75 27.5365 1411.51 27.5369 1409.9 27.1562C1406.95 26.5853 1406.47 27.2516 1407.9 29.6309C1408.47 30.4876 1408.18 31.6302 1406.85 32.9629C1405.05 34.8665 1404.95 34.867 1403.71 33.249C1402.95 32.202 1402.67 30.869 1402.95 30.1074C1403.14 29.441 1402.76 27.9173 1401.91 26.6797C1400.39 24.5844 1399.82 16.4005 1400.96 15.1611Z" fill="white" fill-opacity="0.1"/>
<path d="M1418.17 26.585C1419.03 25.633 1421.31 25.8235 1421.31 26.7754C1421.31 27.2513 1420.45 27.8228 1419.41 28.1084C1417.51 28.584 1416.93 27.8222 1418.17 26.585Z" fill="white" fill-opacity="0.1"/>
<path d="M1440 26.8076C1437.84 27.0514 1436.53 26.4779 1436.53 25.0615C1436.53 23.8211 1437.35 23.2406 1440 22.7822V26.8076Z" fill="white" fill-opacity="0.1"/>
<path d="M1431.68 22.1104C1432.25 22.1104 1432.72 22.4915 1432.72 23.0625C1432.72 23.5385 1432.53 24.0146 1432.34 24.0146C1432.06 24.0139 1431.58 23.5381 1431.3 23.0625C1431.01 22.4919 1431.2 22.1108 1431.68 22.1104Z" fill="white" fill-opacity="0.1"/>
<path d="M1416.32 0.00585938C1417.97 1.45283 1419.19 3.1695 1420.36 5.64258C1422.36 9.83067 1423.12 10.5928 1424.64 10.1172C1431.96 7.9277 1435.58 9.45075 1435.58 14.6865C1435.58 17.542 1434.25 18.3035 1433.29 15.8291C1432.34 13.4496 1426.64 14.401 1426.26 17.0664C1425.69 20.7788 1423.02 20.5881 1419.41 16.5898C1417.17 14.0886 1410.71 5.58492 1406.68 0.00585938H1416.32Z" fill="white" fill-opacity="0.1"/>
<path d="M1440 12.4854C1439.63 12.2102 1439.38 11.8776 1439.38 11.5439C1439.38 11.2159 1439.63 10.981 1440 10.8486V12.4854Z" fill="white" fill-opacity="0.1"/>
<path d="M1431.44 0.00585938C1435.7 3.52746 1439.38 7.06163 1439.38 7.92676C1439.38 9.83006 1436.72 8.49674 1430.35 3.35645C1429.08 2.32388 1427.48 1.16426 1425.75 0.00585938H1431.44Z" fill="white" fill-opacity="0.1"/>
<path d="M1440 2.08496C1439.32 1.51807 1438.56 0.833504 1437.69 0.00585938H1440V2.08496Z" fill="white" fill-opacity="0.1"/>
</svg>
