<svg width="850" height="400" viewBox="0 0 850 400" fill="none" xmlns="http://www.w3.org/2000/svg">
<rect width="850" height="400" fill="url(#paint0_linear_3158_23378)"/>
<path d="M9.88867 247C10.5486 247.002 31.1817 261.607 55.626 279.5C80.203 297.526 104.517 315.289 109.775 318.974C141.582 342.132 140.267 341.079 139.873 345.158C139.633 347.075 132.224 370.958 122.781 400H117.144C119.575 391.79 121.21 385.229 121.21 382.789C121.21 377.526 119.108 374.105 117.925 377.526C117.655 378.337 114.819 387.129 110.665 400H104.461C109.086 389.971 117.335 366.988 116.61 364.5C115.953 361.737 109.118 356.211 106.358 356.211C104.518 356.212 98.8672 362.527 98.8672 364.632C98.8673 365.685 99.7869 367.527 100.97 368.711C103.598 371.342 106.753 369.105 106.753 364.632C106.753 360.948 108.33 360.553 111.222 363.579C115.427 367.79 112.799 373.974 106.096 375.685C102.153 376.737 102.153 376.869 102.547 385.289C103.073 397.131 101.232 399.105 97.4209 390.947C95.0553 385.947 94.2672 382 94.1357 373.579C94.0043 367.658 93.6095 362.395 93.3467 362C92.9521 361.606 91.1127 363.185 89.1416 365.421C86.6446 368.447 85.9871 370.421 86.5127 372.789C87.1698 375.421 86.9068 375.816 85.1982 375.158C83.884 374.632 82.7016 372.658 82.1758 370.685C81.6501 367.922 80.5983 366.869 77.707 366.211C73.2385 365.421 72.8436 362.921 76.5234 359.5C78.4949 357.789 78.7579 356.605 77.8379 354.763C77.0495 353.447 76.5235 351.211 76.5234 349.632C76.5234 346.869 76.7867 347 80.335 350.815C82.7007 353.315 85.4616 354.895 87.5645 354.895C92.1641 354.894 91.9007 353.71 85.7236 347C82.9636 343.974 79.9413 339.499 79.2842 337.263C77.3128 330.684 76.3927 322 77.707 322C79.416 322.001 85.7243 329.764 87.1699 333.579C88.0899 336.079 88.8789 336.474 91.376 335.685C98.7359 333.185 104.124 335.816 104.124 341.868C104.124 346.473 102.153 346.736 98.8672 342.789C96.8959 340.289 96.2384 340.158 94.3984 341.605C91.6385 343.974 91.7697 346.079 94.6611 348.711C99.7869 353.448 106.753 350.421 108.593 342.789C109.775 337.789 106.49 334.763 88.2217 323.447C79.8101 318.316 72.5808 314.105 72.1865 314.105C71.5294 314.107 71.0038 322.924 69.4268 353.053L68.9014 365.026L84.6729 385.026C89.4023 391.052 93.8202 396.413 96.9873 400H87.4932C86.2478 397.907 84.8905 395.642 83.4893 393.315C76.9179 382.658 72.4495 376.605 70.3467 375.815C64.038 373.447 58.912 375.553 56.0205 381.605C54.0492 385.684 54.0493 386.342 56.0205 390.289C57.8605 393.71 58.9122 394.5 61.8037 394.105C66.798 393.579 67.5866 387 63.1182 383.579C60.4896 381.605 60.3578 381.079 62.0664 379.895C70.6094 374.237 78.4953 387.263 71.2666 395.026C67.1923 399.368 68.9012 400.815 73.8955 397.263C78.8894 393.447 79.5464 393.579 78.4951 398.315C78.3574 398.936 78.2663 399.502 78.2188 400H57.4629C57.4184 399.413 55.9942 396.693 54.3125 393.974C52.6042 391.342 50.8956 389.107 50.501 389.237C49.4496 389.369 42.7462 393.447 41.4316 394.763C41.0468 395.212 41.8854 397.636 42.9951 400H38.2754C37.4399 398.67 36.428 397.576 35.2549 396.737C33.0208 395.158 30.5239 395.553 30.5234 397.263C30.5234 397.616 30.6973 398.608 30.9932 400H26.5908C26.5442 399.704 26.4991 399.405 26.4492 399.105L24.7402 390.289L30.917 384.105C34.3342 380.684 37.0947 377.263 37.0947 376.474C37.0945 375.684 33.0201 374.368 28.1572 373.447L19.2197 371.868L15.2773 364.105C13.1745 359.763 10.8081 356.211 10.0195 356.211C9.23047 356.212 6.73349 359.764 4.36816 363.974C2.62713 367.351 1.51471 369.373 0 370.697V361.659C0.786965 360.272 1.84895 357.985 3.44824 354.5C6.07686 348.842 8.17969 343.71 8.17969 342.921C8.17977 340.026 10.6776 342.132 12.5176 346.605C19.6147 364.105 20.1399 364.894 22.1113 362.263C25.2655 357.921 24.2139 352.263 18.5625 342.789C13.8314 335.027 13.1744 333.053 13.9629 328.711L14.751 323.711H4.63086L5.28809 329.5C5.81381 334.632 5.28832 336.079 0.951172 342.395C0.619641 342.884 0.302942 343.373 0 343.858V337.95C1.90406 335.48 2.89376 332.357 2.13379 329.368C1.73147 327.684 1.10492 326.306 0 325.1V318.415L9.75684 322L32.8887 313.579C46.0317 308.842 56.2836 304.368 56.415 303.315C56.545 302.393 51.0257 296.868 44.1924 291.079C25.1349 275.026 25.9228 275.553 22.1113 276.474C13.9628 278.447 10.9405 286.606 16.3291 291.737C19.7459 294.895 20.5346 295.026 23.1631 292.395C25.7915 289.763 24.477 286.606 20.5342 285.685C17.9057 285.027 17.6433 284.5 18.8262 283.053C20.5348 280.948 25.0027 280.684 27.7627 282.395C28.8141 283.052 29.9973 286.211 30.3916 289.237C31.1801 294.763 31.3119 295.026 36.9629 295.947C40.1172 296.474 44.1916 297.922 46.1631 299.237L49.5811 301.474L44.3232 302.526C34.8604 304.237 28.6835 303.578 21.7178 300.289C17.2491 298.315 14.4886 297.658 13.9629 298.579C12.6489 300.553 17.9057 306.868 21.1914 307.263C25.6601 307.921 23.5573 310.815 18.6943 310.815C15.4087 310.815 14.0944 311.605 13.043 313.842C11.3344 317.526 8.04804 317.132 6.20801 313.053C5.15658 310.684 4.23649 310.289 0.819336 310.947C0.539533 310.995 0.266003 311.031 0 311.057V306.515C2.93546 304.548 5.55176 301.381 5.55176 299.368C5.55177 296.694 5.75632 296.383 0 299.07V293.708C2.19767 293.334 4.50529 291.299 5.68262 288.185C7.20696 284.242 4.68014 279.438 0 277.458V272.782C0.0846576 272.833 0.182115 272.88 0.293945 272.921C1.34537 273.447 3.97386 275.421 5.94531 277.526L9.62598 281.211L14.8828 276.868C17.6428 274.631 20.0088 272.263 20.0088 271.868C20.0081 271.341 17.905 269.105 15.4082 266.868C12.7797 264.631 10.2825 262.789 9.75684 262.789C9.23073 262.921 6.47123 265.027 3.58008 267.526C1.70966 269.212 0.549029 270.394 0 271.227V267.115C0.18333 266.99 0.369865 266.866 0.556641 266.737L9.75684 260.289L19.3516 266.868C26.9745 272.263 29.6031 273.447 33.2832 273.053C37.7518 272.658 37.62 272.658 24.6084 263.053C17.3798 257.921 10.677 253.579 9.49414 253.711C8.64138 253.761 4.63293 256.264 0 259.42V253.497C5.63408 249.552 9.49851 247 9.88867 247ZM46.2949 363.447C39.0662 360.947 33.1517 360.948 29.4717 363.579C23.8203 367.526 25.9233 368.973 38.4092 369.895C44.9796 370.421 50.2356 371.342 50.2373 371.868C50.2373 372.394 46.4258 375.947 41.6943 379.895C32.7574 387.263 31.8376 388.71 35.123 389.895C39.3288 391.605 44.586 388.579 52.4717 380.158C59.1746 373.053 61.541 371.342 64.6953 371.342C68.9009 371.342 68.901 371.342 67.8496 365.421C66.9296 361.079 65.3523 360.553 61.541 363.447C58.2553 365.947 53.3922 365.947 46.2949 363.447ZM122.787 334.632C110.564 325.816 106.753 323.579 106.753 325.158C106.753 328.448 111.748 334.368 119.107 339.763C123.839 343.184 127.782 346.211 127.782 346.211C127.779 346.351 126.334 351.085 124.496 356.868C121.21 367.263 121.079 376.605 124.233 375.553C124.891 375.421 126.994 371.079 128.702 366.079C130.411 360.948 132.776 354.106 133.959 350.685C135.142 347.264 135.93 344.237 135.536 343.974C135.272 343.709 129.489 339.5 122.787 334.632ZM62.5918 317C61.9346 312.526 60.7521 312.132 53.5234 314.105C51.4203 314.763 43.666 316.474 36.4375 318.185C21.3231 321.606 17.3799 324.369 17.3799 331.737C17.38 335.158 18.3 337 21.4541 339.632C26.0541 343.579 28.8144 343.842 32.8887 340.947C36.7002 338.316 36.5685 335.684 32.4941 333.053C29.4715 331.079 28.9457 331.079 25.9229 333.053C24.2148 334.237 22.3754 335.158 21.9805 335.158C20.2719 335.158 21.5857 327.395 23.6885 325.553C28.5514 321.211 35.3856 323.448 39.46 330.685C41.5628 334.5 43.0093 331.605 41.3008 327C39.4608 322 39.8548 321.342 43.666 323.315C45.9003 324.5 47.0834 324.237 50.3691 321.474C52.6032 319.632 55.2315 318.053 56.2832 318.053C58.5174 318.053 58.7809 323.184 56.5469 327.789C55.364 330.552 55.4946 331.606 57.2031 333.579C60.3575 337 60.0947 337.395 54.7061 336.737C48.5291 335.948 49.0551 338.842 55.4951 340.947C60.8837 342.658 63.2498 347.658 61.2783 353.185C60.4898 355.816 59.0437 356.999 56.5469 357.263C53.2611 357.657 52.9975 357.394 53.7861 353.315C54.5745 348.184 52.0778 345.29 47.3467 345.947C42.7466 346.605 42.4831 353.842 46.8203 358.185C51.6832 363.053 58.1236 362.657 62.7236 357.263C65.7463 353.579 66.1405 352.263 65.4834 347.132C65.0891 343.711 64.4324 336.606 64.0381 331.211C63.6438 325.816 62.9861 319.368 62.5918 317ZM119.37 342.658C112.404 338.316 112.01 338.316 112.01 342.395C112.01 344.237 110.958 347.395 109.775 349.237C108.067 351.737 107.936 352.921 108.987 353.185C109.907 353.579 112.667 355.158 115.296 357C117.925 358.711 120.159 360.158 120.422 360.158C121.211 360.157 125.153 349.763 125.153 347.921C125.153 347.131 122.524 344.763 119.37 342.658ZM39.9863 348.315C39.7235 342.658 39.7229 342.658 33.8086 344.632C31.706 345.421 29.2092 346.21 28.2891 346.474C26.712 346.868 27.3688 355.946 29.0771 357.789C30.3914 359.236 40.3793 357 40.249 355.158C40.1176 354.369 39.9863 351.21 39.9863 348.315ZM44.9805 278.974C41.9579 277.395 34.4675 276.605 34.4658 277.789C34.4658 278.184 44.9803 285.947 57.8604 295.289C108.855 332.394 106.753 331.079 102.284 322.658C100.576 319.5 92.0324 312.526 74.0264 299.368C59.832 289.105 46.8205 279.895 44.9805 278.974Z" fill="white" fill-opacity="0.05"/>
<path d="M619.888 288C620.545 288 641.18 302.605 665.626 320.5C690.204 338.526 714.518 356.289 719.776 359.974C751.582 383.132 750.268 382.079 749.873 386.158C749.768 387.001 748.275 392.091 745.833 400H741.098C742.21 396.748 743.279 393.651 743.959 391.685C745.142 388.264 745.93 385.238 745.536 384.974C745.274 384.71 739.49 380.5 732.787 375.632C720.564 366.816 716.753 364.579 716.753 366.158C716.754 369.448 721.748 375.368 729.108 380.763C733.839 384.184 737.782 387.211 737.782 387.211C737.779 387.352 736.335 392.085 734.496 397.868C734.27 398.585 734.06 399.297 733.864 400H731.247C732.666 397.238 735.153 390.384 735.153 388.921C735.152 388.131 732.524 385.763 729.37 383.658C722.405 379.316 722.01 379.316 722.01 383.395C722.01 385.237 720.959 388.395 719.776 390.237C718.067 392.737 717.936 393.921 718.988 394.185C719.908 394.58 722.668 396.158 725.296 398C726.451 398.752 727.531 399.451 728.4 400H721.869C719.841 398.425 717.653 397.211 716.359 397.211C715.546 397.211 713.991 398.443 712.506 400H687.063C688.534 398.545 688.666 397.421 687.838 395.763C687.05 394.447 686.524 392.211 686.524 390.632C686.524 387.869 686.787 388 690.335 391.815C692.701 394.315 695.461 395.894 697.564 395.895C702.164 395.895 701.901 394.711 695.724 388C692.964 384.974 689.941 380.5 689.284 378.263C687.312 371.684 686.393 363.001 687.706 363C689.415 363 695.724 370.763 697.169 374.579C698.089 377.079 698.878 377.474 701.375 376.685C708.735 374.185 714.124 376.816 714.124 382.868C714.124 387.473 712.152 387.736 708.867 383.789C706.895 381.29 706.239 381.158 704.399 382.605C701.639 384.974 701.77 387.079 704.661 389.711C709.787 394.447 716.753 391.42 718.593 383.789C719.776 378.789 716.489 375.763 698.221 364.447C689.812 359.317 682.584 355.108 682.187 355.105C681.53 355.105 681.003 363.921 679.426 394.053L679.165 400H670.979C671.583 399.494 672.168 398.915 672.724 398.263C675.746 394.579 676.141 393.263 675.484 388.132C675.089 384.711 674.432 377.606 674.037 372.211C673.643 366.816 672.986 360.368 672.592 358C671.935 353.526 670.752 353.132 663.524 355.105C661.421 355.763 653.666 357.474 646.438 359.185C631.323 362.606 627.38 365.369 627.38 372.737C627.38 376.158 628.3 378 631.454 380.632C636.054 384.579 638.815 384.842 642.889 381.947C646.7 379.316 646.569 376.684 642.494 374.053C639.472 372.079 638.946 372.079 635.923 374.053C634.215 375.237 632.374 376.158 631.98 376.158C630.272 376.158 631.586 368.395 633.689 366.553C638.552 362.211 645.386 364.448 649.46 371.685C651.563 375.5 653.009 372.605 651.3 368C649.46 363 649.855 362.342 653.666 364.315C655.901 365.5 657.084 365.237 660.369 362.474C662.604 360.632 665.232 359.053 666.284 359.053C668.518 359.053 668.78 364.184 666.546 368.789C665.363 371.552 665.495 372.605 667.203 374.579C670.358 378 670.095 378.395 664.706 377.737C658.529 376.948 659.055 379.842 665.494 381.947C670.883 383.658 673.249 388.658 671.278 394.185C670.489 396.816 669.043 398 666.546 398.263C663.26 398.657 662.998 398.394 663.786 394.315C664.575 389.184 662.077 386.289 657.346 386.947C652.746 387.605 652.483 394.843 656.821 399.185C657.111 399.476 657.409 399.747 657.71 400H633.618C634.528 396.093 632.904 391.067 628.563 383.789C623.832 376.026 623.175 374.053 623.963 369.711L624.751 364.711H614.631L615.288 370.5C615.814 375.631 615.289 377.079 610.951 383.395C606.654 389.745 604.748 395.777 605.539 400H581.505C585.086 397.234 587.112 392.684 585.323 389.185C582.168 383.527 574.019 388.132 575.465 394.711C576.254 398 575.859 398.526 573.624 398.526C572.179 398.526 570.076 397.211 569.025 395.632C564.819 389.579 567.316 384.315 575.859 381.289C581.247 379.447 579.802 376.947 574.019 377.868C569.025 378.658 568.367 377.605 572.047 374.315C574.282 372.21 574.413 371.684 572.704 368.526C570.339 363.921 570.339 359.053 572.704 359.053C573.756 359.053 576.516 360.632 578.75 362.605C582.43 365.632 583.351 365.895 585.585 364.447C589.002 362.342 589.659 363.132 587.951 367.474C585.716 373.395 587.951 374.184 592.157 369.053C594.917 365.763 597.151 364.316 599.648 364.315C604.379 364.315 609.505 369.71 608.323 373.395C607.534 376.158 605.036 377.21 605.036 374.974C605.036 372.868 600.042 371.947 597.151 373.526C593.077 375.763 594.128 381.684 598.728 383.263C605.562 385.631 613.974 377.605 612.134 370.368C610.688 364.316 606.351 362.21 587.293 357.868C577.174 355.632 568.501 353.789 568.105 353.789C566.922 353.789 565.739 364.053 564.688 381.553L563.899 396.685L567.579 399.579C567.759 399.723 567.95 399.862 568.149 400H560.102L559.562 386.289C559.168 375.237 558.642 363.79 558.247 360.632C557.853 357.606 557.196 355.106 556.67 355.237C555.75 355.369 551.018 358.263 529.859 371.815C521.71 376.815 520.921 377.868 520.921 381.815C520.921 387.473 524.207 391.947 528.282 391.947C535.641 391.947 539.321 386.553 534.59 382.605C532.75 381.158 532.092 381.289 529.99 383.921C527.098 387.342 524.864 386.553 524.864 382.079C524.864 377.605 531.173 374.316 536.035 376.158C540.636 377.869 541.95 377.868 541.95 375.763C541.95 373.262 549.442 363 551.282 363C553.384 363 551.413 375.763 548.522 381.421C547.208 383.921 544.316 387.737 542.081 389.842C535.378 396.289 541.162 398.658 548.522 392.474C553.385 388.395 554.698 389.053 552.464 394.579C551.283 397.481 551.156 398.451 552.653 400H526.576C526.406 399.855 526.23 399.713 526.047 399.579C522.761 397.079 522.367 397.079 518.424 399.185C517.886 399.463 517.384 399.733 516.919 400H512.166C512.666 399.579 513.198 399.071 513.693 398.526C515.007 397.079 516.716 395.895 517.504 395.895C518.293 395.894 519.738 395.369 520.789 394.711C522.367 393.79 522.104 392.868 519.739 389.974C518.293 388 516.978 384.973 516.978 383.263C516.978 381.552 516.584 380.105 516.058 380.105C514.086 380.238 503.836 388.131 503.835 389.447C503.835 391.101 507.079 397.381 509.044 400H505.792C505.586 399.319 505.372 398.647 505.15 398C503.704 393.658 502.521 389.316 502.521 388.132C502.521 386.948 505.807 383.789 509.881 380.895C516.321 376.421 522.236 369.579 522.236 366.553C522.236 366.027 521.841 365.632 521.316 365.632C519.607 365.763 495.424 383.658 494.898 385.237C494.711 385.866 496.639 392.782 498.837 400H493.664C489.342 386.052 488.679 382.981 489.115 382.605C490.035 381.684 553.91 334.974 596.493 304.185C608.714 295.239 619.227 288.003 619.888 288ZM618.18 383.921C618.18 381.026 620.677 383.132 622.517 387.605C624.875 393.419 626.508 397.388 627.709 400H622.461C621.373 398.296 620.456 397.211 620.02 397.211C619.582 397.211 618.619 398.306 617.443 400H611.357C611.934 398.795 612.619 397.308 613.449 395.5C616.077 389.842 618.18 384.71 618.18 383.921ZM591.631 384.711C589.528 383.921 589.265 384.711 589.265 391.026V398.263L594.916 398.789C597.918 399.181 600.53 399.314 600.568 399.315C600.699 399.184 601.094 396.421 601.619 393.132C602.539 387.079 602.54 387.079 598.202 386.289C595.837 385.894 592.814 385.237 591.631 384.711ZM649.986 389.315C649.723 383.658 649.723 383.658 643.809 385.632C641.706 386.421 639.208 387.21 638.288 387.474C636.712 387.869 637.369 396.947 639.077 398.789C640.392 400.236 650.38 398 650.249 396.158C650.118 395.369 649.986 392.21 649.986 389.315ZM590.054 318.263C585.717 318.263 576.253 324.579 537.35 353.395C530.121 358.921 524.338 366.29 525.653 368.526C526.047 369.052 529.596 366.947 533.801 363.921C537.875 360.763 552.99 349.71 567.316 339.315C581.642 328.921 593.602 319.973 593.996 319.315C594.39 318.789 592.682 318.263 590.054 318.263ZM654.981 319.974C651.958 318.395 644.468 317.605 644.466 318.789C644.466 319.184 654.981 326.947 667.861 336.289C718.855 373.394 716.753 372.079 712.285 363.658C710.576 360.5 702.033 353.526 684.027 340.368C669.833 330.106 656.822 320.896 654.981 319.974ZM609.505 318.263C607.666 317.473 605.432 316.948 604.643 317.079C602.803 317.079 573.233 342.208 572.442 344.315C572.31 344.973 574.545 346.553 577.7 347.605C580.854 348.79 591.499 352.605 601.488 356.289L619.757 363L642.889 354.579C656.032 349.842 666.283 345.368 666.414 344.315C666.545 343.394 661.025 337.868 654.192 332.079C635.135 316.027 635.923 316.553 632.112 317.474C623.963 319.447 620.94 327.606 626.328 332.737C629.745 335.895 630.534 336.026 633.162 333.395C635.791 330.763 634.477 327.606 630.535 326.685C627.906 326.027 627.643 325.5 628.826 324.053C630.534 321.947 635.003 321.684 637.763 323.395C638.814 324.052 639.998 327.211 640.392 330.237C641.18 335.763 641.312 336.026 646.963 336.947C650.118 337.474 654.192 338.922 656.163 340.237L659.58 342.474L654.324 343.526C644.861 345.237 638.683 344.579 631.717 341.289C627.249 339.316 624.489 338.658 623.963 339.579C622.649 341.553 627.906 347.868 631.192 348.263C635.66 348.921 633.557 351.815 628.695 351.815C625.409 351.815 624.094 352.605 623.042 354.842C621.334 358.526 618.048 358.132 616.208 354.053C615.157 351.684 614.237 351.289 610.82 351.947C606.22 352.737 603.328 350.368 607.271 348.921C611.082 347.605 615.551 343 615.551 340.368C615.551 337.342 615.814 337.342 607.403 341.289C603.591 343.131 598.333 344.579 595.836 344.579C589.003 344.579 581.381 343.132 581.379 341.685C581.379 340.237 587.031 337.868 593.208 336.815C597.282 336.026 597.808 335.5 598.202 331.421C598.991 324.053 603.46 320.632 609.505 323C612.397 324.053 612.134 325.763 608.98 326.553C605.431 327.474 604.248 331.158 606.614 333.658C609.242 336.29 613.843 334.053 615.683 329.185C617.26 325.106 614.5 320.105 609.505 318.263ZM619.757 303.789C619.231 303.921 616.471 306.026 613.579 308.526C609.637 312.079 608.849 313.395 610.294 313.921C611.346 314.447 613.974 316.421 615.946 318.526L619.625 322.211L624.883 317.868C627.643 315.631 630.008 313.263 630.008 312.868C630.007 312.341 627.905 310.105 625.409 307.868C622.78 305.632 620.283 303.789 619.757 303.789ZM619.494 294.711C617.26 294.843 593.344 311.812 593.339 313.263C593.208 313.921 595.048 314.315 597.151 314.315C599.911 314.315 604.248 312.079 610.557 307.737L619.757 301.289L629.352 307.868C636.975 313.263 639.604 314.447 643.284 314.053C647.752 313.658 647.62 313.658 634.609 304.053C627.381 298.922 620.678 294.58 619.494 294.711Z" fill="white" fill-opacity="0.05"/>
<path d="M464.574 0C454.987 29.3051 446.084 56.6817 443.845 63.5264L439.507 77.3418L375.5 77.4736C340.286 77.6052 311.247 77.2107 310.837 76.6846C310.443 76.0267 311.362 75.2373 312.808 74.7109C316.751 73.5267 315.962 71.8156 310.311 68.9209C306.368 66.8157 303.213 66.2898 295.722 66.6846C284.813 67.0793 284.418 66.8158 280.476 54.0527C278.373 47.2106 271.801 38.3947 270.093 39.9736C269.305 40.8962 279.425 71.4211 281.002 73C281.66 73.6579 287.705 74.4475 294.539 74.5791C301.373 74.8423 307.156 75.2366 307.551 75.3682C308.865 76.0261 293.487 77.7366 284.944 77.8682L276.139 78L262.996 37.4736C258.408 23.3251 254.384 10.9032 250.857 0H256.278C263.312 21.023 267.803 32.19 270.225 34.7109C272.196 36.816 274.036 38.2631 274.431 38C274.692 37.6003 270.486 23.5234 265.099 6.68457C264.39 4.46865 263.675 2.22911 262.963 0H287.489C297.674 4.43615 310.127 9.57811 311.23 9.5791C315.042 9.5791 320.694 5.36832 321.614 1.94727C321.797 1.26397 321.944 0.61634 322.054 0H325.485C324.792 5.62809 324.023 6.94034 321.22 9.31543C318.591 11.4205 317.934 12.6055 319.116 13.1318C320.036 13.5266 321.877 14.9735 323.191 16.4209C325.557 18.9207 325.688 18.9209 328.054 14.0527C330.157 9.84223 331.997 8.52602 339.751 5.36816C343.843 3.76284 347.165 1.94613 349.644 0H355.892L349.214 6.68457L353.025 11.4209C355.917 15.1051 357.495 16.0263 359.86 15.5C361.832 14.9738 362.752 15.3688 362.752 16.6846C362.753 19.4478 369.061 24.0528 371.558 23.1318C373.003 22.6056 373.397 22.8682 372.74 23.7891C372.215 24.7101 372.609 25.3682 373.529 25.3682C374.712 25.3678 375.237 23.6577 375.237 20.2373C375.237 17.343 375.763 14.5796 376.157 14.0527C377.866 12.3422 381.152 16.4213 381.152 20.1055C381.152 23.0001 380.1 24.4478 376.289 26.6846C371.689 29.4477 370.243 29.447 364.854 27.3418C362.883 26.4208 362.621 26.6844 363.409 29.0527C364.066 31.2892 363.672 31.9472 361.832 31.9473C360.518 31.9473 357.757 32.8683 355.654 33.9209C347.637 38.1314 343.825 35.7629 349.871 30.3682C353.945 26.684 354.077 26.5523 350.923 27.3418C341.723 29.8418 339.488 29.7106 336.597 26.0264C333.311 21.6844 333.048 18.3947 335.939 15.5C337.911 13.5263 338.306 13.6577 340.54 17.3418C343.432 22.2102 348.689 22.868 350.923 18.7891C352.105 16.5525 351.711 15.5001 348.426 12.2109C344.22 7.86883 342.248 7.4741 337.254 9.71094C333.18 11.6848 329.368 19.1843 330.683 23C331.077 24.579 333.969 28.526 337.123 31.8154C343.3 38.6575 353.946 53.3947 350.528 50.5C346.323 47.0792 348.031 51.9478 353.42 59.1846L358.678 66.0264L337.648 65.8945C326.083 65.8945 316.226 66.158 315.831 66.5527C315.437 66.9475 316.357 68.9209 317.934 70.8945L320.693 74.4473L355.129 74.1846C386.278 73.9214 389.958 73.6575 394.558 71.2891C397.317 69.8418 399.551 68.2635 399.552 67.6055C399.552 66.9476 392.455 66.2895 383.912 66.0264L368.141 65.5L363.54 61.0264C360.912 58.527 358.81 55.896 358.809 55.2373C358.809 53.5268 375.894 34.7113 378.786 33.1318C381.02 31.9476 381.152 32.2105 380.363 35.5C379.838 37.4737 376.552 43.526 373.003 48.7891C364.723 61.1575 365.249 61.9473 381.678 61.9473C388.38 61.9473 397.186 62.3419 401.129 62.8682C407.963 63.7892 408.49 63.5267 411.25 60.2373C416.244 53.79 413.878 45.1056 407.044 45.1055C402.838 45.1055 400.472 47.0789 401.129 49.8418C401.523 51.6839 402.707 52.3425 405.861 52.2109C410.592 51.9479 411.381 54.0527 407.964 57.4736C404.547 61.0263 400.078 59.9736 396.135 54.9736L392.718 50.3682L389.432 53C384.438 56.8155 380.889 56.5526 381.678 52.2109C382.466 47.869 384.832 45.1056 387.592 45.1055C388.906 45.1055 391.009 44.1845 392.455 43.1318C393.769 42.0792 396.923 41.1583 399.289 41.1582C402.706 41.1582 403.889 40.5 404.415 38.5264C404.809 36.9475 405.861 36.0261 406.649 36.2891C408.489 36.9469 415.323 32.2113 415.324 30.2373C415.324 26.4215 422.553 18.5267 429.913 14.1846C434.382 11.553 438.193 9.71076 438.587 10.1055C439.638 11.1581 433.724 21.4209 431.096 23C427.941 24.9736 427.81 27.0786 430.438 29.3154C433.724 32.0785 432.936 39.447 428.993 41.9473C424.525 44.9736 421.633 42.4737 425.182 38.5264C427.022 36.4212 427.152 35.6314 425.838 33.9209C423.472 31.0265 420.976 31.4217 418.479 35.2373C415.982 39.053 417.033 43.1314 421.238 45.8945C424.787 48.1314 431.227 47.4738 433.725 44.5791C435.433 42.3413 444.764 4.44873 443.845 3.39453C443.188 2.73664 433.33 5.36875 407.438 13.1318C400.867 15.1055 394.821 17.8681 392.718 19.8418C390.484 21.947 389.038 22.6052 389.038 21.5527C389.038 20.5001 391.141 17.7366 393.77 15.3682L398.369 10.8945L395.215 9.71094C392.319 8.58875 390.421 5.27256 389.564 0H393.36C394.763 4.51088 399.778 9.5787 403.363 9.5791C404.809 9.5791 409.409 8.00028 413.615 6.1582C416.881 4.62583 422.523 2.14275 427.59 0H452.531C449.955 7.9732 447.181 16.5562 444.37 25.2373C442.136 32.079 440.559 37.9991 440.953 38.2627C441.216 38.5258 443.187 36.9475 445.158 34.7109C447.484 32.1833 453.604 16.2381 459.089 0H464.574ZM445.29 40.5C445.027 40.2369 443.319 41.1582 441.348 42.6055C438.85 44.4476 436.878 48.2634 434.381 55.6318C431.884 63.2631 430.307 66.1582 428.729 66.1582C426.89 66.1582 426.758 65.8944 428.467 64.8418C429.518 64.1839 430.964 60.6316 431.884 57.0791L433.33 50.3682H427.679C424.656 50.3682 421.238 49.9738 420.187 49.5791C418.741 49.053 418.084 50.237 417.559 53.9209C417.164 56.6841 416.638 60.1054 416.375 61.5527C416.112 63.6579 416.901 64.3158 421.238 64.9736C426.101 65.7631 425.838 65.7632 418.872 66.0264C411.249 66.1581 400.866 70.1058 400.866 72.7373C400.872 74.3158 432.278 74.5787 434.513 73C435.301 72.4737 438.193 65.1051 440.821 56.4209C443.581 47.8683 445.553 40.7632 445.29 40.5ZM297.693 53.9209C296.773 49.316 295.722 48.1317 294.014 49.8418C293.619 50.3681 290.727 50.6318 287.836 50.6318C282.447 50.5003 282.447 50.5005 283.367 54.7109C285.339 64.3159 285.996 64.8418 292.962 64.8418C299.665 64.8418 302.162 63.2632 299.928 60.5C299.139 59.5789 298.219 56.6841 297.693 53.9209ZM271.933 3C271.013 3.00033 270.75 4.18442 271.275 5.89453C271.67 7.60506 273.904 16.5527 276.139 26.0264C278.373 35.3674 281.001 43.9192 281.79 44.8418C282.71 45.7628 285.47 46.8162 288.099 47.2109C293.619 48.132 298.351 44.447 298.351 39.3154C298.35 35.763 294.933 31.5527 292.699 32.3418C289.545 33.3944 288.625 36.9475 290.859 39.5791C294.933 44.0526 289.676 45.6318 285.207 41.1582C281.79 37.7372 281.922 33.5264 285.471 29.5791L288.493 26.5527L285.471 24.3154C281.659 21.4207 277.321 14.842 277.321 11.9473C277.321 10.1053 278.242 10.2373 283.63 13.1318C291.91 17.7371 296.248 21.9476 299.008 28.1318C300.322 30.8949 302.162 33.2627 303.214 33.2627C305.711 33.2618 305.448 24.1837 302.819 21.2891C299.797 17.8682 302.819 17.0795 306.894 20.2373C309.916 22.7371 310.836 22.8681 313.465 21.4209C317.671 19.1841 319.774 20.7632 318.723 25.5C317.934 28.6578 318.328 29.4474 321.088 30.5C322.796 31.1578 324.637 32.6049 325.031 33.7891C325.688 35.4995 324.9 35.7633 320.3 35.1055C316.62 34.5792 313.991 34.9734 312.282 36.2891C308.996 38.7891 310.705 41.1582 315.831 41.1582C318.197 41.1583 322.139 42.2106 324.899 43.5264C329.499 45.6316 340.408 54.71 340.408 56.4209C340.408 57.8683 329.631 55.6311 325.557 53.2627C322.403 51.4209 321.483 51.2896 320.957 52.8682C318.854 59.0523 310.968 61.5528 307.156 57.2109C303.476 53.1321 304.396 51.4211 309.653 52.4736C314.253 53.2631 314.254 53.2632 313.859 49.5791C313.597 46.4212 312.808 45.6313 309.391 45.3682C303.739 44.8419 300.453 48.7899 301.505 54.7109C302.951 62.3422 305.317 63.3945 318.723 62.8682C336.728 62.0787 347.111 60.763 347.769 58.9209C348.293 57.7353 335.413 37.473 323.322 20.5C320.694 16.8159 318.722 16.0261 294.145 8.9209C282.71 5.63146 272.721 3 271.933 3ZM356.968 40.2363C359.07 38.6576 362.75 37.8681 362.751 39.0518C362.751 39.1833 362.094 41.2889 361.306 43.6572C360.386 46.4204 359.071 47.7368 357.625 47.4736C354.602 46.8156 354.208 42.3416 356.968 40.2363ZM393.113 33.2617C393.902 33.2618 394.033 33.7887 393.639 34.5781C393.244 35.2358 392.193 35.8934 391.536 35.8936C390.748 35.8936 390.616 35.2358 391.01 34.5781C391.404 33.7887 392.456 33.2617 393.113 33.2617ZM408.228 20.2363C411.645 17.4732 414.668 16.5524 413.748 18.3945C412.039 21.9471 410.199 26.4209 409.542 28.3945C409.016 29.9732 407.965 30.6309 406.52 30.2363C405.205 29.8416 402.576 29.1838 400.604 28.7891C397.582 28.1312 396.925 27.2095 396.925 24.0518C396.925 21.1573 397.582 20.1045 399.291 20.1045C400.605 20.1046 402.314 20.7624 403.103 21.5518C404.285 22.7359 405.599 22.3414 408.228 20.2363ZM365.874 0C368.235 1.93717 371.367 3.61413 375.237 4.97363C383.517 7.99993 385.095 9.1842 385.095 12.4736C385.095 14.8421 384.7 14.8422 380.889 11.5527C376.814 8.13182 373.398 7.73734 367.746 10.2373C365.906 11.0267 365.38 10.5 365.249 8.13184C365.249 6.28973 363.54 3.65753 361.306 1.81543L358.963 0H365.874ZM412.671 0C412.179 1.24461 411.388 2.20512 410.198 3.13184C406.781 6.02644 402.181 6.42089 399.815 4.05273C398.254 2.48983 397.925 1.23514 399.022 0H412.671ZM317.701 0C318.297 0.782237 317.686 1.87567 315.962 3.52637C313.333 6.15772 308.996 6.15787 305.185 3.52637C303.859 2.58965 303.089 1.60633 302.682 0H317.701Z" fill="white" fill-opacity="0.05"/>
<path d="M760.238 0C753.128 5.1795 745.196 11.3402 744.897 12.2373C744.506 13.5607 753.441 42.6317 754.624 43.9473C755.807 45.1308 757.778 40.658 757.778 36.7109C757.778 34.4741 756.595 29.2105 755.149 25C753.704 20.6582 752.521 16.3164 752.52 15.1318C752.52 13.9476 755.806 10.7893 759.881 7.89453C763.174 5.60701 766.328 2.6992 768.626 0H777.955C771.584 4.01511 770.921 5.20049 770.921 8.81543C770.921 14.4733 774.207 18.9472 778.281 18.9473C785.641 18.9471 789.321 13.5528 784.59 9.60547C782.75 8.15817 782.093 8.28967 779.99 10.9209C777.099 14.3419 774.864 13.5526 774.864 9.0791C774.864 4.60542 781.173 1.3161 786.036 3.1582C790.636 4.86848 791.95 4.86786 791.95 2.7627C791.95 2.1834 792.353 1.18819 792.994 0H801.242C800.582 3.10632 799.618 6.27478 798.521 8.4209C797.207 10.9207 794.316 14.7364 792.082 16.8418C785.379 23.2891 791.161 25.6578 798.521 19.4736C803.384 15.3948 804.699 16.0529 802.465 21.5791C801.019 25.1317 801.15 25.7898 803.91 28.1582C807.064 30.7895 807.064 30.7893 804.567 32.7627C803.122 33.8152 800.888 34.7371 799.573 34.7373C797.996 34.7373 797.207 35.7894 797.207 37.8945C797.207 39.6049 796.288 41.7107 795.236 42.6318C793.528 44.0792 793.265 43.6838 793.265 40.7891C793.264 36.3156 791.292 32.4996 788.007 30.7891C785.641 29.6051 785.51 30.0008 785.772 39.6055C785.904 47.7632 785.379 51.3163 782.882 56.7109C781.174 60.5259 779.333 63.6833 778.676 63.6846C776.967 63.6846 775.916 58.5525 776.441 51.4473C776.836 45.2636 776.572 44.7366 773.682 43.9473C771.973 43.5526 769.344 41.7108 767.898 39.7373C765.401 36.4478 765.401 36.0524 767.504 32.8945C770.264 28.6842 772.235 28.553 772.235 32.6318C772.235 36.9738 775.521 39.605 778.281 37.3682C781.172 34.8681 779.989 29.4738 776.047 26.5791C772.761 24.0792 772.366 24.0794 768.424 26.1846C760.538 30.2634 760.538 32.3691 769.081 53.6846C773.418 64.2103 777.492 72.8939 778.281 72.8945C779.201 72.8943 780.647 71.5785 781.698 69.8682C782.881 68.2888 789.716 59.3421 797.076 50.1318L810.35 33.2891L809.561 13.2891C809.399 8.72256 809.212 4.08876 809.022 0H815.256C815.063 2.61563 814.873 5.47206 814.687 8.55273L813.899 23.6846L817.579 26.5791C819.551 28.158 822.837 29.4736 824.677 29.4736C831.773 29.4732 838.082 21.5791 835.322 16.1846C832.168 10.5267 824.019 15.132 825.465 21.7109C826.253 24.9999 825.859 25.5263 823.625 25.5264C822.179 25.5264 820.076 24.2107 819.024 22.6318C814.819 16.5792 817.316 11.3154 825.859 8.28906C831.247 6.44704 829.802 3.9474 824.019 4.86816C819.025 5.65764 818.368 4.6049 822.048 1.31543C822.59 0.804376 823.007 0.385208 823.306 0H848.5C848.021 0.127344 847.565 0.300713 847.151 0.526367C843.077 2.76321 844.128 8.68375 848.728 10.2627C849.147 10.4078 849.572 10.5124 850 10.582V13.6465C849.507 13.5293 848.913 13.4185 848.202 13.2891C845.837 12.8944 842.814 12.2372 841.631 11.7109C839.528 10.9215 839.266 11.7106 839.266 18.0264V25.2627L844.917 25.7891C847.094 26.0733 849.067 26.2198 850 26.2803V31.9248C849.846 31.8118 849.685 31.6965 849.517 31.5791C845.836 28.9476 839.922 28.9474 832.693 31.4473C825.596 33.9471 820.733 33.9471 817.447 31.4473C814.03 28.816 812.979 28.9475 812.979 31.9736C812.979 33.4207 812.453 34.9994 811.665 35.3945C809.168 36.9735 810.219 40.2628 812.979 39.3418C816.791 38.1583 822.968 41.9742 827.436 48.5527C831.773 54.9997 837.819 58.8158 842.156 58.1582C847.15 57.5003 846.1 54.8679 837.688 47.8945C833.089 44.0791 829.277 40.5268 829.014 40C828.751 39.3421 834.008 38.4211 840.448 38.0264C844.902 37.6548 848.045 37.2315 850 36.6689V41.7207C849.432 41.8015 848.834 41.8864 848.202 41.9736C844.654 42.4999 841.893 43.2898 841.893 43.6846C841.895 44.0809 844.786 47.3697 848.202 51.0527L850 52.9258V84.7734C847.173 86.2476 845.165 87.0892 844.917 86.8418C844.391 86.4471 845.048 81.7104 846.231 76.4473C847.546 71.3158 848.465 66.1837 848.465 65.2627C848.464 62.8949 845.179 63.2897 842.945 65.9209C839.397 70.1314 838.871 71.974 837.951 82.6318C837.031 92.1048 836.636 93.421 833.22 96.3154C830.591 98.4206 829.933 99.6055 831.116 100.132C832.036 100.527 833.876 101.974 835.19 103.421C837.556 105.921 837.688 105.921 840.054 101.053C841.988 97.1793 843.701 95.7565 850 93.0947V96.3877C849.759 96.4885 849.51 96.5961 849.254 96.7109C845.18 98.6847 841.368 106.184 842.683 110C843.077 111.579 845.968 115.526 849.122 118.815C849.406 119.13 849.699 119.462 850 119.808V129.092C845.68 122.433 840.431 114.672 835.322 107.5C832.694 103.816 830.722 103.026 806.144 95.9209C794.711 92.6318 784.723 90.0006 783.933 90C783.013 90.0002 782.75 91.1843 783.275 92.8945C783.67 94.6052 785.904 103.553 788.139 113.026C790.373 122.368 793.001 130.92 793.79 131.842C794.71 132.763 797.47 133.816 800.099 134.211C805.619 135.132 810.35 131.447 810.35 126.315C810.35 122.763 806.933 118.553 804.699 119.342C801.545 120.394 800.624 123.948 802.858 126.579C806.932 131.053 801.676 132.632 797.207 128.158C793.79 124.737 793.922 120.526 797.471 116.579L800.493 113.553L797.471 111.315C793.659 108.421 789.321 101.842 789.321 98.9473C789.321 97.1053 790.241 97.2372 795.63 100.132C803.91 104.737 808.248 108.948 811.008 115.132C812.322 117.894 814.161 120.262 815.213 120.263C817.71 120.262 817.448 111.184 814.819 108.289C811.796 104.868 814.819 104.079 818.893 107.237C821.916 109.737 822.836 109.868 825.465 108.421C829.67 106.184 831.774 107.763 830.723 112.5C829.934 115.658 830.328 116.447 833.088 117.5C834.796 118.158 836.637 119.605 837.031 120.789C837.688 122.499 836.899 122.763 832.3 122.105C828.62 121.579 825.991 121.974 824.282 123.289C820.996 125.789 822.705 128.158 827.831 128.158C830.197 128.158 834.14 129.211 836.899 130.526C840.142 132.01 846.518 136.96 850 140.351V143.825C846.581 143.521 840.417 141.925 837.557 140.263C834.402 138.421 833.482 138.289 832.956 139.868C830.853 146.052 822.968 148.553 819.156 144.211C815.476 140.132 816.396 138.421 821.653 139.474C826.253 140.263 826.254 140.263 825.859 136.579C825.596 133.421 824.808 132.631 821.391 132.368C815.739 131.842 812.453 135.79 813.505 141.711C814.951 149.342 817.317 150.394 830.723 149.868C838.709 149.518 845.196 149.063 850 148.506V152.896L849.648 152.895C838.085 152.895 828.229 153.158 827.831 153.553C827.437 153.947 828.356 155.921 829.934 157.895L832.693 161.447L850 161.314V164.405C833.787 164.271 823.078 164.003 822.836 163.685C822.442 163.027 823.362 162.237 824.808 161.711C828.75 160.527 827.962 158.816 822.31 155.921C818.368 153.816 815.213 153.29 807.722 153.685C796.813 154.079 796.418 153.816 792.475 141.053C790.373 134.211 783.802 125.395 782.093 126.974C781.304 127.895 791.425 158.421 793.002 160C793.661 160.658 799.706 161.448 806.539 161.579C813.373 161.842 819.156 162.237 819.551 162.368C820.863 163.026 805.487 164.737 796.944 164.868L788.139 165L774.995 124.474C742.137 23.158 738.195 10.3949 739.115 9.60547C739.366 9.35462 744.238 5.74458 752.055 0H760.238ZM809.693 140.921C808.773 136.316 807.722 135.132 806.014 136.842C805.619 137.368 802.727 137.632 799.836 137.632C794.447 137.5 794.447 137.5 795.367 141.711C797.338 151.316 797.996 151.842 804.962 151.842C811.664 151.842 814.162 150.263 811.928 147.5C811.139 146.579 810.219 143.684 809.693 140.921ZM760.143 43.9473C757.778 43.9482 757.516 53.5533 759.75 60.6582C771.841 98.9474 778.939 118.29 782.225 121.711C784.195 123.815 786.035 125.262 786.43 125C786.692 124.603 782.487 110.525 777.099 93.6846C771.71 76.8425 765.926 58.6842 764.218 53.4209C762.509 48.2901 760.801 43.9484 760.143 43.9473ZM847.939 102.5C848.851 101.588 849.425 101.126 850 101.256V114.555C849.528 114.138 849.071 113.63 848.597 113.026C845.311 108.684 845.048 105.395 847.939 102.5ZM820.996 46.4473C817.053 42.6317 813.373 41.8419 808.379 43.8154C805.225 45.2627 784.724 79.3373 786.167 80.7891C787.877 82.2371 821.389 96.5782 823.23 96.5791C827.042 96.5789 832.693 92.3682 833.613 88.9473C835.059 83.5527 834.271 80.3948 830.591 77.1055C826.517 73.553 822.705 73.4213 820.865 76.8418C818.894 80.526 821.391 84.6056 826.254 85.6582C830.59 86.4477 830.984 87.6319 827.962 90.5264C825.333 93.1578 820.996 93.1578 817.184 90.5264C814.95 88.9475 814.293 87.2368 814.293 82.6318C814.293 76.8424 812.19 74.7371 810.876 79.0791C810.482 80.3949 809.693 82.6318 809.036 84.0791C808.116 86.5789 807.853 86.4472 806.539 83.0264C805.225 79.8685 804.567 79.4736 798.521 79.4736C792.739 79.4736 791.819 79.079 792.213 77.2373C792.476 75.9215 794.579 73.6847 796.813 72.2373C799.836 70.3953 801.019 68.5524 801.15 65.9209V62.2373L805.093 65.1318C809.955 68.8159 811.533 67.6312 807.853 62.8945C804.436 58.421 804.305 52.632 807.722 49.2109C810.613 46.3164 813.768 45.921 816.922 47.8945C818.499 48.9471 818.367 49.4736 815.87 51.8418C812.716 54.8681 812.191 58.4207 814.557 60.7891C817.054 63.2889 820.471 62.6315 822.705 59.4736C825.859 55.0001 825.202 50.7892 820.996 46.4473ZM828.751 57.5C827.962 57.1053 822.179 66.974 822.179 68.6846C822.179 69.3424 823.494 70.2635 825.202 70.6582C826.779 71.053 829.408 71.711 830.985 72.2373C833.351 73.0264 834.271 72.2364 836.505 68.0264L839.134 62.7627L834.27 60.2627C831.643 58.9475 829.147 57.6324 828.751 57.5ZM766.059 7.10547C764.087 7.23704 753.835 15.1312 753.835 16.4473C753.835 18.5525 759.092 28.1582 760.275 28.1582C760.801 28.1577 762.378 26.9734 763.692 25.5264C765.007 24.0791 766.715 22.8946 767.504 22.8945C768.292 22.8944 769.739 22.3688 770.79 21.7109C772.367 20.7899 772.104 19.8681 769.738 16.9736C768.292 14.9999 766.978 11.9732 766.978 10.2627C766.978 8.55299 766.584 7.10652 766.059 7.10547Z" fill="white" fill-opacity="0.05"/>
<defs>
<linearGradient id="paint0_linear_3158_23378" x1="425" y1="0" x2="425" y2="400" gradientUnits="userSpaceOnUse">
<stop stop-color="#0A0F1F"/>
<stop offset="1" stop-color="#0D3D70"/>
</linearGradient>
</defs>
</svg>
