<svg width="850" height="400" viewBox="0 0 850 400" fill="none" xmlns="http://www.w3.org/2000/svg">
<rect width="850" height="400" fill="url(#paint0_linear_3158_23378)"/>
<path d="M0 375.919C0.54612 376.815 3.16546 379.779 6.20215 383.053L12.6426 389.763L11.3281 398.711C11.2577 399.146 11.1928 399.576 11.1309 400H6.07715C6.32449 398.616 6.46484 397.621 6.46484 397.263C6.46442 394.895 3.17949 395.29 0.945312 397.921C0.602747 398.327 0.289184 398.712 0 399.085V390.177C0.0521938 390.17 0.104536 390.166 0.15625 390.158C4.10967 389.637 4.27482 387.88 0 383.711V375.919ZM27.8887 247C28.5486 247.002 49.1817 261.607 73.626 279.5C98.203 297.526 122.517 315.289 127.775 318.974C159.582 342.132 158.267 341.079 157.873 345.158C157.633 347.075 150.224 370.958 140.781 400H135.144C137.575 391.79 139.21 385.229 139.21 382.789C139.21 377.526 137.108 374.105 135.925 377.526C135.655 378.337 132.819 387.129 128.665 400H122.461C127.086 389.971 135.335 366.988 134.61 364.5C133.953 361.737 127.118 356.211 124.358 356.211C122.518 356.212 116.867 362.527 116.867 364.632C116.867 365.685 117.787 367.527 118.97 368.711C121.598 371.342 124.753 369.105 124.753 364.632C124.753 360.948 126.33 360.553 129.222 363.579C133.427 367.79 130.799 373.974 124.096 375.685C120.153 376.737 120.153 376.869 120.547 385.289C121.073 397.131 119.232 399.105 115.421 390.947C113.055 385.947 112.267 382 112.136 373.579C112.004 367.658 111.61 362.395 111.347 362C110.952 361.606 109.113 363.185 107.142 365.421C104.645 368.447 103.987 370.421 104.513 372.789C105.17 375.421 104.907 375.816 103.198 375.158C101.884 374.632 100.702 372.658 100.176 370.685C99.6501 367.922 98.5983 366.869 95.707 366.211C91.2385 365.421 90.8436 362.921 94.5234 359.5C96.4949 357.789 96.7579 356.605 95.8379 354.763C95.0495 353.447 94.5235 351.211 94.5234 349.632C94.5234 346.869 94.7867 347 98.335 350.815C100.701 353.315 103.462 354.895 105.564 354.895C110.164 354.894 109.901 353.71 103.724 347C100.964 343.974 97.9413 339.499 97.2842 337.263C95.3128 330.684 94.3927 322 95.707 322C97.416 322.001 103.724 329.764 105.17 333.579C106.09 336.079 106.879 336.474 109.376 335.685C116.736 333.185 122.124 335.816 122.124 341.868C122.124 346.473 120.153 346.736 116.867 342.789C114.896 340.289 114.238 340.158 112.398 341.605C109.639 343.974 109.77 346.079 112.661 348.711C117.787 353.448 124.753 350.421 126.593 342.789C127.775 337.789 124.49 334.763 106.222 323.447C97.8101 318.316 90.5808 314.105 90.1865 314.105C89.5294 314.107 89.0038 322.924 87.4268 353.053L86.9014 365.026L102.673 385.026C107.402 391.052 111.82 396.413 114.987 400H105.493C104.248 397.907 102.89 395.642 101.489 393.315C94.9179 382.658 90.4495 376.605 88.3467 375.815C82.038 373.447 76.912 375.553 74.0205 381.605C72.0492 385.684 72.0493 386.342 74.0205 390.289C75.8605 393.71 76.9122 394.5 79.8037 394.105C84.798 393.579 85.5866 387 81.1182 383.579C78.4895 381.605 78.3578 381.079 80.0664 379.895C88.6094 374.237 96.4953 387.263 89.2666 395.026C85.1923 399.368 86.9012 400.815 91.8955 397.263C96.8894 393.447 97.5464 393.579 96.4951 398.315C96.3574 398.936 96.2663 399.502 96.2188 400H75.4629C75.4184 399.413 73.9942 396.693 72.3125 393.974C70.6042 391.342 68.8956 389.107 68.501 389.237C67.4496 389.369 60.7462 393.447 59.4316 394.763C59.0468 395.212 59.8854 397.636 60.9951 400H56.2754C55.4398 398.67 54.428 397.576 53.2549 396.737C51.0208 395.158 48.5239 395.553 48.5234 397.263C48.5234 397.616 48.6973 398.608 48.9932 400H44.5908C44.5442 399.704 44.4991 399.405 44.4492 399.105L42.7402 390.289L48.917 384.105C52.3342 380.684 55.0947 377.263 55.0947 376.474C55.0945 375.684 51.0201 374.368 46.1572 373.447L37.2197 371.868L33.2773 364.105C31.1745 359.763 28.8081 356.211 28.0195 356.211C27.2305 356.212 24.7335 359.764 22.3682 363.974C18.1624 372.131 17.6366 372.395 6.20215 373.974C3.0603 374.44 0.537167 375.113 0 375.535V369.889C11.23 368.845 12.9279 367.359 7.5166 363.579C5.58328 362.197 3.03328 361.542 0 361.593V357.517L2.91699 357.789C5.9398 358.184 8.56836 358.315 8.56836 358.315C8.70004 358.181 9.09473 355.419 9.62012 352.132C10.5401 346.079 10.5394 346.079 6.20215 345.289C4.0527 344.93 1.36138 344.353 0 343.856V328.238C0.0512129 328.177 0.104434 328.116 0.15625 328.053C2.9163 324.763 5.15125 323.315 7.64844 323.315C12.3798 323.316 17.505 328.71 16.3223 332.395C15.5337 335.158 13.0371 336.21 13.0371 333.974C13.037 331.868 8.04285 330.948 5.15137 332.526C1.07702 334.763 2.12844 340.684 6.72852 342.263C13.5629 344.631 21.9738 336.605 20.1338 329.368C18.8155 323.849 15.0933 321.612 0 317.969V311.816C3.05352 312.928 6.30443 314.115 9.48828 315.289L27.7568 322L50.8887 313.579C64.0317 308.842 74.2836 304.368 74.415 303.315C74.545 302.393 69.0257 296.868 62.1924 291.079C43.1349 275.026 43.9228 275.553 40.1113 276.474C31.9628 278.447 28.9405 286.606 34.3291 291.737C37.7459 294.895 38.5346 295.026 41.1631 292.395C43.7915 289.763 42.477 286.606 38.5342 285.685C35.9057 285.027 35.6433 284.5 36.8262 283.053C38.5348 280.948 43.0027 280.684 45.7627 282.395C46.8141 283.052 47.9973 286.211 48.3916 289.237C49.1801 294.763 49.3119 295.026 54.9629 295.947C58.1172 296.474 62.1916 297.922 64.1631 299.237L67.5811 301.474L62.3232 302.526C52.8604 304.237 46.6835 303.578 39.7178 300.289C35.2491 298.315 32.4886 297.658 31.9629 298.579C30.6489 300.553 35.9057 306.868 39.1914 307.263C43.66 307.921 41.5573 310.815 36.6943 310.815C33.4087 310.815 32.0944 311.605 31.043 313.842C29.3344 317.526 26.048 317.132 24.208 313.053C23.1566 310.684 22.2365 310.289 18.8193 310.947C14.2195 311.737 11.3287 309.368 15.2715 307.921C19.0829 306.605 23.5518 302 23.5518 299.368C23.5518 296.342 23.8137 296.342 15.4023 300.289C11.591 302.131 6.33417 303.579 3.83691 303.579C2.56718 303.579 1.27027 303.528 0 303.438V296.039C0.39944 295.959 0.802593 295.885 1.20801 295.815C5.28236 295.026 5.80785 294.5 6.20215 290.421C6.99077 283.053 11.4601 279.632 17.5059 282C20.397 283.053 20.1337 284.763 16.9795 285.553C13.4311 286.474 12.2486 290.158 14.6143 292.658C17.2429 295.289 21.8426 293.053 23.6826 288.185C25.2598 284.106 22.5001 279.105 17.5059 277.263C15.6658 276.473 13.4312 275.948 12.6426 276.079C11.8763 276.079 6.30303 280.439 0 285.678V280C1.20248 279.055 1.90638 278.467 1.99707 278.315C2.2813 277.935 1.46651 277.556 0 277.374V266.437C1.52133 265.335 3.02033 264.25 4.49414 263.185C16.7172 254.237 27.2315 247 27.8887 247ZM64.2949 363.447C57.0662 360.947 51.1517 360.948 47.4717 363.579C41.8203 367.526 43.9233 368.973 56.4092 369.895C62.9796 370.421 68.2356 371.342 68.2373 371.868C68.2373 372.394 64.4258 375.947 59.6943 379.895C50.7574 387.263 49.8376 388.71 53.123 389.895C57.3288 391.605 62.586 388.579 70.4717 380.158C77.1747 373.053 79.541 371.342 82.6953 371.342C86.9009 371.342 86.901 371.342 85.8496 365.421C84.9296 361.079 83.3523 360.553 79.541 363.447C76.2552 365.947 71.3922 365.947 64.2949 363.447ZM140.787 334.632C128.564 325.816 124.753 323.579 124.753 325.158C124.753 328.448 129.748 334.368 137.107 339.763C141.839 343.184 145.782 346.211 145.782 346.211C145.779 346.351 144.334 351.085 142.496 356.868C139.21 367.263 139.079 376.605 142.233 375.553C142.891 375.421 144.994 371.079 146.702 366.079C148.411 360.948 150.776 354.106 151.959 350.685C153.142 347.264 153.93 344.237 153.536 343.974C153.272 343.71 147.489 339.5 140.787 334.632ZM23.2881 329.5C23.8138 334.632 23.2883 336.079 18.9512 342.395C13.4311 350.552 11.854 358.184 14.877 362.132C16.7169 364.632 16.9797 364.237 21.4482 354.5C24.0769 348.842 26.1797 343.71 26.1797 342.921C26.1798 340.026 28.6776 342.132 30.5176 346.605C37.6147 364.105 38.1399 364.894 40.1113 362.263C43.2655 357.921 42.2139 352.263 36.5625 342.789C31.8314 335.027 31.1744 333.053 31.9629 328.711L32.751 323.711H22.6309L23.2881 329.5ZM80.5918 317C79.9346 312.526 78.7521 312.132 71.5234 314.105C69.4203 314.763 61.666 316.474 54.4375 318.185C39.3231 321.606 35.3799 324.369 35.3799 331.737C35.38 335.158 36.3 337 39.4541 339.632C44.0541 343.579 46.8144 343.842 50.8887 340.947C54.7002 338.316 54.5685 335.684 50.4941 333.053C47.4715 331.079 46.9457 331.079 43.9229 333.053C42.2148 334.237 40.3754 335.158 39.9805 335.158C38.2719 335.158 39.5857 327.395 41.6885 325.553C46.5514 321.211 53.3856 323.448 57.46 330.685C59.5628 334.5 61.0093 331.605 59.3008 327C57.4608 322 57.8548 321.342 61.666 323.315C63.9003 324.5 65.0834 324.237 68.3691 321.474C70.6032 319.632 73.2315 318.053 74.2832 318.053C76.5174 318.053 76.7809 323.184 74.5469 327.789C73.364 330.552 73.4946 331.606 75.2031 333.579C78.3575 337 78.0947 337.395 72.7061 336.737C66.5291 335.948 67.0551 338.842 73.4951 340.947C78.8837 342.658 81.2498 347.658 79.2783 353.185C78.4898 355.816 77.0437 356.999 74.5469 357.263C71.2611 357.657 70.9975 357.394 71.7861 353.315C72.5745 348.184 70.0778 345.29 65.3467 345.947C60.7466 346.605 60.4831 353.842 64.8203 358.185C69.6832 363.053 76.1236 362.657 80.7236 357.263C83.7463 353.579 84.1405 352.263 83.4834 347.132C83.0891 343.711 82.4324 336.606 82.0381 331.211C81.6438 325.816 80.9861 319.368 80.5918 317ZM137.37 342.658C130.404 338.316 130.01 338.316 130.01 342.395C130.01 344.237 128.958 347.395 127.775 349.237C126.067 351.737 125.936 352.921 126.987 353.185C127.907 353.579 130.667 355.158 133.296 357C135.925 358.711 138.159 360.158 138.422 360.158C139.211 360.157 143.153 349.763 143.153 347.921C143.153 347.131 140.524 344.763 137.37 342.658ZM57.9863 348.315C57.7235 342.658 57.7229 342.658 51.8086 344.632C49.706 345.421 47.2092 346.21 46.2891 346.474C44.712 346.868 45.3688 355.946 47.0771 357.789C48.3914 359.236 58.3793 357 58.249 355.158C58.1176 354.369 57.9863 351.21 57.9863 348.315ZM62.9805 278.974C59.9579 277.395 52.4675 276.605 52.4658 277.789C52.4658 278.184 62.9803 285.947 75.8604 295.289C126.855 332.394 124.753 331.079 120.284 322.658C118.576 319.5 110.032 312.526 92.0264 299.368C77.832 289.105 64.8205 279.895 62.9805 278.974ZM27.7568 262.789C27.2307 262.921 24.4712 265.027 21.5801 267.526C17.6373 271.079 16.8485 272.395 18.2939 272.921C19.3454 273.447 21.9739 275.421 23.9453 277.526L27.626 281.211L32.8828 276.868C35.6428 274.631 38.0088 272.263 38.0088 271.868C38.0081 271.341 35.905 269.105 33.4082 266.868C30.7797 264.631 28.2825 262.789 27.7568 262.789ZM27.4941 253.711C25.2593 253.843 1.34495 270.812 1.33984 272.263C1.20841 272.921 3.04848 273.315 5.15137 273.315C7.91137 273.315 12.2485 271.079 18.5566 266.737L27.7568 260.289L37.3516 266.868C44.9745 272.263 47.6031 273.447 51.2832 273.053C55.7518 272.658 55.62 272.658 42.6084 263.053C35.3798 257.921 28.677 253.579 27.4941 253.711Z" fill="white" fill-opacity="0.05"/>
<path d="M648.594 0C639.387 28.1542 631.009 53.9159 628.846 60.5264L624.508 74.3418L560.501 74.4736C525.287 74.6052 496.248 74.2107 495.838 73.6846C495.444 73.0267 496.363 72.2373 497.809 71.7109C501.752 70.5267 500.963 68.8156 495.312 65.9209C491.369 63.8157 488.214 63.2898 480.723 63.6846C469.814 64.0793 469.419 63.8158 465.477 51.0527C463.374 44.2106 456.802 35.3947 455.094 36.9736C454.306 37.8961 464.426 68.4211 466.003 70C466.661 70.6579 472.706 71.4475 479.54 71.5791C486.374 71.8422 492.157 72.2366 492.552 72.3682C493.866 73.0261 478.488 74.7366 469.945 74.8682L461.14 75L447.997 34.4736C443.824 21.6065 440.118 10.1675 436.828 0H442.289C448.746 19.0894 452.922 29.3127 455.226 31.7109C457.197 33.816 459.037 35.2632 459.432 35C459.693 34.6004 455.487 20.5235 450.1 3.68457C449.708 2.46169 449.316 1.23132 448.922 0H479.474C487.654 3.46811 495.373 6.57833 496.231 6.5791C499.659 6.5791 504.572 3.17362 506.197 0H510.026C509.385 3.21995 508.441 4.43432 506.221 6.31543C503.592 8.42055 502.935 9.60546 504.117 10.1318C505.037 10.5266 506.878 11.9735 508.192 13.4209C510.558 15.9207 510.689 15.9209 513.055 11.0527C515.158 6.84224 516.998 5.52602 524.752 2.36816C526.654 1.62178 528.39 0.829121 529.953 0H537.896L534.215 3.68457L538.026 8.4209C540.918 12.1051 542.496 13.0263 544.861 12.5C546.833 11.9738 547.753 12.3688 547.753 13.6846C547.753 16.4478 554.062 21.0528 556.559 20.1318C558.004 19.6056 558.398 19.8682 557.741 20.7891C557.215 21.7101 557.61 22.3682 558.53 22.3682C559.713 22.3678 560.238 20.6577 560.238 17.2373C560.238 14.343 560.764 11.5796 561.158 11.0527C562.867 9.34221 566.153 13.4213 566.153 17.1055C566.153 20.0001 565.101 21.4478 561.29 23.6846C556.69 26.4477 555.244 26.4471 549.855 24.3418C547.884 23.4208 547.622 23.6844 548.41 26.0527C549.067 28.2892 548.673 28.9472 546.833 28.9473C545.519 28.9473 542.758 29.8683 540.655 30.9209C532.638 35.1314 528.826 32.7629 534.872 27.3682C538.946 23.684 539.078 23.5523 535.924 24.3418C526.724 26.8418 524.489 26.7106 521.598 23.0264C518.312 18.6844 518.049 15.3947 520.94 12.5C522.912 10.5263 523.307 10.6577 525.541 14.3418C528.432 19.2102 533.69 19.868 535.924 15.7891C537.106 13.5525 536.712 12.5 533.427 9.21094C529.221 4.86882 527.249 4.47409 522.255 6.71094C518.181 8.68483 514.369 16.1843 515.684 20C516.078 21.5789 518.97 25.526 522.124 28.8154C528.301 35.6575 538.946 50.3947 535.529 47.5C531.324 44.0792 533.032 48.9478 538.421 56.1846L543.679 63.0264L522.649 62.8945C511.084 62.8945 501.227 63.158 500.832 63.5527C500.438 63.9475 501.358 65.9209 502.935 67.8945L505.694 71.4473L540.13 71.1846C571.279 70.9214 574.959 70.6575 579.559 68.2891C582.318 66.8419 584.552 65.2635 584.553 64.6055C584.553 63.9476 577.456 63.2895 568.913 63.0264L553.142 62.5L548.541 58.0264C545.913 55.527 543.811 52.896 543.81 52.2373C543.81 50.5268 560.895 31.7113 563.787 30.1318C566.021 28.9476 566.153 29.2105 565.364 32.5C564.839 34.4737 561.552 40.526 558.004 45.7891C549.724 58.1575 550.25 58.9473 566.679 58.9473C573.382 58.9473 582.188 59.3418 586.131 59.8682C592.965 60.7891 593.491 60.5267 596.251 57.2373C601.245 50.79 598.879 42.1056 592.045 42.1055C587.839 42.1055 585.474 44.0787 586.131 46.8418C586.525 48.6839 587.708 49.3425 590.862 49.2109C595.593 48.9479 596.382 51.0527 592.965 54.4736C589.548 58.0263 585.079 56.9736 581.136 51.9736L577.719 47.3682L574.433 50C569.439 53.8155 565.89 53.5526 566.679 49.2109C567.467 44.869 569.833 42.1056 572.593 42.1055C573.907 42.1055 576.01 41.1845 577.456 40.1318C578.77 39.0793 581.924 38.1583 584.29 38.1582C587.707 38.1582 588.89 37.5 589.416 35.5264C589.81 33.9475 590.862 33.0261 591.65 33.2891C593.49 33.9469 600.324 29.2113 600.325 27.2373C600.325 23.4215 607.554 15.5267 614.914 11.1846C619.383 8.55305 623.194 6.71077 623.588 7.10547C624.639 8.15808 618.725 18.4209 616.097 20C612.942 21.9736 612.811 24.0786 615.439 26.3154C618.725 29.0785 617.937 36.447 613.994 38.9473C609.525 41.9736 606.634 39.4737 610.183 35.5264C612.022 33.4213 612.153 32.6314 610.839 30.9209C608.473 28.0265 605.977 28.4216 603.479 32.2373C600.982 36.053 602.034 40.1314 606.239 42.8945C609.788 45.1314 616.228 44.4738 618.726 41.5791C620.434 39.3414 629.765 1.44872 628.846 0.394531C628.189 -0.263364 618.331 2.36874 592.439 10.1318C585.868 12.1055 579.822 14.8681 577.719 16.8418C575.484 18.947 574.039 19.6052 574.039 18.5527C574.039 17.5001 576.142 14.7366 578.771 12.3682L583.37 7.89453L580.216 6.71094C577.915 5.8193 576.243 3.54248 575.224 0H579.76C581.904 3.49602 585.569 6.57879 588.364 6.5791C589.81 6.5791 594.41 5.00029 598.616 3.1582C600.403 2.31956 602.903 1.19683 605.63 0H636.562C634.266 7.10799 631.832 14.6352 629.371 22.2373C627.137 29.079 625.56 34.9991 625.954 35.2627C626.217 35.5258 628.188 33.9475 630.159 31.7109C632.341 29.3393 637.864 15.1551 643.068 0H648.594ZM630.291 37.5C630.028 37.2369 628.32 38.1582 626.349 39.6055C623.851 41.4476 621.88 45.2634 619.383 52.6318C616.886 60.2634 615.308 63.1582 613.73 63.1582C611.891 63.1582 611.759 62.8944 613.468 61.8418C614.519 61.1839 615.965 57.6316 616.885 54.0791L618.331 47.3682H612.68C609.657 47.3682 606.239 46.9738 605.188 46.5791C603.742 46.053 603.085 47.237 602.56 50.9209C602.165 53.6841 601.639 57.1054 601.376 58.5527C601.113 60.6579 601.902 61.3158 606.239 61.9736C611.102 62.7631 610.839 62.7632 603.873 63.0264C596.25 63.1581 585.867 67.1058 585.867 69.7373C585.873 71.3158 617.279 71.5787 619.514 70C620.302 69.4737 623.194 62.1051 625.822 53.4209C628.582 44.8683 630.554 37.7632 630.291 37.5ZM482.694 50.9209C481.774 46.316 480.723 45.1317 479.015 46.8418C478.62 47.3681 475.728 47.6318 472.837 47.6318C467.448 47.5002 467.448 47.5005 468.368 51.7109C470.34 61.3159 470.997 61.8418 477.963 61.8418C484.666 61.8418 487.163 60.2632 484.929 57.5C484.14 56.5789 483.22 53.6841 482.694 50.9209ZM456.934 0C456.014 0.000333842 455.751 1.18441 456.276 2.89453C456.671 4.60506 458.905 13.5527 461.14 23.0264C463.374 32.3674 466.002 40.9192 466.791 41.8418C467.711 42.7628 470.471 43.8162 473.1 44.2109C478.62 45.132 483.352 41.447 483.352 36.3154C483.351 32.763 479.934 28.5527 477.7 29.3418C474.546 30.3944 473.626 33.9475 475.86 36.5791C479.934 41.0526 474.677 42.6318 470.208 38.1582C466.791 34.7372 466.923 30.5264 470.472 26.5791L473.494 23.5527L470.472 21.3154C466.66 18.4207 462.322 11.842 462.322 8.94727C462.322 7.10529 463.243 7.23727 468.631 10.1318C476.911 14.7371 481.249 18.9476 484.009 25.1318C485.323 27.8949 487.163 30.2627 488.215 30.2627C490.712 30.2618 490.449 21.1837 487.82 18.2891C484.798 14.8682 487.82 14.0795 491.895 17.2373C494.917 19.7371 495.837 19.8682 498.466 18.4209C502.672 16.1841 504.775 17.7632 503.724 22.5C502.935 25.6578 503.329 26.4474 506.089 27.5C507.797 28.1578 509.638 29.6049 510.032 30.7891C510.689 32.4996 509.901 32.7633 505.301 32.1055C501.621 31.5792 498.992 31.9734 497.283 33.2891C493.997 35.7891 495.706 38.1582 500.832 38.1582C503.198 38.1583 507.14 39.2106 509.9 40.5264C514.5 42.6316 525.409 51.71 525.409 53.4209C525.409 54.8683 514.632 52.6311 510.558 50.2627C507.404 48.4209 506.484 48.2896 505.958 49.8682C503.855 56.0523 495.969 58.5528 492.157 54.2109C488.477 50.1321 489.397 48.4211 494.654 49.4736C499.254 50.2631 499.255 50.2632 498.86 46.5791C498.597 43.4212 497.809 42.6313 494.392 42.3682C488.74 41.8419 485.454 45.7899 486.506 51.7109C487.952 59.3422 490.318 60.3945 503.724 59.8682C521.729 59.0787 532.112 57.763 532.77 55.9209C533.294 54.7353 520.414 34.473 508.323 17.5C505.695 13.8159 503.723 13.0261 479.146 5.9209C467.711 2.63146 457.722 0 456.934 0ZM541.969 37.2363C544.071 35.6576 547.751 34.8681 547.752 36.0518C547.752 36.1833 547.095 38.2889 546.307 40.6572C545.387 43.4204 544.072 44.7368 542.626 44.4736C539.603 43.8156 539.209 39.3416 541.969 37.2363ZM578.114 30.2617C578.903 30.2618 579.034 30.7887 578.64 31.5781C578.245 32.2358 577.194 32.8934 576.537 32.8936C575.749 32.8936 575.617 32.2359 576.011 31.5781C576.405 30.7887 577.457 30.2617 578.114 30.2617ZM593.229 17.2363C596.646 14.4732 599.669 13.5524 598.749 15.3945C597.04 18.9471 595.2 23.4209 594.543 25.3945C594.017 26.9732 592.966 27.6309 591.521 27.2363C590.206 26.8416 587.577 26.1838 585.605 25.7891C582.583 25.1312 581.926 24.2095 581.926 21.0518C581.926 18.1573 582.583 17.1045 584.292 17.1045C585.606 17.1046 587.315 17.7624 588.104 18.5518C589.286 19.7359 590.6 19.3414 593.229 17.2363ZM555.562 0C556.977 0.715632 558.536 1.37566 560.238 1.97363C568.518 4.99994 570.096 6.1842 570.096 9.47363C570.096 11.842 569.701 11.8422 565.89 8.55273C561.815 5.13182 558.399 4.73734 552.747 7.2373C550.907 8.0267 550.381 7.49999 550.25 5.13184C550.25 3.65685 549.153 1.67673 547.569 0H555.562ZM595.199 0.131836C591.782 3.02644 587.182 3.42089 584.816 1.05273C584.451 0.68652 584.154 0.336056 583.926 0H595.36C595.307 0.0431771 595.254 0.0888274 595.199 0.131836ZM501.493 0C501.33 0.168903 501.153 0.344251 500.963 0.526367C498.334 3.15772 493.997 3.15787 490.186 0.526367C489.942 0.354299 489.719 0.178772 489.512 0H501.493Z" fill="white" fill-opacity="0.07"/>
<defs>
<linearGradient id="paint0_linear_3158_23378" x1="425" y1="0" x2="425" y2="400" gradientUnits="userSpaceOnUse">
<stop stop-color="#0A0F1F"/>
<stop offset="1" stop-color="#0D3D70"/>
</linearGradient>
</defs>
</svg>
