<svg width="416" height="400" viewBox="0 0 416 400" fill="none" xmlns="http://www.w3.org/2000/svg">
<path d="M416 400H0V0H416V400Z" fill="url(#paint0_linear_3158_23377)"/>
<path d="M416 263.002C410.255 265.339 398.117 273.865 366.349 297.396C359.121 302.922 353.338 310.29 354.652 312.527C355.047 313.053 358.596 310.948 362.802 307.922C366.877 304.764 381.991 293.711 396.316 283.316C404.05 277.705 411.092 272.512 416 268.82V274.889C408.692 281.119 401.819 287.315 401.442 288.316C401.311 288.974 403.545 290.554 406.699 291.606C408.273 292.197 411.71 293.442 416 294.999V301.805C406.007 299.597 397.497 297.79 397.104 297.79C395.922 297.792 394.739 308.055 393.687 325.554L392.899 340.686L396.579 343.58C398.55 345.159 401.837 346.475 403.677 346.475C410.774 346.474 417.082 338.58 414.322 333.186C411.168 327.528 403.019 332.133 404.465 338.712C405.253 342.001 404.859 342.527 402.625 342.527C401.179 342.527 399.076 341.212 398.024 339.633C393.819 333.58 396.316 328.316 404.859 325.29C410.247 323.448 408.802 320.948 403.019 321.869C398.025 322.659 397.368 321.606 401.048 318.316C403.282 316.211 403.413 315.685 401.705 312.527C399.339 307.922 399.339 303.054 401.705 303.054C402.757 303.054 405.517 304.633 407.751 306.606C411.431 309.632 412.351 309.896 414.585 308.448C415.125 308.115 415.596 307.854 416 307.669V347.221C414.626 347.523 413.188 347.931 411.693 348.448C404.596 350.948 399.733 350.948 396.447 348.448C393.03 345.817 391.979 345.948 391.979 348.975C391.979 350.422 391.453 352 390.665 352.396C388.168 353.974 389.219 357.264 391.979 356.343C395.791 355.159 401.968 358.975 406.436 365.554C409.221 369.693 412.711 372.745 416 374.228V378.666L413.27 377.264C410.643 375.948 408.146 374.633 407.751 374.501C406.962 374.106 401.179 383.975 401.179 385.686C401.179 386.343 402.494 387.265 404.202 387.659C405.779 388.054 408.408 388.712 409.985 389.238C412.351 390.027 413.271 389.237 415.505 385.027L416 384.035V400.001H413.18C412.831 397.791 411.675 395.97 409.591 394.106C405.517 390.554 401.705 390.422 399.865 393.843C398.718 395.987 399.085 398.264 400.551 400.001H393.297C393.296 399.88 393.293 399.758 393.293 399.633C393.293 393.843 391.19 391.738 389.876 396.08C389.57 397.1 389.027 398.671 388.493 400.001H385.527C384.22 396.867 383.55 396.475 377.521 396.475C371.739 396.475 370.819 396.08 371.213 394.238C371.476 392.922 373.579 390.686 375.813 389.238C378.836 387.396 380.019 385.553 380.15 382.922V379.238L384.093 382.133C388.955 385.817 390.533 384.632 386.853 379.896C383.436 375.422 383.305 369.633 386.722 366.212C389.613 363.317 392.767 362.922 395.922 364.896C397.499 365.948 397.367 366.474 394.87 368.843C391.716 371.869 391.191 375.422 393.557 377.79C396.054 380.29 399.471 379.632 401.705 376.475C404.859 372.001 404.202 367.79 399.996 363.448C396.053 359.633 392.373 358.843 387.379 360.816C384.225 362.264 363.724 396.338 365.167 397.79C365.51 398.081 367.138 398.89 369.534 400.001H352.684C348.456 386.766 344.566 374.577 343.218 370.422C341.509 365.291 339.801 360.949 339.143 360.948C336.778 360.949 336.516 370.554 338.75 377.659C341.382 385.994 343.781 393.43 345.952 400.001H340.564C320.021 336.445 317.34 327.272 318.115 326.606C318.973 325.749 374.043 285.461 416 255.059V263.002ZM385.67 299.238C384.749 299.371 380.015 302.266 358.858 315.816C350.71 320.816 349.921 321.869 349.921 325.816C349.921 331.474 353.207 335.948 357.281 335.948C364.641 335.948 368.321 330.554 363.59 326.606C361.75 325.159 361.093 325.291 358.99 327.922C356.099 331.343 353.864 330.554 353.864 326.08C353.864 321.606 360.173 318.317 365.036 320.159C369.636 321.869 370.95 321.869 370.95 319.764C370.951 317.263 378.44 307.003 380.281 307.001C382.384 307.001 380.413 319.764 377.521 325.422C376.207 327.922 373.315 331.737 371.081 333.843C364.378 340.29 370.161 342.659 377.521 336.475C382.384 332.396 383.699 333.054 381.465 338.58C380.019 342.133 380.15 342.791 382.91 345.159C386.064 347.791 386.064 347.79 383.567 349.764C382.122 350.816 379.887 351.738 378.573 351.738C376.996 351.738 376.207 352.79 376.207 354.896C376.207 356.606 375.288 358.712 374.236 359.633C372.528 361.08 372.265 360.685 372.265 357.79C372.264 353.317 370.292 349.501 367.007 347.79C364.641 346.606 364.509 347.002 364.772 356.606C364.904 364.764 364.379 368.317 361.882 373.712C360.173 377.527 358.333 380.685 357.676 380.686C355.967 380.686 354.916 375.554 355.441 368.448C355.836 362.264 355.573 361.738 352.682 360.948C350.973 360.554 348.344 358.712 346.898 356.738C344.401 353.449 344.401 353.053 346.504 349.896C349.264 345.685 351.235 345.554 351.235 349.633C351.235 353.975 354.521 356.606 357.281 354.369C360.172 351.869 358.99 346.475 355.047 343.58C351.761 341.08 351.367 341.08 347.424 343.186C339.538 347.264 339.538 349.37 348.081 370.686C352.418 381.211 356.492 389.895 357.281 389.896C358.201 389.895 359.647 388.58 360.698 386.869C361.881 385.29 368.716 376.343 376.076 367.133L389.35 350.29L388.561 330.29C388.167 319.238 387.641 307.791 387.247 304.633C386.853 301.607 386.195 299.107 385.67 299.238ZM416 364.316C411.715 360.726 408.264 357.501 408.014 357.001C407.8 356.466 411.241 355.756 416 355.298V364.316ZM350.315 309.633C348.606 309.765 324.423 327.659 323.897 329.238C323.506 330.562 332.441 359.633 333.624 360.948C334.807 362.132 336.778 357.659 336.778 353.712C336.778 351.475 335.595 346.211 334.149 342.001C332.704 337.659 331.521 333.317 331.52 332.133C331.52 330.949 334.806 327.79 338.881 324.896C345.321 320.422 351.235 313.58 351.235 310.554C351.235 310.027 350.841 309.633 350.315 309.633ZM345.058 324.106C343.087 324.238 332.835 332.132 332.835 333.448C332.835 335.554 338.092 345.159 339.275 345.159C339.801 345.159 341.378 343.974 342.692 342.527C344.007 341.08 345.715 339.896 346.504 339.896C347.292 339.895 348.739 339.37 349.79 338.712C351.367 337.791 351.104 336.869 348.738 333.975C347.292 332.001 345.978 328.974 345.978 327.264C345.978 325.554 345.584 324.107 345.058 324.106ZM416 287.849C412.735 287.293 410.379 286.49 410.379 285.686C410.379 284.757 412.703 283.452 416 282.356V287.849Z" fill="white" fill-opacity="0.05"/>
<path d="M1.38867 0C2.01999 0.632814 2.52719 0.565323 2.80957 0H17.0977C17.3339 0.490601 17.6979 0.995478 18.2031 1.5791C21.3573 5.00004 21.0945 5.39516 15.7061 4.7373C9.52911 3.94795 10.0551 6.84203 16.4951 8.94727C21.8836 10.6579 24.2497 15.6584 22.2783 21.1846C21.4898 23.8158 20.0436 24.9994 17.5469 25.2627C14.2611 25.6574 13.9975 25.3944 14.7861 21.3154C15.5745 16.1843 13.0777 13.2897 8.34668 13.9473C3.7466 14.6052 3.4831 21.8425 7.82031 26.1846C12.6832 31.0528 19.1236 30.6574 23.7236 25.2627C26.7462 21.5788 27.1405 20.2631 26.4834 15.1318C26.1081 11.8753 25.4959 5.28003 25.0977 0H31.5605C31.2522 5.44422 30.8817 12.3618 30.4268 21.0527L29.9014 33.0264L45.6729 53.0264C54.3472 64.0789 61.9702 72.895 62.7588 72.6318C64.9938 71.8398 78.5301 35.6583 77.6104 32.5C76.9532 29.7369 70.1186 24.2112 67.3584 24.2109C65.5181 24.2116 59.8672 30.5267 59.8672 32.6318C59.8673 33.6845 60.7869 35.5268 61.9697 36.7109C64.5983 39.3422 67.7528 37.1053 67.7529 32.6318C67.7529 28.9476 69.3302 28.5528 72.2217 31.5791C76.4271 35.7896 73.7984 41.974 67.0957 43.6846C63.153 44.7371 63.1526 44.8686 63.5469 53.2891C64.0726 65.1311 62.2324 67.1051 58.4209 58.9473C56.0553 53.9474 55.2672 49.9999 55.1357 41.5791C55.0043 35.6584 54.6095 30.3954 54.3467 30C53.952 29.6059 52.1127 31.1846 50.1416 33.4209C47.6446 36.4471 46.9871 38.4208 47.5127 40.7891C48.1698 43.4205 47.9067 43.816 46.1982 43.1582C44.884 42.6319 43.7016 40.6581 43.1758 38.6846C42.6501 35.9216 41.5981 34.8688 38.707 34.2109C34.2385 33.4215 33.8436 30.9209 37.5234 27.5C39.4948 25.7895 39.7578 24.6047 38.8379 22.7627C38.0495 21.4469 37.5235 19.2106 37.5234 17.6318C37.5234 14.8688 37.7867 15 41.335 18.8154C43.7007 21.3154 46.4616 22.8945 48.5645 22.8945C53.1639 22.8944 52.9006 21.7102 46.7236 15C43.9637 11.9737 40.9413 7.4995 40.2842 5.2627C39.7817 3.58572 39.3482 1.77183 39.002 0H47.4248C47.7356 0.57225 47.9906 1.10592 48.1699 1.5791C49.0899 4.07889 49.8789 4.47402 52.376 3.68457C59.7358 1.18485 65.1239 3.81583 65.124 9.86816C65.124 14.4734 63.1529 14.7363 59.8672 10.7891C57.8959 8.28932 57.2383 8.15823 55.3984 9.60547C52.6385 11.9738 52.7697 14.0794 55.6611 16.7109C60.7869 21.4475 67.7528 18.4205 69.5928 10.7891C70.4025 7.36559 69.1171 4.86766 62.3613 0H71.4541C73.6047 2.477 76.5846 5.18056 80.1074 7.7627C84.8389 11.1837 88.7822 14.2109 88.7822 14.2109C88.7794 14.3515 87.3343 19.0845 85.4961 24.8682C82.2103 35.2629 82.0791 44.6054 85.2334 43.5527C85.8909 43.4199 87.9938 39.0783 89.7021 34.0791C91.4107 28.9477 93.7761 22.1057 94.959 18.6846C96.1417 15.2639 96.9301 12.2373 96.5361 11.9736C96.2719 11.7095 90.4891 7.49958 83.7871 2.63184C82.4653 1.67852 81.2412 0.802942 80.1104 0H88.5986C101.996 9.92371 101.171 10.0716 100.873 13.1582C100.609 15.2664 91.6731 43.9491 80.8965 76.8418C70.1192 109.736 59.341 142.895 56.8438 150.526L52.5068 164.342L0 164.449V160.329C3.80978 159.921 5.60063 159.297 7.55762 158.289C10.3173 156.842 12.5513 155.263 12.5518 154.605C12.5518 154.029 7.09934 153.451 0 153.141V149.018C5.48598 149.153 11.1734 149.474 14.1289 149.868C20.9628 150.789 21.4893 150.526 24.249 147.237C29.2432 140.79 26.8779 132.106 20.0439 132.105C15.8384 132.105 13.4721 134.079 14.1289 136.842C14.5232 138.684 15.7063 139.342 18.8604 139.211C23.5916 138.948 24.3808 141.053 20.9639 144.474C17.5467 148.026 13.0777 146.974 9.13477 141.974L5.71777 137.368L2.43164 140C1.57405 140.655 0.757675 141.188 0 141.603V132.149C0.194902 132.121 0.392327 132.105 0.591797 132.105C1.90612 132.105 4.0094 131.184 5.45508 130.132C6.76944 129.079 9.92341 128.158 12.2891 128.158C15.7061 128.158 16.8893 127.5 17.415 125.526C17.8093 123.947 18.8608 123.026 19.6494 123.289C21.4895 123.947 28.3232 119.211 28.3242 117.237C28.3242 113.422 35.5522 105.527 42.9121 101.185C47.3807 98.553 51.1926 96.7107 51.5869 97.1055C52.6376 98.1589 46.7243 108.42 44.0957 110C40.9414 111.974 40.8099 114.079 43.4385 116.315C46.7241 119.079 45.935 126.447 41.9922 128.947C37.5237 131.973 34.6324 129.474 38.1807 125.526C40.0206 123.421 40.1521 122.631 38.8379 120.921C36.4722 118.026 33.9756 118.422 31.4785 122.237C28.9814 126.053 30.0325 130.131 34.2383 132.895C37.7868 135.131 44.2263 134.474 46.7236 131.579C48.4324 129.341 57.7632 91.4491 56.8438 90.3945C56.1836 89.7378 46.3249 92.37 20.4375 100.132C13.8664 102.105 7.82089 104.868 5.71777 106.842C3.48352 108.947 2.03818 109.605 2.03809 108.553C2.03809 107.5 4.14092 104.737 6.76953 102.368L11.3691 97.8945L8.21484 96.7109C4.14052 95.132 2.03812 89.2106 2.03809 79.6055C2.03809 75.4676 1.32277 71.9999 0 69.3047V58.1885C3.52933 57.4474 7.82747 54.1854 13.4717 48.1582C20.1746 41.053 22.541 39.3418 25.6953 39.3418C29.9007 39.3418 29.901 39.3418 28.8496 33.4209C27.9296 29.079 26.3523 28.5528 22.541 31.4473C19.2553 33.9472 14.3921 33.9472 7.29492 31.4473C4.67633 30.5416 2.22994 29.9649 0 29.7217V24.4199C0.78882 24.01 1.27849 23.575 1.24902 23.1582C1.11759 22.3687 0.986328 19.2102 0.986328 16.3154C0.854002 13.4672 0.787424 12.0539 0 11.6035V0H1.38867ZM58.29 127.5C58.0272 127.237 56.3181 128.158 54.3467 129.605C51.8497 131.448 49.8779 135.264 47.3809 142.632C44.8838 150.263 43.3066 153.158 41.7295 153.158C39.8896 153.158 39.7583 152.894 41.4668 151.842C42.5182 151.184 43.9638 147.631 44.8838 144.079L46.3301 137.368H40.6787C37.6559 137.368 34.2381 136.974 33.1865 136.579C31.7409 136.053 31.0833 137.237 30.5576 140.921C30.1633 143.684 29.6379 147.105 29.375 148.553C29.1122 150.658 29.9012 151.316 34.2383 151.974C39.1009 152.763 38.8376 152.763 31.8721 153.026C24.2491 153.158 13.8662 157.106 13.8662 159.737C13.8724 161.316 45.2786 161.579 47.5127 160C48.3015 159.473 51.1928 152.105 53.8213 143.421C56.5808 134.87 58.5521 127.765 58.29 127.5ZM82.21 50.7891C82.2099 45.5262 80.1077 42.1055 78.9248 45.5264C78.3991 47.1053 68.1474 78.9479 57.3701 112.237C55.1359 119.079 53.5588 125 53.9531 125.263C54.2163 125.525 56.1871 123.947 58.1582 121.711C62.7584 116.71 82.21 59.2101 82.21 50.7891ZM6.11328 120.262C6.90137 120.262 7.03283 120.789 6.63867 121.578C6.24434 122.236 5.19322 122.893 4.53613 122.894C3.74773 122.894 3.6158 122.236 4.00977 121.578C4.40408 120.789 5.45615 120.262 6.11328 120.262ZM21.2275 107.236C24.6447 104.473 27.6679 103.553 26.748 105.395C25.0395 108.947 23.1992 113.421 22.542 115.395C22.0163 116.973 20.9649 117.631 19.5195 117.236C18.2053 116.842 15.5759 116.184 13.6045 115.789C10.5818 115.131 9.9248 114.21 9.9248 111.052C9.92486 108.158 10.5818 107.105 12.29 107.104C13.6041 107.105 15.3128 107.762 16.1016 108.552C17.2844 109.736 18.5991 109.341 21.2275 107.236ZM31.3467 43.8154C25.0381 41.4471 19.912 43.5529 17.0205 49.6055C15.0492 53.6841 15.0493 54.3421 17.0205 58.2891C18.8605 61.7101 19.9123 62.5002 22.8037 62.1055C27.7978 61.579 28.5864 55.0002 24.1182 51.5791C21.4896 49.6054 21.3578 49.0787 23.0664 47.8945C31.6093 42.2369 39.4951 55.2632 32.2666 63.0264C28.1923 67.3684 29.9012 68.8153 34.8955 65.2627C39.8893 61.4474 40.5464 61.5791 39.4951 66.3154C38.9694 68.6838 39.1011 70.2627 39.8896 70.2627C41.7298 70.2631 49.3512 76.7095 49.3525 78.2891C49.3525 78.9469 46.0668 79.4736 42.124 79.4736C36.8673 79.4736 34.8959 79.9999 34.8955 81.3154C34.8955 82.2365 33.9752 83.8162 32.9238 84.7373C31.3469 86.0528 30.9522 85.921 30.9521 83.6846C30.9521 79.8689 29.6378 76.842 27.7979 76.8418C26.8779 76.8421 26.3525 78.948 26.3525 82.2373C26.3525 86.3158 25.5638 88.2898 23.1982 90.1318C19.7811 93.0265 15.1802 93.4211 12.8145 91.0527C10.3175 88.5528 10.9752 86.8425 15.5752 84.7373C20.1749 82.6322 21.6206 79.0792 19.124 76.1846C15.0497 71.3161 5.98047 77.3689 5.98047 84.7373C5.98086 89.6056 12.1576 96.5788 16.3633 96.5791C17.8092 96.579 22.4096 95.0002 26.6152 93.1582C30.8211 91.1845 38.97 87.6311 44.7529 85.2627C51.4546 82.6316 55.1348 80.3952 54.873 79.2109C54.6102 78.2899 49.8779 70.2628 44.4893 61.3154C37.918 50.6581 33.4496 44.6051 31.3467 43.8154ZM11.501 57.2373C10.4496 57.3689 3.74638 61.4467 2.43164 62.7627C1.64306 63.6837 5.98061 72.8945 7.29492 72.8945C9.52964 72.7627 18.4665 68.9475 18.4668 68.0264C18.4668 67.5001 17.021 64.7367 15.3125 61.9736C13.6044 59.3428 11.8959 57.1071 11.501 57.2373ZM0 37.9443C6.29172 38.4771 11.2356 39.3577 11.2373 39.8682C11.2373 40.3945 7.42579 43.9472 2.69434 47.8945C1.69817 48.7158 0.802223 49.4645 0 50.1465V37.9443ZM80.3701 10.6582C73.4044 6.31617 73.0098 6.31579 73.0098 10.3945C73.0098 12.2366 71.9582 15.3952 70.7754 17.2373C69.0671 19.7369 68.9359 20.9214 69.9873 21.1846C70.9076 21.5795 73.6676 23.1581 76.2959 25C78.9245 26.7105 81.159 28.1582 81.4219 28.1582C82.2111 28.1556 86.1533 17.7628 86.1533 15.9209C86.153 15.1313 83.5242 12.7633 80.3701 10.6582Z" fill="white" fill-opacity="0.05"/>
<defs>
<linearGradient id="paint0_linear_3158_23377" x1="208" y1="400" x2="208" y2="0" gradientUnits="userSpaceOnUse">
<stop stop-color="#0A0F1F"/>
<stop offset="1" stop-color="#0D3D70"/>
</linearGradient>
</defs>
</svg>
