<svg width="416" height="400" viewBox="0 0 416 400" fill="none" xmlns="http://www.w3.org/2000/svg">
<path d="M416 400H0V0H416V400Z" fill="url(#paint0_linear_3158_23377)"/>
<path d="M416 240.502C408.768 244.926 393.344 256.098 393.34 257.263C393.208 257.921 395.048 258.315 397.151 258.315C399.911 258.315 404.249 256.079 410.557 251.737L416 247.922V250.5C415.238 251.118 414.414 251.805 413.58 252.526C409.637 256.079 408.848 257.395 410.294 257.921C411.346 258.447 413.974 260.421 415.945 262.526L416 262.581V269.456C415.443 266.441 413.033 263.564 409.506 262.263C407.666 261.473 405.431 260.948 404.643 261.079C402.803 261.079 373.236 286.206 372.442 288.315C372.311 288.973 374.545 290.553 377.699 291.605C380.854 292.79 391.5 296.605 401.488 300.289L416 305.619V308.711H414.631L415.288 314.5C415.814 319.631 415.288 321.079 410.951 327.395C405.431 335.552 403.854 343.184 406.877 347.132C408.717 349.631 408.98 349.236 413.448 339.5C414.392 337.469 415.265 335.506 416 333.787V346.208C415.464 347.072 414.912 348.005 414.368 348.974C410.162 357.131 409.636 357.395 398.202 358.974C394.654 359.5 391.894 360.29 391.894 360.685C391.895 361.081 394.786 364.37 398.202 368.053L404.643 374.763L403.328 383.711C402.54 388.578 402.277 392.919 402.671 393.315C403.066 393.71 407.009 392.263 411.477 390.026L416 387.725V392.607C414.994 393.084 410.664 395.618 405.694 398.579C404.86 399.076 404.04 399.551 403.249 400H394.998C395.256 398.174 395.688 395.866 396.231 393.447C397.546 388.316 398.465 383.184 398.465 382.263C398.464 379.895 395.179 380.29 392.945 382.921C389.397 387.131 388.871 388.974 387.951 399.632C387.939 399.756 387.926 399.879 387.914 400H384.18C383.831 397.79 382.675 395.969 380.591 394.105C376.517 390.553 372.705 390.421 370.865 393.842C369.718 395.986 370.085 398.263 371.551 400H364.297C364.296 399.879 364.293 399.757 364.293 399.632C364.293 393.842 362.19 391.737 360.876 396.079C360.57 397.099 360.027 398.67 359.493 400H356.527C355.22 396.866 354.55 396.474 348.521 396.474C342.739 396.474 341.819 396.079 342.213 394.237C342.476 392.922 344.579 390.685 346.813 389.237C349.836 387.395 351.019 385.552 351.15 382.921V379.237L355.093 382.132C359.955 385.816 361.533 384.631 357.854 379.895C354.436 375.421 354.305 369.632 357.722 366.211C360.613 363.316 363.768 362.921 366.922 364.895C368.499 365.947 368.367 366.474 365.87 368.842C362.716 371.868 362.191 375.421 364.557 377.789C367.054 380.289 370.471 379.631 372.705 376.474C375.859 372 375.202 367.789 370.996 363.447C367.053 359.632 363.373 358.842 358.379 360.815C355.225 362.263 334.724 396.337 336.167 397.789C336.511 398.08 338.139 398.889 340.534 400H323.685C319.456 386.765 315.567 374.576 314.218 370.421C312.51 365.29 310.801 360.949 310.144 360.947C307.778 360.948 307.516 370.553 309.75 377.658C312.382 385.993 314.781 393.429 316.952 400H311.564C291.021 336.444 288.34 327.271 289.115 326.605C290.045 325.677 353.914 278.972 396.494 248.185C404.485 242.335 411.747 237.218 416 234.375V240.502ZM416 400H415.42C415.638 399.657 415.83 399.311 416 398.965V400ZM356.67 299.237C355.749 299.37 351.015 302.265 329.858 315.815C321.71 320.815 320.921 321.868 320.921 325.815C320.921 331.473 324.207 335.947 328.281 335.947C335.641 335.947 339.321 330.553 334.59 326.605C332.75 325.158 332.093 325.29 329.99 327.921C327.099 331.342 324.864 330.553 324.864 326.079C324.864 321.605 331.173 318.316 336.036 320.158C340.636 321.868 341.95 321.868 341.95 319.763C341.951 317.262 349.441 307.002 351.281 307C353.384 307.002 351.413 319.763 348.521 325.421C347.207 327.921 344.315 331.736 342.081 333.842C335.378 340.289 341.161 342.658 348.521 336.474C353.384 332.395 354.699 333.053 352.465 338.579C351.019 342.132 351.15 342.79 353.91 345.158C357.064 347.789 357.064 347.789 354.567 349.763C353.122 350.815 350.888 351.737 349.573 351.737C347.996 351.737 347.207 352.789 347.207 354.895C347.207 356.605 346.288 358.711 345.236 359.632C343.528 361.079 343.265 360.684 343.265 357.789C343.265 353.316 341.292 349.5 338.007 347.789C335.642 346.605 335.51 347.001 335.772 356.605C335.904 364.763 335.379 368.316 332.882 373.711C331.174 377.526 329.333 380.683 328.676 380.685C326.967 380.685 325.916 375.553 326.441 368.447C326.836 362.264 326.572 361.737 323.682 360.947C321.973 360.553 319.344 358.711 317.898 356.737C315.401 353.448 315.401 353.052 317.504 349.895C320.264 345.684 322.235 345.553 322.235 349.632C322.235 353.974 325.521 356.605 328.281 354.368C331.172 351.868 329.989 346.474 326.047 343.579C322.761 341.079 322.366 341.079 318.424 343.185C310.538 347.263 310.538 349.369 319.081 370.685C323.418 381.21 327.493 389.894 328.281 389.895C329.201 389.894 330.647 388.578 331.698 386.868C332.882 385.289 339.716 376.342 347.076 367.132L360.351 350.289L359.562 330.289C359.167 319.237 358.641 307.79 358.247 304.632C357.853 301.606 357.196 299.107 356.67 299.237ZM378.751 374.5C377.962 374.105 372.179 383.974 372.179 385.685C372.179 386.342 373.494 387.264 375.202 387.658C376.779 388.053 379.408 388.711 380.985 389.237C383.351 390.026 384.271 389.236 386.505 385.026L389.134 379.763L384.271 377.263C381.643 375.948 379.147 374.633 378.751 374.5ZM367.447 348.447C364.03 345.816 362.98 345.947 362.979 348.974C362.979 350.421 362.453 351.999 361.665 352.395C359.168 353.973 360.219 357.263 362.979 356.342C366.791 355.158 372.968 358.974 377.437 365.553C381.774 372 387.819 375.816 392.156 375.158C397.15 374.5 396.099 371.868 387.688 364.895C383.089 361.079 379.277 357.527 379.014 357C378.751 356.342 384.008 355.421 390.448 355.026C403.065 353.974 405.168 352.526 399.517 348.579C395.837 345.948 389.922 345.947 382.693 348.447C375.596 350.947 370.733 350.947 367.447 348.447ZM321.315 309.632C319.606 309.764 295.424 327.658 294.897 329.237C294.506 330.561 303.441 359.632 304.624 360.947C305.807 362.131 307.778 357.658 307.778 353.711C307.778 351.474 306.595 346.211 305.149 342C303.704 337.658 302.521 333.316 302.521 332.132C302.521 330.948 305.807 327.789 309.881 324.895C316.321 320.421 322.235 313.579 322.235 310.553C322.235 310.027 321.841 309.632 321.315 309.632ZM368.104 297.789C366.922 297.791 365.739 308.054 364.688 325.553L363.899 340.685L367.579 343.579C369.551 345.158 372.837 346.474 374.677 346.474C381.774 346.473 388.082 338.579 385.322 333.185C382.168 327.527 374.019 332.132 375.465 338.711C376.253 342 375.859 342.526 373.625 342.526C372.179 342.526 370.076 341.211 369.024 339.632C364.819 333.579 367.316 328.315 375.859 325.289C381.247 323.447 379.802 320.947 374.02 321.868C369.025 322.658 368.368 321.605 372.048 318.315C374.282 316.211 374.413 315.684 372.705 312.526C370.339 307.921 370.339 303.053 372.705 303.053C373.757 303.053 376.517 304.632 378.751 306.605C382.431 309.631 383.351 309.895 385.585 308.447C389.002 306.342 389.66 307.132 387.951 311.474C385.717 317.395 387.951 318.184 392.156 313.053C394.916 309.763 397.151 308.315 399.648 308.315C404.38 308.316 409.505 313.71 408.322 317.395C407.534 320.158 405.037 321.21 405.037 318.974C405.037 316.869 400.043 315.948 397.151 317.526C393.077 319.763 394.128 325.684 398.729 327.263C405.563 329.631 413.974 321.605 412.134 314.368C410.688 308.316 406.351 306.21 387.294 301.868C377.177 299.632 368.504 297.79 368.104 297.789ZM316.059 324.105C314.087 324.237 303.835 332.131 303.835 333.447C303.835 335.553 309.093 345.158 310.275 345.158C310.769 345.158 312.185 344.116 313.442 342.794L313.942 342.259C315.216 340.936 316.764 339.895 317.504 339.895C318.293 339.894 319.739 339.369 320.79 338.711C322.367 337.79 322.104 336.868 319.738 333.974C318.293 332 316.979 328.973 316.979 327.263C316.978 325.553 316.584 324.107 316.059 324.105ZM391.631 328.711C389.528 327.921 389.266 328.711 389.266 335.026V342.263L394.917 342.789C397.94 343.184 400.568 343.315 400.568 343.315C400.7 343.178 401.095 340.418 401.62 337.132C402.54 331.079 402.539 331.078 398.202 330.289C395.837 329.894 392.814 329.237 391.631 328.711ZM390.054 262.263C385.716 262.263 376.253 268.579 337.35 297.395C330.121 302.921 324.338 310.289 325.652 312.526C326.047 313.052 329.596 310.947 333.802 307.921C337.877 304.762 352.991 293.71 367.316 283.315C381.642 272.921 393.603 263.973 393.997 263.315C394.39 262.789 392.681 262.263 390.054 262.263ZM398.202 275.421C398.991 268.053 403.46 264.632 409.506 267C412.397 268.053 412.133 269.763 408.979 270.553C405.431 271.474 404.249 275.158 406.614 277.658C409.243 280.289 413.843 278.052 415.683 273.185C415.823 272.823 415.927 272.453 416 272.079V297.609C415.024 295.637 414.011 295.333 410.819 295.947C406.22 296.737 403.329 294.368 407.271 292.921C411.083 291.605 415.552 287 415.552 284.368C415.552 281.342 415.813 281.342 407.402 285.289C403.591 287.131 398.334 288.579 395.837 288.579C389.003 288.579 381.38 287.132 381.379 285.685C381.379 284.237 387.031 281.868 393.208 280.815C397.282 280.026 397.808 279.5 398.202 275.421Z" fill="white" fill-opacity="0.05"/>
<defs>
<linearGradient id="paint0_linear_3158_23377" x1="208" y1="400" x2="208" y2="0" gradientUnits="userSpaceOnUse">
<stop stop-color="#0A0F1F"/>
<stop offset="1" stop-color="#0D3D70"/>
</linearGradient>
</defs>
</svg>
