<svg width="22" height="21" viewBox="0 0 22 21" fill="none" xmlns="http://www.w3.org/2000/svg">
<path d="M21.4232 8.11799C21.3294 7.82974 21.1524 7.57568 20.9145 7.38783C20.6766 7.19997 20.3885 7.08673 20.0863 7.06237L14.5551 6.61612L12.4194 1.45143C12.3039 1.17001 12.1074 0.92929 11.8547 0.759874C11.6021 0.590458 11.3047 0.5 11.0005 0.5C10.6963 0.5 10.399 0.590458 10.1463 0.759874C9.89369 0.92929 9.69712 1.17001 9.58162 1.45143L7.44788 6.61518L1.91381 7.06237C1.61117 7.08797 1.3228 7.2023 1.08485 7.39106C0.8469 7.57982 0.669943 7.8346 0.576151 8.12348C0.482359 8.41237 0.475904 8.7225 0.557593 9.01504C0.639283 9.30758 0.805485 9.5695 1.03538 9.76799L5.25413 13.4083L3.96881 18.8514C3.89693 19.1471 3.91453 19.4575 4.01938 19.7432C4.12423 20.0289 4.3116 20.277 4.55771 20.456C4.80382 20.635 5.09757 20.7369 5.40166 20.7486C5.70576 20.7604 6.00649 20.6815 6.26569 20.5221L11.0001 17.6083L15.7372 20.5221C15.9965 20.6796 16.2967 20.757 16.5998 20.7443C16.903 20.7317 17.1956 20.6297 17.4409 20.451C17.6861 20.2724 17.8731 20.0252 17.9782 19.7406C18.0832 19.4559 18.1017 19.1466 18.0313 18.8514L16.7413 13.4074L20.9601 9.76706C21.1918 9.56889 21.3595 9.3064 21.442 9.01284C21.5244 8.71927 21.5179 8.40784 21.4232 8.11799ZM19.9851 8.63081L15.4194 12.5683C15.3153 12.6581 15.2379 12.7747 15.1955 12.9055C15.1532 13.0362 15.1476 13.1761 15.1794 13.3099L16.5744 19.1974C16.578 19.2055 16.5784 19.2147 16.5754 19.223C16.5725 19.2314 16.5664 19.2383 16.5585 19.2424C16.5416 19.2555 16.5369 19.2527 16.5229 19.2424L11.3929 16.0877C11.2747 16.015 11.1388 15.9766 11.0001 15.9766C10.8614 15.9766 10.7254 16.015 10.6072 16.0877L5.47725 19.2442C5.46319 19.2527 5.45944 19.2555 5.44163 19.2442C5.43371 19.2402 5.42765 19.2333 5.42468 19.2249C5.42172 19.2165 5.42208 19.2074 5.42569 19.1992L6.82069 13.3117C6.85248 13.178 6.84691 13.0381 6.80458 12.9073C6.76226 12.7766 6.68481 12.6599 6.58069 12.5702L2.01506 8.63268C2.00381 8.62331 1.9935 8.61487 2.00288 8.58581C2.01225 8.55674 2.01975 8.56049 2.03381 8.55862L8.02631 8.07487C8.16376 8.06308 8.29529 8.01361 8.40644 7.9319C8.51759 7.85019 8.60405 7.73941 8.65631 7.61174L10.9644 2.02331C10.9719 2.00737 10.9747 1.99987 10.9972 1.99987C11.0197 1.99987 11.0226 2.00737 11.0301 2.02331L13.3438 7.61174C13.3966 7.73946 13.4836 7.85012 13.5952 7.93152C13.7069 8.01291 13.8389 8.06187 13.9766 8.07299L19.9691 8.55674C19.9832 8.55674 19.9916 8.55674 20.0001 8.58393C20.0085 8.61112 20.0001 8.62143 19.9851 8.63081Z" fill="black" fill-opacity="0.6"/>
</svg>
